<?xml version="1.0" encoding="utf-8"?>
<!-- Generator: Adobe Illustrator 19.0.0, SVG Export Plug-In . SVG Version: 6.00 Build 0)  -->
<svg version="1.1" id="Layer_1" xmlns="http://www.w3.org/2000/svg" xmlns:xlink="http://www.w3.org/1999/xlink" x="0px" y="0px"
	 viewBox="0 0 2000 2000" style="enable-background:new 0 0 2000 2000;" xml:space="preserve">
<style type="text/css">
	.st0{clip-path:url(#XMLID_8_);}
	.st1{fill:none;stroke:#58595B;stroke-width:6;stroke-linecap:round;stroke-linejoin:round;stroke-miterlimit:10;}
</style>
<g id="XMLID_39_">
	<defs>
		<polyline id="XMLID_40_" points="0,0 2000,0 2000,2000 0,2000 		"/>
	</defs>
	<clipPath id="XMLID_8_">
		<use xlink:href="#XMLID_40_"  style="overflow:visible;"/>
	</clipPath>
	<g id="POLYLINE_32_" class="st0">
		<polyline id="XMLID_72_" class="st1" points="140.5,791.1 -400.6,602.8 -446,830.9 126,864.1 		"/>
	</g>
	<g id="POLYLINE_31_" class="st0">
		<polyline id="XMLID_71_" class="st1" points="285.9,478.1 -142,97.1 -271.2,290.5 244.5,540 		"/>
	</g>
	<g id="POLYLINE_30_" class="st0">
		<polyline id="XMLID_70_" class="st1" points="540,244.5 290.5,-271.2 97.1,-142 478.1,285.9 		"/>
	</g>
	<g id="POLYLINE_29_" class="st0">
		<polyline id="XMLID_69_" class="st1" points="864.1,126 830.9,-446 602.8,-400.6 791.1,140.5 		"/>
	</g>
	<g id="POLYLINE_28_" class="st0">
		<polyline id="XMLID_68_" class="st1" points="1208.9,140.5 1397.2,-400.6 1169.1,-446 1135.9,126 		"/>
	</g>
	<g id="POLYLINE_27_" class="st0">
		<polyline id="XMLID_67_" class="st1" points="1521.9,285.9 1902.9,-142 1709.5,-271.2 1460,244.5 		"/>
	</g>
	<g id="POLYLINE_26_" class="st0">
		<polyline id="XMLID_66_" class="st1" points="1755.5,540 2271.2,290.5 2142,97.1 1714.1,478.1 		"/>
	</g>
	<g id="POLYLINE_25_" class="st0">
		<polyline id="XMLID_65_" class="st1" points="1874,864.1 2446,830.9 2400.6,602.8 1859.5,791.1 		"/>
	</g>
	<g id="POLYLINE_24_" class="st0">
		<polyline id="XMLID_64_" class="st1" points="1859.5,1208.9 2400.6,1397.2 2446,1169.1 1874,1135.9 		"/>
	</g>
	<g id="POLYLINE_23_" class="st0">
		<polyline id="XMLID_63_" class="st1" points="1714.1,1521.9 2142,1902.9 2271.2,1709.5 1755.5,1460 		"/>
	</g>
	<g id="POLYLINE_22_" class="st0">
		<polyline id="XMLID_62_" class="st1" points="1460,1755.5 1709.5,2271.2 1902.9,2142 1521.9,1714.1 		"/>
	</g>
	<g id="POLYLINE_21_" class="st0">
		<polyline id="XMLID_61_" class="st1" points="1135.9,1874 1169.1,2446 1397.2,2400.6 1208.9,1859.5 		"/>
	</g>
	<g id="POLYLINE_20_" class="st0">
		<polyline id="XMLID_60_" class="st1" points="791.1,1859.5 602.8,2400.6 830.9,2446 864.1,1874 		"/>
	</g>
	<g id="POLYLINE_19_" class="st0">
		<polyline id="XMLID_59_" class="st1" points="478.1,1714.1 97.1,2142 290.5,2271.2 540,1755.5 		"/>
	</g>
	<g id="POLYLINE_18_" class="st0">
		<polyline id="XMLID_58_" class="st1" points="244.5,1460 -271.2,1709.5 -142,1902.9 285.9,1521.9 		"/>
	</g>
	<g id="POLYLINE_17_" class="st0">
		<polyline id="XMLID_57_" class="st1" points="126,1135.9 -446,1169.1 -400.6,1397.2 140.5,1208.9 		"/>
	</g>
	<g id="POLYLINE_16_" class="st0">
		<polyline id="XMLID_56_" class="st1" points="244.5,540 363.8,616.8 365.4,617.6 367,618.4 368.7,619.1 370.4,619.7 372.2,620.2 
			374,620.7 375.8,621 377.6,621.2 379.4,621.4 381.2,621.4 383.1,621.4 384.9,621.2 386.7,621 388.5,620.7 390.3,620.2 392,619.7 
			393.7,619.1 395.4,618.4 397.1,617.6 398.7,616.8 400.2,615.8 401.7,614.8 403.2,613.7 404.6,612.5 405.9,611.2 407.2,609.9 
			408.3,608.5 409.5,607.1 410.5,605.6 411.4,604 412.3,602.4 413.1,600.7 413.8,599.1 414.4,597.3 414.9,595.6 415.4,593.8 
			415.7,592 415.9,590.2 416.1,588.4 416.1,586.6 416.1,584.7 415.9,582.9 415.7,581.1 415.4,579.3 414.9,577.5 414.4,575.8 
			413.8,574.1 413.1,572.4 412.3,570.7 411.4,569.1 410.5,567.6 409.5,566 408.3,564.6 407.2,563.2 405.9,561.9 404.6,560.6 
			403.2,559.4 401.7,558.3 285.9,478.1 		"/>
	</g>
	<g id="POLYLINE_15_" class="st0">
		<polyline id="XMLID_55_" class="st1" points="126,864.1 265.6,889.4 267.4,889.6 269.2,889.7 271,889.7 272.8,889.6 274.7,889.4 
			276.5,889.1 278.3,888.7 280,888.3 281.8,887.7 283.5,887 285.1,886.3 286.8,885.5 288.3,884.6 289.9,883.6 291.4,882.5 
			292.8,881.3 294.1,880.1 295.4,878.8 296.6,877.5 297.8,876.1 298.9,874.6 299.9,873 300.8,871.5 301.6,869.8 302.3,868.2 
			303,866.5 303.6,864.7 304,863 304.4,861.2 304.7,859.4 304.9,857.6 305,855.7 305,853.9 304.9,852.1 304.7,850.3 304.4,848.5 
			304,846.7 303.6,844.9 303,843.2 302.3,841.5 301.6,839.8 300.8,838.2 299.9,836.6 298.9,835.1 297.8,833.6 296.6,832.2 
			295.4,830.8 294.1,829.5 292.8,828.3 291.4,827.1 289.9,826.1 288.3,825.1 286.8,824.2 285.1,823.3 283.5,822.6 281.8,821.9 
			280,821.4 278.3,820.9 140.5,791.1 		"/>
	</g>
	<g id="POLYLINE_14_" class="st0">
		<polyline id="XMLID_54_" class="st1" points="140.5,1208.9 279.1,1178.9 280.9,1178.4 282.6,1177.8 284.3,1177.1 285.9,1176.3 
			287.6,1175.4 289.1,1174.4 290.6,1173.4 292.1,1172.3 293.5,1171.1 294.8,1169.8 296,1168.5 297.2,1167.1 298.3,1165.7 
			299.4,1164.2 300.3,1162.6 301.2,1161 302,1159.4 302.7,1157.7 303.3,1156 303.8,1154.2 304.2,1152.4 304.6,1150.6 304.8,1148.8 
			305,1147 305,1145.2 305,1143.4 304.8,1141.5 304.6,1139.7 304.2,1137.9 303.8,1136.2 303.3,1134.4 302.7,1132.7 302,1131 
			301.2,1129.3 300.3,1127.7 299.4,1126.2 298.3,1124.7 297.2,1123.2 296,1121.8 294.8,1120.5 293.5,1119.3 292.1,1118.1 
			290.6,1117 289.1,1115.9 287.6,1115 286,1114.1 284.3,1113.3 282.6,1112.6 280.9,1112 279.1,1111.5 277.4,1111.1 275.6,1110.7 
			273.8,1110.5 271.9,1110.3 270.1,1110.3 268.3,1110.3 266.5,1110.5 264.7,1110.7 126,1135.9 		"/>
	</g>
	<g id="POLYLINE_13_" class="st0">
		<polyline id="XMLID_53_" class="st1" points="285.9,1521.9 402.5,1441.1 403.9,1440 405.2,1438.8 406.5,1437.5 407.8,1436.1 
			408.9,1434.7 410,1433.2 411,1431.7 411.9,1430.1 412.7,1428.5 413.5,1426.8 414.1,1425.1 414.7,1423.4 415.2,1421.6 
			415.5,1419.8 415.8,1418 416,1416.2 416.1,1414.4 416.1,1412.5 416,1410.7 415.8,1408.9 415.5,1407.1 415.2,1405.3 414.7,1403.5 
			414.1,1401.8 413.5,1400.1 412.7,1398.4 411.9,1396.8 411,1395.2 410,1393.7 408.9,1392.2 407.8,1390.8 406.5,1389.4 
			405.2,1388.1 403.9,1386.9 402.5,1385.8 401,1384.7 399.5,1383.7 397.9,1382.8 396.3,1382 394.6,1381.2 392.9,1380.6 391.1,1380 
			389.4,1379.5 387.6,1379.1 385.8,1378.9 384,1378.7 382.1,1378.6 380.3,1378.6 378.5,1378.7 376.7,1378.9 374.9,1379.1 
			373.1,1379.5 371.3,1380 369.6,1380.6 367.9,1381.2 366.2,1382 364.6,1382.8 363,1383.7 244.5,1460 		"/>
	</g>
	<g id="POLYLINE_12_" class="st0">
		<polyline id="XMLID_52_" class="st1" points="540,1755.5 616.8,1636.2 617.6,1634.6 618.4,1633 619.1,1631.3 619.7,1629.6 
			620.2,1627.8 620.7,1626 621,1624.2 621.2,1622.4 621.4,1620.6 621.4,1618.8 621.4,1616.9 621.2,1615.1 621,1613.3 620.7,1611.5 
			620.2,1609.7 619.7,1608 619.1,1606.3 618.4,1604.6 617.6,1602.9 616.8,1601.3 615.8,1599.8 614.8,1598.3 613.7,1596.8 
			612.5,1595.4 611.2,1594.1 609.9,1592.8 608.5,1591.7 607.1,1590.5 605.6,1589.5 604,1588.6 602.4,1587.7 600.7,1586.9 
			599.1,1586.2 597.3,1585.6 595.6,1585.1 593.8,1584.6 592,1584.3 590.2,1584.1 588.4,1583.9 586.6,1583.9 584.7,1583.9 
			582.9,1584.1 581.1,1584.3 579.3,1584.6 577.5,1585.1 575.8,1585.6 574.1,1586.2 572.4,1586.9 570.7,1587.7 569.1,1588.6 
			567.6,1589.5 566,1590.5 564.6,1591.7 563.2,1592.8 561.9,1594.1 560.6,1595.4 559.4,1596.8 558.3,1598.3 478.1,1714.1 		"/>
	</g>
	<g id="POLYLINE_11_" class="st0">
		<polyline id="XMLID_51_" class="st1" points="864.1,1874 889.4,1734.4 889.6,1732.6 889.7,1730.8 889.7,1729 889.6,1727.2 
			889.4,1725.3 889.1,1723.5 888.7,1721.7 888.3,1720 887.7,1718.2 887,1716.5 886.3,1714.9 885.5,1713.2 884.6,1711.7 
			883.6,1710.1 882.5,1708.6 881.3,1707.2 880.1,1705.9 878.8,1704.6 877.5,1703.4 876.1,1702.2 874.6,1701.1 873,1700.1 
			871.5,1699.2 869.8,1698.4 868.2,1697.7 866.5,1697 864.7,1696.4 863,1696 861.2,1695.6 859.4,1695.3 857.6,1695.1 855.7,1695 
			853.9,1695 852.1,1695.1 850.3,1695.3 848.5,1695.6 846.7,1696 844.9,1696.4 843.2,1697 841.5,1697.7 839.8,1698.4 838.2,1699.2 
			836.6,1700.1 835.1,1701.1 833.6,1702.2 832.2,1703.4 830.8,1704.6 829.5,1705.9 828.3,1707.2 827.1,1708.6 826.1,1710.1 
			825.1,1711.7 824.2,1713.2 823.3,1714.9 822.6,1716.5 821.9,1718.2 821.4,1720 820.9,1721.7 791.1,1859.5 		"/>
	</g>
	<g id="POLYLINE_10_" class="st0">
		<polyline id="XMLID_50_" class="st1" points="1208.9,1859.5 1178.9,1720.9 1178.4,1719.1 1177.8,1717.4 1177.1,1715.7 
			1176.3,1714.1 1175.4,1712.4 1174.4,1710.9 1173.4,1709.4 1172.3,1707.9 1171.1,1706.5 1169.8,1705.2 1168.5,1704 1167.1,1702.8 
			1165.7,1701.7 1164.2,1700.6 1162.6,1699.7 1161,1698.8 1159.4,1698 1157.7,1697.3 1156,1696.7 1154.2,1696.2 1152.4,1695.8 
			1150.6,1695.4 1148.8,1695.2 1147,1695 1145.2,1695 1143.4,1695 1141.5,1695.2 1139.7,1695.4 1137.9,1695.8 1136.2,1696.2 
			1134.4,1696.7 1132.7,1697.3 1131,1698 1129.3,1698.8 1127.7,1699.7 1126.2,1700.6 1124.7,1701.7 1123.2,1702.8 1121.8,1704 
			1120.5,1705.2 1119.3,1706.5 1118.1,1707.9 1117,1709.4 1115.9,1710.9 1115,1712.4 1114.1,1714 1113.3,1715.7 1112.6,1717.4 
			1112,1719.1 1111.5,1720.9 1111.1,1722.6 1110.7,1724.4 1110.5,1726.2 1110.3,1728.1 1110.3,1729.9 1110.3,1731.7 1110.5,1733.5 
			1110.7,1735.3 1135.9,1874 		"/>
	</g>
	<g id="POLYLINE_9_" class="st0">
		<polyline id="XMLID_49_" class="st1" points="1521.9,1714.1 1441.1,1597.5 1440,1596.1 1438.8,1594.8 1437.5,1593.5 
			1436.1,1592.2 1434.7,1591.1 1433.2,1590 1431.7,1589 1430.1,1588.1 1428.5,1587.3 1426.8,1586.5 1425.1,1585.9 1423.4,1585.3 
			1421.6,1584.8 1419.8,1584.5 1418,1584.2 1416.2,1584 1414.4,1583.9 1412.5,1583.9 1410.7,1584 1408.9,1584.2 1407.1,1584.5 
			1405.3,1584.8 1403.5,1585.3 1401.8,1585.9 1400.1,1586.5 1398.4,1587.3 1396.8,1588.1 1395.2,1589 1393.7,1590 1392.2,1591.1 
			1390.8,1592.2 1389.4,1593.5 1388.1,1594.8 1386.9,1596.1 1385.8,1597.5 1384.7,1599 1383.7,1600.5 1382.8,1602.1 1382,1603.7 
			1381.2,1605.4 1380.6,1607.1 1380,1608.9 1379.5,1610.6 1379.1,1612.4 1378.9,1614.2 1378.7,1616 1378.6,1617.9 1378.6,1619.7 
			1378.7,1621.5 1378.9,1623.3 1379.1,1625.1 1379.5,1626.9 1380,1628.7 1380.6,1630.4 1381.2,1632.1 1382,1633.8 1382.8,1635.4 
			1383.7,1637 1460,1755.5 		"/>
	</g>
	<g id="POLYLINE_8_" class="st0">
		<polyline id="XMLID_48_" class="st1" points="1755.5,1460 1636.2,1383.2 1634.6,1382.4 1633,1381.6 1631.3,1380.9 1629.6,1380.3 
			1627.8,1379.8 1626,1379.3 1624.2,1379 1622.4,1378.8 1620.6,1378.6 1618.8,1378.6 1616.9,1378.6 1615.1,1378.8 1613.3,1379 
			1611.5,1379.3 1609.7,1379.8 1608,1380.3 1606.3,1380.9 1604.6,1381.6 1602.9,1382.4 1601.3,1383.2 1599.8,1384.2 1598.3,1385.2 
			1596.8,1386.3 1595.4,1387.5 1594.1,1388.8 1592.8,1390.1 1591.7,1391.5 1590.5,1392.9 1589.5,1394.4 1588.6,1396 1587.7,1397.6 
			1586.9,1399.3 1586.2,1400.9 1585.6,1402.7 1585.1,1404.4 1584.6,1406.2 1584.3,1408 1584.1,1409.8 1583.9,1411.6 1583.9,1413.4 
			1583.9,1415.3 1584.1,1417.1 1584.3,1418.9 1584.6,1420.7 1585.1,1422.5 1585.6,1424.2 1586.2,1425.9 1586.9,1427.6 
			1587.7,1429.3 1588.6,1430.9 1589.5,1432.4 1590.5,1434 1591.7,1435.4 1592.8,1436.8 1594.1,1438.1 1595.4,1439.4 1596.8,1440.6 
			1598.3,1441.7 1714.1,1521.9 		"/>
	</g>
	<g id="POLYLINE_7_" class="st0">
		<polyline id="XMLID_47_" class="st1" points="1874,1135.9 1734.4,1110.6 1732.6,1110.4 1730.8,1110.3 1729,1110.3 1727.2,1110.4 
			1725.3,1110.6 1723.5,1110.9 1721.7,1111.3 1720,1111.7 1718.2,1112.3 1716.5,1113 1714.9,1113.7 1713.2,1114.5 1711.7,1115.4 
			1710.1,1116.4 1708.6,1117.5 1707.2,1118.7 1705.9,1119.9 1704.6,1121.2 1703.4,1122.5 1702.2,1123.9 1701.1,1125.4 1700.1,1127 
			1699.2,1128.5 1698.4,1130.2 1697.7,1131.8 1697,1133.5 1696.4,1135.3 1696,1137 1695.6,1138.8 1695.3,1140.6 1695.1,1142.4 
			1695,1144.3 1695,1146.1 1695.1,1147.9 1695.3,1149.7 1695.6,1151.5 1696,1153.3 1696.4,1155.1 1697,1156.8 1697.7,1158.5 
			1698.4,1160.2 1699.2,1161.8 1700.1,1163.4 1701.1,1164.9 1702.2,1166.4 1703.4,1167.8 1704.6,1169.2 1705.9,1170.5 
			1707.2,1171.7 1708.6,1172.9 1710.1,1173.9 1711.7,1174.9 1713.2,1175.8 1714.9,1176.7 1716.5,1177.4 1718.2,1178.1 1720,1178.6 
			1721.7,1179.1 1859.5,1208.9 		"/>
	</g>
	<g id="POLYLINE_6_" class="st0">
		<polyline id="XMLID_46_" class="st1" points="1859.5,791.1 1720.9,821.1 1719.1,821.6 1717.4,822.2 1715.7,822.9 1714.1,823.7 
			1712.4,824.6 1710.9,825.6 1709.4,826.6 1707.9,827.7 1706.5,828.9 1705.2,830.1 1704,831.5 1702.8,832.9 1701.7,834.3 
			1700.6,835.8 1699.7,837.4 1698.8,839 1698,840.6 1697.3,842.3 1696.7,844 1696.2,845.8 1695.8,847.6 1695.4,849.4 1695.2,851.2 
			1695,853 1695,854.8 1695,856.6 1695.2,858.5 1695.4,860.3 1695.8,862.1 1696.2,863.8 1696.7,865.6 1697.3,867.3 1698,869 
			1698.8,870.7 1699.7,872.3 1700.6,873.8 1701.7,875.3 1702.8,876.8 1704,878.2 1705.2,879.5 1706.5,880.7 1707.9,881.9 
			1709.4,883 1710.9,884.1 1712.4,885 1714,885.9 1715.7,886.7 1717.4,887.4 1719.1,888 1720.9,888.5 1722.6,888.9 1724.4,889.3 
			1726.2,889.5 1728.1,889.7 1729.9,889.7 1731.7,889.7 1733.5,889.5 1735.3,889.3 1874,864.1 		"/>
	</g>
	<g id="POLYLINE_5_" class="st0">
		<polyline id="XMLID_45_" class="st1" points="1714.1,478.1 1597.5,558.9 1596.1,560 1594.8,561.2 1593.5,562.5 1592.2,563.9 
			1591.1,565.3 1590,566.8 1589,568.3 1588.1,569.9 1587.3,571.5 1586.5,573.2 1585.9,574.9 1585.3,576.6 1584.8,578.4 
			1584.5,580.2 1584.2,582 1584,583.8 1583.9,585.6 1583.9,587.5 1584,589.3 1584.2,591.1 1584.5,592.9 1584.8,594.7 1585.3,596.5 
			1585.9,598.2 1586.5,599.9 1587.3,601.6 1588.1,603.2 1589,604.8 1590,606.3 1591.1,607.8 1592.2,609.2 1593.5,610.6 
			1594.8,611.9 1596.1,613.1 1597.5,614.2 1599,615.3 1600.5,616.3 1602.1,617.2 1603.7,618 1605.4,618.8 1607.1,619.4 1608.9,620 
			1610.6,620.5 1612.4,620.9 1614.2,621.1 1616,621.3 1617.9,621.4 1619.7,621.4 1621.5,621.3 1623.3,621.1 1625.1,620.9 
			1626.9,620.5 1628.7,620 1630.4,619.4 1632.1,618.8 1633.8,618 1635.4,617.2 1637,616.3 1755.5,540 		"/>
	</g>
	<g id="POLYLINE_4_" class="st0">
		<polyline id="XMLID_44_" class="st1" points="1460,244.5 1383.2,363.8 1382.4,365.4 1381.6,367 1380.9,368.7 1380.3,370.4 
			1379.8,372.2 1379.3,374 1379,375.8 1378.8,377.6 1378.6,379.4 1378.6,381.2 1378.6,383.1 1378.8,384.9 1379,386.7 1379.3,388.5 
			1379.8,390.3 1380.3,392 1380.9,393.7 1381.6,395.4 1382.4,397.1 1383.2,398.7 1384.2,400.2 1385.2,401.7 1386.3,403.2 
			1387.5,404.6 1388.8,405.9 1390.1,407.2 1391.5,408.3 1392.9,409.5 1394.4,410.5 1396,411.4 1397.6,412.3 1399.3,413.1 
			1400.9,413.8 1402.7,414.4 1404.4,414.9 1406.2,415.4 1408,415.7 1409.8,415.9 1411.6,416.1 1413.4,416.1 1415.3,416.1 
			1417.1,415.9 1418.9,415.7 1420.7,415.4 1422.5,414.9 1424.2,414.4 1425.9,413.8 1427.6,413.1 1429.3,412.3 1430.9,411.4 
			1432.4,410.5 1434,409.5 1435.4,408.3 1436.8,407.2 1438.1,405.9 1439.4,404.6 1440.6,403.2 1441.7,401.7 1521.9,285.9 		"/>
	</g>
	<g id="POLYLINE_3_" class="st0">
		<polyline id="XMLID_43_" class="st1" points="1135.9,126 1110.6,265.6 1110.4,267.4 1110.3,269.2 1110.3,271 1110.4,272.8 
			1110.6,274.7 1110.9,276.5 1111.3,278.3 1111.7,280 1112.3,281.8 1113,283.5 1113.7,285.1 1114.5,286.8 1115.4,288.3 
			1116.4,289.9 1117.5,291.4 1118.7,292.8 1119.9,294.1 1121.2,295.4 1122.5,296.6 1123.9,297.8 1125.4,298.9 1127,299.9 
			1128.5,300.8 1130.2,301.6 1131.8,302.3 1133.5,303 1135.3,303.6 1137,304 1138.8,304.4 1140.6,304.7 1142.4,304.9 1144.3,305 
			1146.1,305 1147.9,304.9 1149.7,304.7 1151.5,304.4 1153.3,304 1155.1,303.6 1156.8,303 1158.5,302.3 1160.2,301.6 1161.8,300.8 
			1163.4,299.9 1164.9,298.9 1166.4,297.8 1167.8,296.6 1169.2,295.4 1170.5,294.1 1171.7,292.8 1172.9,291.4 1173.9,289.9 
			1174.9,288.3 1175.8,286.8 1176.7,285.1 1177.4,283.5 1178.1,281.8 1178.6,280 1179.1,278.3 1208.9,140.5 		"/>
	</g>
	<g id="POLYLINE_2_" class="st0">
		<polyline id="XMLID_42_" class="st1" points="791.1,140.5 821.1,279.1 821.6,280.9 822.2,282.6 822.9,284.3 823.7,285.9 
			824.6,287.6 825.6,289.1 826.6,290.6 827.7,292.1 828.9,293.5 830.1,294.8 831.5,296 832.9,297.2 834.3,298.3 835.8,299.4 
			837.4,300.3 839,301.2 840.6,302 842.3,302.7 844,303.3 845.8,303.8 847.6,304.2 849.4,304.6 851.2,304.8 853,305 854.8,305 
			856.6,305 858.5,304.8 860.3,304.6 862.1,304.2 863.8,303.8 865.6,303.3 867.3,302.7 869,302 870.7,301.2 872.3,300.3 
			873.8,299.4 875.3,298.3 876.8,297.2 878.2,296 879.5,294.8 880.7,293.5 881.9,292.1 883,290.6 884.1,289.1 885,287.6 885.9,286 
			886.7,284.3 887.4,282.6 888,280.9 888.5,279.1 888.9,277.4 889.3,275.6 889.5,273.8 889.7,271.9 889.7,270.1 889.7,268.3 
			889.5,266.5 889.3,264.7 864.1,126 		"/>
	</g>
	<g id="POLYLINE_1_" class="st0">
		<polyline id="XMLID_41_" class="st1" points="478.1,285.9 558.9,402.5 560,403.9 561.2,405.2 562.5,406.5 563.9,407.8 
			565.3,408.9 566.8,410 568.3,411 569.9,411.9 571.5,412.7 573.2,413.5 574.9,414.1 576.6,414.7 578.4,415.2 580.2,415.5 
			582,415.8 583.8,416 585.6,416.1 587.5,416.1 589.3,416 591.1,415.8 592.9,415.5 594.7,415.2 596.5,414.7 598.2,414.1 
			599.9,413.5 601.6,412.7 603.2,411.9 604.8,411 606.3,410 607.8,408.9 609.2,407.8 610.6,406.5 611.9,405.2 613.1,403.9 
			614.2,402.5 615.3,401 616.3,399.5 617.2,397.9 618,396.3 618.8,394.6 619.4,392.9 620,391.1 620.5,389.4 620.9,387.6 
			621.1,385.8 621.3,384 621.4,382.1 621.4,380.3 621.3,378.5 621.1,376.7 620.9,374.9 620.5,373.1 620,371.3 619.4,369.6 
			618.8,367.9 618,366.2 617.2,364.6 616.3,363 540,244.5 		"/>
	</g>
	<use xlink:href="#XMLID_40_"  style="overflow:visible;fill:none;stroke:#58595B;stroke-miterlimit:10;"/>
</g>
<g id="XMLID_1_">
</g>
<g id="XMLID_2_">
</g>
<g id="XMLID_3_">
</g>
<g id="XMLID_4_">
</g>
<g id="XMLID_5_">
</g>
<g id="XMLID_6_">
</g>
</svg>
