  0
SECTION
  2
HEADER
  9
$ACADVER
  1
AC1009
  9
$INSBASE
 10
0.0
 20
0.0
 30
0.0
  9
$EXTMIN
 10
-5384.5900000000001455
 20
448.078999999999894
 30
0.0
  9
$EXTMAX
 10
1480.0799999999999272
 20
6990.0600000000013097
 30
0.0
  9
$LIMMIN
 10
0.0
 20
0.0
  9
$LIMMAX
 10
420.0
 20
297.0
  9
$ORTHOMODE
 70
     0
  9
$REGENMODE
 70
     1
  9
$FILLMODE
 70
     1
  9
$QTEXTMODE
 70
     0
  9
$MIRRTEXT
 70
     0
  9
$DRAGMODE
 70
     2
  9
$LTSCALE
 40
1.0
  9
$OSMODE
 70
    37
  9
$ATTMODE
 70
     1
  9
$TEXTSIZE
 40
2.5
  9
$TRACEWID
 40
1.0
  9
$TEXTSTYLE
  7
STANDARD
  9
$CLAYER
  8
0
  9
$CELTYPE
  6
BYLAYER
  9
$CECOLOR
 62
   256
  9
$DIMSCALE
 40
1.0
  9
$DIMASZ
 40
2.5
  9
$DIMEXO
 40
0.625
  9
$DIMDLI
 40
3.75
  9
$DIMRND
 40
0.0
  9
$DIMDLE
 40
0.0
  9
$DIMEXE
 40
1.25
  9
$DIMTP
 40
0.0
  9
$DIMTM
 40
0.0
  9
$DIMTXT
 40
2.5
  9
$DIMCEN
 40
2.5
  9
$DIMTSZ
 40
0.0
  9
$DIMTOL
 70
     0
  9
$DIMLIM
 70
     0
  9
$DIMTIH
 70
     0
  9
$DIMTOH
 70
     0
  9
$DIMSE1
 70
     0
  9
$DIMSE2
 70
     0
  9
$DIMTAD
 70
     1
  9
$DIMZIN
 70
     8
  9
$DIMBLK
  1

  9
$DIMASO
 70
     1
  9
$DIMSHO
 70
     1
  9
$DIMPOST
  1

  9
$DIMAPOST
  1

  9
$DIMALT
 70
     0
  9
$DIMALTD
 70
     3
  9
$DIMALTF
 40
0.03937007874016
  9
$DIMLFAC
 40
1.0
  9
$DIMTOFL
 70
     1
  9
$DIMTVP
 40
0.0
  9
$DIMTIX
 70
     0
  9
$DIMSOXD
 70
     0
  9
$DIMSAH
 70
     0
  9
$DIMBLK1
  1

  9
$DIMBLK2
  1

  9
$DIMSTYLE
  2
ISO-25
  9
$DIMCLRD
 70
     0
  9
$DIMCLRE
 70
     0
  9
$DIMCLRT
 70
     0
  9
$DIMTFAC
 40
1.0
  9
$DIMGAP
 40
0.625
  9
$LUNITS
 70
     2
  9
$LUPREC
 70
     4
  9
$SKETCHINC
 40
1.0
  9
$FILLETRAD
 40
0.0
  9
$AUNITS
 70
     0
  9
$AUPREC
 70
     0
  9
$MENU
  1
.
  9
$ELEVATION
 40
0.0
  9
$PELEVATION
 40
0.0
  9
$THICKNESS
 40
0.0
  9
$LIMCHECK
 70
     0
  9
$BLIPMODE
 70
     0
  9
$CHAMFERA
 40
0.0
  9
$CHAMFERB
 40
0.0
  9
$SKPOLY
 70
     0
  9
$TDCREATE
 40
2456998.8584394101053476
  9
$TDUPDATE
 40
2457002.6976492591202259
  9
$TDINDWG
 40
1.1238669792
  9
$TDUSRTIMER
 40
1.123859537
  9
$USRTIMER
 70
     1
  9
$ANGBASE
 50
0.0
  9
$ANGDIR
 70
     0
  9
$PDMODE
 70
     0
  9
$PDSIZE
 40
0.0
  9
$PLINEWID
 40
0.0
  9
$COORDS
 70
     1
  9
$SPLFRAME
 70
     0
  9
$SPLINETYPE
 70
     6
  9
$SPLINESEGS
 70
     8
  9
$ATTDIA
 70
     1
  9
$ATTREQ
 70
     1
  9
$HANDLING
 70
     1
  9
$HANDSEED
  5
1B1D
  9
$SURFTAB1
 70
     6
  9
$SURFTAB2
 70
     6
  9
$SURFTYPE
 70
     6
  9
$SURFU
 70
     6
  9
$SURFV
 70
     6
  9
$UCSNAME
  2

  9
$UCSORG
 10
0.0
 20
0.0
 30
0.0
  9
$UCSXDIR
 10
1.0
 20
0.0
 30
0.0
  9
$UCSYDIR
 10
0.0
 20
1.0
 30
0.0
  9
$PUCSNAME
  2

  9
$PUCSORG
 10
0.0
 20
0.0
 30
0.0
  9
$PUCSXDIR
 10
1.0
 20
0.0
 30
0.0
  9
$PUCSYDIR
 10
0.0
 20
1.0
 30
0.0
  9
$USERI1
 70
     0
  9
$USERI2
 70
     0
  9
$USERI3
 70
     0
  9
$USERI4
 70
     0
  9
$USERI5
 70
     0
  9
$USERR1
 40
0.0
  9
$USERR2
 40
0.0
  9
$USERR3
 40
0.0
  9
$USERR4
 40
0.0
  9
$USERR5
 40
0.0
  9
$WORLDVIEW
 70
     1
  9
$SHADEDGE
 70
     3
  9
$SHADEDIF
 70
    70
  9
$TILEMODE
 70
     1
  9
$MAXACTVP
 70
    64
  9
$PLIMCHECK
 70
     0
  9
$PEXTMIN
 10
0.0
 20
0.0
 30
0.0
  9
$PEXTMAX
 10
0.0
 20
0.0
 30
0.0
  9
$PLIMMIN
 10
0.0
 20
0.0
  9
$PLIMMAX
 10
12.0
 20
9.0
  9
$UNITMODE
 70
     0
  9
$VISRETAIN
 70
     1
  9
$PLINEGEN
 70
     0
  9
$PSLTSCALE
 70
     1
  0
ENDSEC
  0
SECTION
  2
TABLES
  0
TABLE
  2
VPORT
 70
     1
  0
VPORT
  2
*ACTIVE
 70
     0
 10
0.0
 20
0.0
 11
1.0
 21
1.0
 12
-386.4338470128769245
 22
2380.4708404812458866
 13
0.0
 23
0.0
 14
10.0
 24
10.0
 15
10.0
 25
10.0
 16
0.0
 26
0.0
 36
1.0
 17
0.0
 27
0.0
 37
0.0
 40
13240.31968456785944
 41
1.367970660146699
 42
50.0
 43
0.0
 44
0.0
 50
0.0
 51
0.0
 71
     0
 72
  1000
 73
     1
 74
     3
 75
     0
 76
     1
 77
     0
 78
     0
  0
ENDTAB
  0
TABLE
  2
LTYPE
 70
     4
  0
LTYPE
  2
CONTINUOUS
 70
     0
  3
Solid line
 72
    65
 73
     0
 40
0.0
  0
LTYPE
  2
BATTING
 70
     0
  3
Batting SSSSSSSSSSSSSSSSSSSSSSSSSSSSSSSSSSSSSSS
 72
    65
 73
     4
 40
10.1625399999999999
 49
0.00254
 49
-2.54
 49
-5.0800000000000001
 49
-2.54
  0
LTYPE
  2
FENCELINE1
 70
     0
  3
Fenceline circle ----0-----0----0-----0----0---
 72
    65
 73
     4
 40
36.8299999999999983
 49
6.349999999999997
 49
-2.54
 49
-2.54
 49
25.3999999999999986
  0
LTYPE
  2
ZIGZAG
 70
     0
  3
Zig zag /\/\/\/\/\/\/\/\/\/\/\/\/\/\/\/\/\/\/\/
 72
    65
 73
     4
 40
20.32254
 49
0.00254
 49
-5.0800000000000001
 49
-10.1600000000000001
 49
-5.0800000000000001
  0
ENDTAB
  0
TABLE
  2
LAYER
 70
     3
  0
LAYER
  2
0
 70
     0
 62
     7
  6
CONTINUOUS
  0
LAYER
  2
TEST
 70
     0
 62
     7
  6
CONTINUOUS
  0
LAYER
  2
LAYER1
 70
     0
 62
     7
  6
CONTINUOUS
  0
ENDTAB
  0
TABLE
  2
STYLE
 70
     3
  0
STYLE
  2
STANDARD
 70
     0
 40
0.0
 41
1.0
 50
0.0
 71
     0
 42
2.5
  3
txt
  4

  0
STYLE
  2
ANNOTATIVE
 70
     0
 40
0.0
 41
1.0
 50
0.0
 71
     0
 42
2.5
  3
txt
  4

  0
STYLE
  2

 70
     1
 40
0.0
 41
1.0
 50
0.0
 71
     0
 42
2.5
  3
ltypeshp.shx
  4

  0
ENDTAB
  0
TABLE
  2
VIEW
 70
     0
  0
ENDTAB
  0
TABLE
  2
UCS
 70
     0
  0
ENDTAB
  0
TABLE
  2
APPID
 70
    13
  0
APPID
  2
ACAD
 70
     0
  0
APPID
  2
ACADANNOTATIVE
 70
     0
  0
APPID
  2
ACAD_PSEXT
 70
     0
  0
APPID
  2
ACADANNOPO
 70
     0
  0
APPID
  2
ACAD_DSTYLE_DIMJAG
 70
     0
  0
APPID
  2
ACAD_DSTYLE_DIMTALN
 70
     0
  0
APPID
  2
ACAD_MLEADERVER
 70
     0
  0
APPID
  2
ACAD_NAV_VCDISPLAY
 70
     0
  0
APPID
  2
ACAD_EXEMPT_FROM_CAD_STANDARDS
 70
     0
  0
APPID
  2
ACAECLAYERSTANDARD
 70
     0
  0
APPID
  2
ACCMTRANSPARENCY
 70
     0
  0
APPID
  2
GRADIENTCOLOR1ACI
 70
     0
  0
APPID
  2
GRADIENTCOLOR2ACI
 70
     0
  0
ENDTAB
  0
TABLE
  2
DIMSTYLE
 70
     3
  0
DIMSTYLE
  2
STANDARD
 70
     0
  3

  4

  5

  6

  7

 40
1.0
 41
0.18
 42
0.0625
 43
0.38
 44
0.18
 45
0.0
 46
0.0
 47
0.0
 48
0.0
140
0.18
141
0.09
142
0.0
143
25.3999999999999986
144
1.0
145
0.0
146
1.0
147
0.09
 71
     0
 72
     0
 73
     1
 74
     1
 75
     0
 76
     0
 77
     0
 78
     0
170
     0
171
     2
172
     0
173
     0
174
     0
175
     0
176
     0
177
     0
178
     0
  0
DIMSTYLE
  2
ANNOTATIVE
 70
     0
  3

  4

  5

  6

  7

 40
0.0
 41
2.5
 42
0.625
 43
3.75
 44
1.25
 45
0.0
 46
0.0
 47
0.0
 48
0.0
140
2.5
141
2.5
142
0.0
143
0.03937007874016
144
1.0
145
0.0
146
1.0
147
0.625
 71
     0
 72
     0
 73
     0
 74
     0
 75
     0
 76
     0
 77
     1
 78
     8
170
     0
171
     3
172
     1
173
     0
174
     0
175
     0
176
     0
177
     0
178
     0
  0
DIMSTYLE
  2
ISO-25
 70
     0
  3

  4

  5

  6

  7

 40
1.0
 41
2.5
 42
0.625
 43
3.75
 44
1.25
 45
0.0
 46
0.0
 47
0.0
 48
0.0
140
2.5
141
2.5
142
0.0
143
0.03937007874016
144
1.0
145
0.0
146
1.0
147
0.625
 71
     0
 72
     0
 73
     0
 74
     0
 75
     0
 76
     0
 77
     1
 78
     8
170
     0
171
     3
172
     1
173
     0
174
     0
175
     0
176
     0
177
     0
178
     0
  0
ENDTAB
  0
ENDSEC
  0
SECTION
  2
BLOCKS
  0
BLOCK
  8
0
  2
$MODEL_SPACE
 70
     0
 10
0.0
 20
0.0
 30
0.0
  3
$MODEL_SPACE
  1

  0
ENDBLK
  5
1956
  8
0
  0
BLOCK
 67
     1
  8
0
  2
$PAPER_SPACE
 70
     0
 10
0.0
 20
0.0
 30
0.0
  3
$PAPER_SPACE
  1

  0
ENDBLK
  5
1952
 67
     1
  8
0
  0
BLOCK
  8
0
  2
*U2
 70
     1
 10
0.0
 20
0.0
 30
0.0
  3
*U2
  1

  0
LINE
  5
F09
  8
0
 10
-1395.1989645294570437
 20
769.1329689729471966
 30
0.0
 11
-5694.3569573282447891
 21
3413.8997286790940962
 31
0.0
  0
LINE
  5
F0A
  8
0
 10
-5694.3569573282447891
 20
3413.8997286790940962
 30
0.0
 11
-8339.1237170343956677
 21
-885.2582641196920576
 31
0.0
  0
LINE
  5
F0B
  8
0
 10
-8339.1237170343956677
 20
-885.2582641196920576
 30
0.0
 11
-4039.9657242356061033
 21
-3530.0250238258408899
 31
0.0
  0
LINE
  5
F0C
  8
0
 10
-4039.9657242356061033
 20
-3530.0250238258408899
 30
0.0
 11
-1395.1989645294570437
 21
769.1329689729471966
 31
0.0
  0
ENDBLK
  5
F0E
  8
0
  0
ENDSEC
  0
SECTION
  2
ENTITIES
  0
POLYLINE
  5
16C4
  8
0
 66
     1
 10
0.0
 20
0.0
 30
0.0
 70
     8
  0
VERTEX
  5
16C5
  8
0
 10
-2804.1100000000001273
 20
6858.5799999999999272
 30
0.0
 70
    32
  0
VERTEX
  5
16C6
  8
0
 10
-2758.3099999999999454
 20
6867.0600000000013097
 30
0.0
 70
    32
  0
VERTEX
  5
16C7
  8
0
 10
-2712.4499999999998181
 20
6875.4999999999990905
 30
0.0
 70
    32
  0
VERTEX
  5
16C8
  8
0
 10
-2666.5100000000011278
 20
6883.8900000000003274
 30
0.0
 70
    32
  0
VERTEX
  5
16C9
  8
0
 10
-2620.4200000000000728
 20
6892.180000000000291
 30
0.0
 70
    32
  0
VERTEX
  5
16CA
  8
0
 10
-2574.1500000000000909
 20
6900.3500000000003638
 30
0.0
 70
    32
  0
VERTEX
  5
16CB
  8
0
 10
-2527.6399999999998727
 20
6908.3500000000003638
 30
0.0
 70
    32
  0
VERTEX
  5
16CC
  8
0
 10
-2480.8600000000001273
 20
6916.1700000000000728
 30
0.0
 70
    32
  0
VERTEX
  5
16CD
  8
0
 10
-2433.75
 20
6923.7700000000013461
 30
0.0
 70
    32
  0
VERTEX
  5
16CE
  8
0
 10
-2386.2600000000002183
 20
6931.1199999999989814
 30
0.0
 70
    32
  0
VERTEX
  5
16CF
  8
0
 10
-2338.3600000000001273
 20
6938.1899999999995998
 30
0.0
 70
    32
  0
VERTEX
  5
16D0
  8
0
 10
-2289.9899999999997817
 20
6944.9399999999986903
 30
0.0
 70
    32
  0
VERTEX
  5
16D1
  8
0
 10
-2241.0999999999999091
 20
6951.3500000000012733
 30
0.0
 70
    32
  0
VERTEX
  5
16D2
  8
0
 10
-2191.6599999999998545
 20
6957.3800000000001091
 30
0.0
 70
    32
  0
VERTEX
  5
16D3
  8
0
 10
-2141.6100000000001273
 20
6963.0
 30
0.0
 70
    32
  0
VERTEX
  5
16D4
  8
0
 10
-2090.9099999999998545
 20
6968.1899999999986903
 30
0.0
 70
    32
  0
VERTEX
  5
16D5
  8
0
 10
-2039.5099999999999909
 20
6972.8999999999996362
 30
0.0
 70
    32
  0
VERTEX
  5
16D6
  8
0
 10
-1987.3599999999999
 20
6977.1099999999996726
 30
0.0
 70
    32
  0
VERTEX
  5
16D7
  8
0
 10
-1934.4200000000000728
 20
6980.7799999999997453
 30
0.0
 70
    32
  0
VERTEX
  5
16D8
  8
0
 10
-1880.6400000000001
 20
6983.8900000000012369
 30
0.0
 70
    32
  0
VERTEX
  5
16D9
  8
0
 10
-1825.9700000000000273
 20
6986.409999999998945
 30
0.0
 70
    32
  0
VERTEX
  5
16DA
  8
0
 10
-1770.3699999999989814
 20
6988.2900000000008731
 30
0.0
 70
    32
  0
VERTEX
  5
16DB
  8
0
 10
-1713.7899999999999636
 20
6989.5200000000004366
 30
0.0
 70
    32
  0
VERTEX
  5
16DC
  8
0
 10
-1656.1900000000000546
 20
6990.0600000000013097
 30
0.0
 70
    32
  0
VERTEX
  5
16DD
  8
0
 10
-1597.5099999999999909
 20
6989.8699999999998909
 30
0.0
 70
    32
  0
VERTEX
  5
16DE
  8
0
 10
-1537.7200000000000273
 20
6988.930000000000291
 30
0.0
 70
    32
  0
VERTEX
  5
16DF
  8
0
 10
-1476.75
 20
6987.1999999999998181
 30
0.0
 70
    32
  0
VERTEX
  5
16E0
  8
0
 10
-1414.5799999999999272
 20
6984.659999999998945
 30
0.0
 70
    32
  0
VERTEX
  5
16E1
  8
0
 10
-1351.1400000000001
 20
6981.2799999999988358
 30
0.0
 70
    32
  0
VERTEX
  5
16E2
  8
0
 10
-1286.4000000000000909
 20
6977.0099999999993088
 30
0.0
 70
    32
  0
VERTEX
  5
16E3
  8
0
 10
-1220.3099999999999454
 20
6971.8299999999999272
 30
0.0
 70
    32
  0
VERTEX
  5
16E4
  8
0
 10
-1152.8499999999999091
 20
6965.7200000000011642
 30
0.0
 70
    32
  0
VERTEX
  5
16E5
  8
0
 10
-1084.0899999999999181
 20
6958.6899999999995998
 30
0.0
 70
    32
  0
VERTEX
  5
16E6
  8
0
 10
-1014.1699999999999591
 20
6950.7799999999997453
 30
0.0
 70
    32
  0
VERTEX
  5
16E7
  8
0
 10
-943.1900000000000546
 20
6942.0100000000002183
 30
0.0
 70
    32
  0
VERTEX
  5
16E8
  8
0
 10
-871.2680000000000291
 20
6932.4099999999998545
 30
0.0
 70
    32
  0
VERTEX
  5
16E9
  8
0
 10
-798.5199999999998681
 20
6922.0100000000002183
 30
0.0
 70
    32
  0
VERTEX
  5
16EA
  8
0
 10
-725.0599999999999454
 20
6910.8400000000001455
 30
0.0
 70
    32
  0
VERTEX
  5
16EB
  8
0
 10
-651.0040000000000191
 20
6898.9200000000000728
 30
0.0
 70
    32
  0
VERTEX
  5
16EC
  8
0
 10
-576.4660000000000082
 20
6886.2899999999990541
 30
0.0
 70
    32
  0
VERTEX
  5
16ED
  8
0
 10
-501.5619999999998981
 20
6872.9700000000011642
 30
0.0
 70
    32
  0
VERTEX
  5
16EE
  8
0
 10
-426.4059999999998922
 20
6858.9899999999997817
 30
0.0
 70
    32
  0
VERTEX
  5
16EF
  8
0
 10
-351.1140000000000896
 20
6844.3700000000008004
 30
0.0
 70
    32
  0
VERTEX
  5
16F0
  8
0
 10
-275.8000000000000114
 20
6829.1599999999998545
 30
0.0
 70
    32
  0
VERTEX
  5
16F1
  8
0
 10
-200.5800000000000125
 20
6813.3699999999998909
 30
0.0
 70
    32
  0
VERTEX
  5
16F2
  8
0
 10
-125.5679999999999978
 20
6797.0299999999988358
 30
0.0
 70
    32
  0
VERTEX
  5
16F3
  8
0
 10
-50.8800000000000026
 20
6780.1700000000000728
 30
0.0
 70
    32
  0
VERTEX
  5
16F4
  8
0
 10
23.3694999999999986
 20
6762.8299999999999272
 30
0.0
 70
    32
  0
VERTEX
  5
16F5
  8
0
 10
97.0653999999999968
 20
6745.0200000000013461
 30
0.0
 70
    32
  0
VERTEX
  5
16F6
  8
0
 10
170.0929999999999893
 20
6726.7799999999988358
 30
0.0
 70
    32
  0
VERTEX
  5
16F7
  8
0
 10
242.3360000000000127
 20
6708.1400000000003274
 30
0.0
 70
    32
  0
VERTEX
  5
16F8
  8
0
 10
313.6809999999999832
 20
6689.1199999999989814
 30
0.0
 70
    32
  0
VERTEX
  5
16F9
  8
0
 10
384.0129999999999768
 20
6669.75
 30
0.0
 70
    32
  0
VERTEX
  5
16FA
  8
0
 10
453.2160000000000082
 20
6650.0600000000004002
 30
0.0
 70
    32
  0
VERTEX
  5
16FB
  8
0
 10
521.1749999999999545
 20
6630.0799999999990177
 30
0.0
 70
    32
  0
VERTEX
  5
16FC
  8
0
 10
587.7749999999998636
 20
6609.8400000000001455
 30
0.0
 70
    32
  0
VERTEX
  5
16FD
  8
0
 10
652.90199999999993
 20
6589.3599999999987631
 30
0.0
 70
    32
  0
VERTEX
  5
16FE
  8
0
 10
716.4400000000000546
 20
6568.680000000000291
 30
0.0
 70
    32
  0
VERTEX
  5
16FF
  8
0
 10
778.2749999999999773
 20
6547.8100000000013097
 30
0.0
 70
    32
  0
VERTEX
  5
1700
  8
0
 10
838.2910000000000537
 20
6526.8000000000001819
 30
0.0
 70
    32
  0
VERTEX
  5
1701
  8
0
 10
896.3729999999999336
 20
6505.6700000000009823
 30
0.0
 70
    32
  0
VERTEX
  5
1702
  8
0
 10
952.4059999999999491
 20
6484.4399999999986903
 30
0.0
 70
    32
  0
VERTEX
  5
1703
  8
0
 10
1006.2799999999999727
 20
6463.1499999999996362
 30
0.0
 70
    32
  0
VERTEX
  5
1704
  8
0
 10
1057.8699999999998909
 20
6441.8199999999987995
 30
0.0
 70
    32
  0
VERTEX
  5
1705
  8
0
 10
1107.0599999999999454
 20
6420.4799999999986539
 30
0.0
 70
    32
  0
VERTEX
  5
1706
  8
0
 10
1153.75
 20
6399.1599999999998545
 30
0.0
 70
    32
  0
VERTEX
  5
1707
  8
0
 10
1197.8199999999999363
 20
6377.8900000000003274
 30
0.0
 70
    32
  0
VERTEX
  5
1708
  8
0
 10
1239.1400000000001
 20
6356.6999999999998181
 30
0.0
 70
    32
  0
VERTEX
  5
1709
  8
0
 10
1277.6199999999998909
 20
6335.6099999999987631
 30
0.0
 70
    32
  0
VERTEX
  5
170A
  8
0
 10
1313.1199999999998909
 20
6314.659999999998945
 30
0.0
 70
    32
  0
VERTEX
  5
170B
  8
0
 10
1345.5399999999999636
 20
6293.8599999999996726
 30
0.0
 70
    32
  0
VERTEX
  5
170C
  8
0
 10
1374.7599999999999909
 20
6273.2600000000002183
 30
0.0
 70
    32
  0
VERTEX
  5
170D
  8
0
 10
1400.6700000000000728
 20
6252.8699999999998909
 30
0.0
 70
    32
  0
VERTEX
  5
170E
  8
0
 10
1423.1400000000001
 20
6232.7399999999988722
 30
0.0
 70
    32
  0
VERTEX
  5
170F
  8
0
 10
1442.0799999999999272
 20
6212.8699999999998909
 30
0.0
 70
    32
  0
VERTEX
  5
1710
  8
0
 10
1457.3499999999999091
 20
6193.3100000000004002
 30
0.0
 70
    32
  0
VERTEX
  5
1711
  8
0
 10
1468.8599999999999
 20
6174.0799999999999272
 30
0.0
 70
    32
  0
VERTEX
  5
1712
  8
0
 10
1476.4700000000000273
 20
6155.2100000000000364
 30
0.0
 70
    32
  0
VERTEX
  5
1713
  8
0
 10
1480.0799999999999272
 20
6136.7299999999995634
 30
0.0
 70
    32
  0
VERTEX
  5
1714
  8
0
 10
1479.5699999999999363
 20
6118.6700000000000728
 30
0.0
 70
    32
  0
VERTEX
  5
1715
  8
0
 10
1474.8199999999999363
 20
6101.0500000000001819
 30
0.0
 70
    32
  0
VERTEX
  5
1716
  8
0
 10
1465.7300000000000182
 20
6083.8999999999987267
 30
0.0
 70
    32
  0
VERTEX
  5
1717
  8
0
 10
1452.1700000000000728
 20
6067.25
 30
0.0
 70
    32
  0
VERTEX
  5
1718
  8
0
 10
1434.0399999999999636
 20
6051.1400000000003274
 30
0.0
 70
    32
  0
VERTEX
  5
1719
  8
0
 10
1411.2599999999999909
 20
6035.5699999999987995
 30
0.0
 70
    32
  0
VERTEX
  5
171A
  8
0
 10
1384.0299999999999727
 20
6020.5
 30
0.0
 70
    32
  0
VERTEX
  5
171B
  8
0
 10
1352.5899999999999181
 20
6005.8800000000010186
 30
0.0
 70
    32
  0
VERTEX
  5
171C
  8
0
 10
1317.2100000000000364
 20
5991.6599999999998545
 30
0.0
 70
    32
  0
VERTEX
  5
171D
  8
0
 10
1278.1500000000000909
 20
5977.7600000000002183
 30
0.0
 70
    32
  0
VERTEX
  5
171E
  8
0
 10
1235.6600000000000819
 20
5964.1300000000001091
 30
0.0
 70
    32
  0
VERTEX
  5
171F
  8
0
 10
1190.0
 20
5950.7200000000002547
 30
0.0
 70
    32
  0
VERTEX
  5
1720
  8
0
 10
1141.4200000000000728
 20
5937.4600000000000364
 30
0.0
 70
    32
  0
VERTEX
  5
1721
  8
0
 10
1090.1800000000000637
 20
5924.3100000000013097
 30
0.0
 70
    32
  0
VERTEX
  5
1722
  8
0
 10
1036.5499999999999545
 20
5911.1899999999995998
 30
0.0
 70
    32
  0
VERTEX
  5
1723
  8
0
 10
980.7739999999998872
 20
5898.0600000000004002
 30
0.0
 70
    32
  0
VERTEX
  5
1724
  8
0
 10
923.1119999999999663
 20
5884.8500000000003638
 30
0.0
 70
    32
  0
VERTEX
  5
1725
  8
0
 10
863.8229999999999791
 20
5871.5000000000009095
 30
0.0
 70
    32
  0
VERTEX
  5
1726
  8
0
 10
803.1629999999998972
 20
5857.9700000000002547
 30
0.0
 70
    32
  0
VERTEX
  5
1727
  8
0
 10
741.3899999999998727
 20
5844.1899999999995998
 30
0.0
 70
    32
  0
VERTEX
  5
1728
  8
0
 10
678.7609999999999673
 20
5830.090000000001055
 30
0.0
 70
    32
  0
VERTEX
  5
1729
  8
0
 10
615.5330000000000155
 20
5815.6400000000012369
 30
0.0
 70
    32
  0
VERTEX
  5
172A
  8
0
 10
551.9630000000000791
 20
5800.75
 30
0.0
 70
    32
  0
VERTEX
  5
172B
  8
0
 10
488.3090000000000259
 20
5785.3900000000003274
 30
0.0
 70
    32
  0
VERTEX
  5
172C
  8
0
 10
424.8269999999998845
 20
5769.4899999999997817
 30
0.0
 70
    32
  0
VERTEX
  5
172D
  8
0
 10
361.7760000000000105
 20
5752.9899999999997817
 30
0.0
 70
    32
  0
VERTEX
  5
172E
  8
0
 10
299.4119999999999777
 20
5735.8299999999990177
 30
0.0
 70
    32
  0
VERTEX
  5
172F
  8
0
 10
237.992999999999995
 20
5717.9600000000000364
 30
0.0
 70
    32
  0
VERTEX
  5
1730
  8
0
 10
177.7750000000000057
 20
5699.3100000000004002
 30
0.0
 70
    32
  0
VERTEX
  5
1731
  8
0
 10
119.0160000000000053
 20
5679.8400000000001455
 30
0.0
 70
    32
  0
VERTEX
  5
1732
  8
0
 10
61.9737000000000009
 20
5659.4799999999995634
 30
0.0
 70
    32
  0
VERTEX
  5
1733
  8
0
 10
6.9046899999999987
 20
5638.1700000000000728
 30
0.0
 70
    32
  0
VERTEX
  5
1734
  8
0
 10
-45.9335999999999913
 20
5615.8599999999996726
 30
0.0
 70
    32
  0
VERTEX
  5
1735
  8
0
 10
-96.2837999999999852
 20
5592.4899999999997817
 30
0.0
 70
    32
  0
VERTEX
  5
1736
  8
0
 10
-143.88900000000001
 20
5567.9899999999988722
 30
0.0
 70
    32
  0
VERTEX
  5
1737
  8
0
 10
-188.4909999999999002
 20
5542.319999999999709
 30
0.0
 70
    32
  0
VERTEX
  5
1738
  8
0
 10
-229.8340000000000032
 20
5515.4099999999998545
 30
0.0
 70
    32
  0
VERTEX
  5
1739
  8
0
 10
-267.660000000000025
 20
5487.2100000000009459
 30
0.0
 70
    32
  0
VERTEX
  5
173A
  8
0
 10
-301.7119999999999891
 20
5457.6499999999996362
 30
0.0
 70
    32
  0
VERTEX
  5
173B
  8
0
 10
-331.7330000000000041
 20
5426.6899999999995998
 30
0.0
 70
    32
  0
VERTEX
  5
173C
  8
0
 10
-357.464999999999975
 20
5394.25
 30
0.0
 70
    32
  0
VERTEX
  5
173D
  8
0
 10
-378.6850000000000023
 20
5360.3000000000001819
 30
0.0
 70
    32
  0
VERTEX
  5
173E
  8
0
 10
-395.4320000000000164
 20
5324.8500000000012733
 30
0.0
 70
    32
  0
VERTEX
  5
173F
  8
0
 10
-407.8619999999999095
 20
5287.9399999999986903
 30
0.0
 70
    32
  0
VERTEX
  5
1740
  8
0
 10
-416.1290000000000191
 20
5249.6400000000003274
 30
0.0
 70
    32
  0
VERTEX
  5
1741
  8
0
 10
-420.3919999999999959
 20
5209.9799999999986539
 30
0.0
 70
    32
  0
VERTEX
  5
1742
  8
0
 10
-420.8059999999999263
 20
5169.0200000000004366
 30
0.0
 70
    32
  0
VERTEX
  5
1743
  8
0
 10
-417.5279999999999063
 20
5126.7899999999990541
 30
0.0
 70
    32
  0
VERTEX
  5
1744
  8
0
 10
-410.7139999999999986
 20
5083.3699999999998909
 30
0.0
 70
    32
  0
VERTEX
  5
1745
  8
0
 10
-400.5199999999999818
 20
5038.7799999999997453
 30
0.0
 70
    32
  0
VERTEX
  5
1746
  8
0
 10
-387.1019999999999754
 20
4993.0799999999990177
 30
0.0
 70
    32
  0
VERTEX
  5
1747
  8
0
 10
-370.6180000000001087
 20
4946.3299999999999272
 30
0.0
 70
    32
  0
VERTEX
  5
1748
  8
0
 10
-351.2230000000000132
 20
4898.5500000000001819
 30
0.0
 70
    32
  0
VERTEX
  5
1749
  8
0
 10
-329.0740000000000123
 20
4849.819999999999709
 30
0.0
 70
    32
  0
VERTEX
  5
174A
  8
0
 10
-304.3269999999999982
 20
4800.1700000000000728
 30
0.0
 70
    32
  0
VERTEX
  5
174B
  8
0
 10
-277.1379999999999768
 20
4749.6499999999987267
 30
0.0
 70
    32
  0
VERTEX
  5
174C
  8
0
 10
-247.6639999999999873
 20
4698.3100000000013097
 30
0.0
 70
    32
  0
VERTEX
  5
174D
  8
0
 10
-216.061000000000007
 20
4646.2099999999991269
 30
0.0
 70
    32
  0
VERTEX
  5
174E
  8
0
 10
-182.48599999999999
 20
4593.3800000000001091
 30
0.0
 70
    32
  0
VERTEX
  5
174F
  8
0
 10
-147.0939999999999941
 20
4539.8900000000003274
 30
0.0
 70
    32
  0
VERTEX
  5
1750
  8
0
 10
-110.0430000000000064
 20
4485.7600000000002183
 30
0.0
 70
    32
  0
VERTEX
  5
1751
  8
0
 10
-71.4882999999999953
 20
4431.069999999999709
 30
0.0
 70
    32
  0
VERTEX
  5
1752
  8
0
 10
-31.5863000000000014
 20
4375.8500000000003638
 30
0.0
 70
    32
  0
VERTEX
  5
1753
  8
0
 10
9.5063999999999993
 20
4320.1499999999987267
 30
0.0
 70
    32
  0
VERTEX
  5
1754
  8
0
 10
51.6336000000000013
 20
4264.0200000000013461
 30
0.0
 70
    32
  0
VERTEX
  5
1755
  8
0
 10
94.6388000000000034
 20
4207.5100000000002183
 30
0.0
 70
    32
  0
VERTEX
  5
1756
  8
0
 10
138.3660000000000139
 20
4150.6700000000000728
 30
0.0
 70
    32
  0
VERTEX
  5
1757
  8
0
 10
182.657999999999987
 20
4093.5500000000001819
 30
0.0
 70
    32
  0
VERTEX
  5
1758
  8
0
 10
227.3590000000000089
 20
4036.1900000000000546
 30
0.0
 70
    32
  0
VERTEX
  5
1759
  8
0
 10
272.3290000000000077
 20
3978.6599999999998545
 30
0.0
 70
    32
  0
VERTEX
  5
175A
  8
0
 10
317.464999999999975
 20
3921.0399999999999636
 30
0.0
 70
    32
  0
VERTEX
  5
175B
  8
0
 10
362.6709999999999923
 20
3863.4099999999998545
 30
0.0
 70
    32
  0
VERTEX
  5
175C
  8
0
 10
407.8489999999999895
 20
3805.8699999999998909
 30
0.0
 70
    32
  0
VERTEX
  5
175D
  8
0
 10
452.9049999999999159
 20
3748.4899999999997817
 30
0.0
 70
    32
  0
VERTEX
  5
175E
  8
0
 10
497.7409999999998718
 20
3691.3699999999998909
 30
0.0
 70
    32
  0
VERTEX
  5
175F
  8
0
 10
542.2599999999999909
 20
3634.5900000000001455
 30
0.0
 70
    32
  0
VERTEX
  5
1760
  8
0
 10
586.3680000000000518
 20
3578.2399999999997817
 30
0.0
 70
    32
  0
VERTEX
  5
1761
  8
0
 10
629.9660000000000082
 20
3522.4000000000010004
 30
0.0
 70
    32
  0
VERTEX
  5
1762
  8
0
 10
672.9600000000000364
 20
3467.1700000000000728
 30
0.0
 70
    32
  0
VERTEX
  5
1763
  8
0
 10
715.25100000000009
 20
3412.6300000000001091
 30
0.0
 70
    32
  0
VERTEX
  5
1764
  8
0
 10
756.7439999999999145
 20
3358.8600000000001273
 30
0.0
 70
    32
  0
VERTEX
  5
1765
  8
0
 10
797.3430000000000746
 20
3305.9600000000009459
 30
0.0
 70
    32
  0
VERTEX
  5
1766
  8
0
 10
836.9510000000000218
 20
3254.0100000000002183
 30
0.0
 70
    32
  0
VERTEX
  5
1767
  8
0
 10
875.4710000000001173
 20
3203.0900000000001455
 30
0.0
 70
    32
  0
VERTEX
  5
1768
  8
0
 10
912.8070000000001301
 20
3153.3000000000001819
 30
0.0
 70
    32
  0
VERTEX
  5
1769
  8
0
 10
948.8630000000000564
 20
3104.7199999999997999
 30
0.0
 70
    32
  0
VERTEX
  5
176A
  8
0
 10
983.5430000000000064
 20
3057.4400000000000546
 30
0.0
 70
    32
  0
VERTEX
  5
176B
  8
0
 10
1016.75
 20
3011.5500000000001819
 30
0.0
 70
    32
  0
VERTEX
  5
176C
  8
0
 10
1048.3900000000001
 20
2967.1199999999998909
 30
0.0
 70
    32
  0
VERTEX
  5
176D
  8
0
 10
1078.3599999999999
 20
2924.2600000000002183
 30
0.0
 70
    32
  0
VERTEX
  5
176E
  8
0
 10
1106.5599999999999454
 20
2883.0399999999999636
 30
0.0
 70
    32
  0
VERTEX
  5
176F
  8
0
 10
1132.9100000000000819
 20
2843.5500000000001819
 30
0.0
 70
    32
  0
VERTEX
  5
1770
  8
0
 10
1157.3099999999999454
 20
2805.8800000000001091
 30
0.0
 70
    32
  0
VERTEX
  5
1771
  8
0
 10
1179.6500000000000909
 20
2770.1100000000001273
 30
0.0
 70
    32
  0
VERTEX
  5
1772
  8
0
 10
1199.8499999999999091
 20
2736.3400000000001455
 30
0.0
 70
    32
  0
VERTEX
  5
1773
  8
0
 10
1217.7999999999999545
 20
2704.6500000000000909
 30
0.0
 70
    32
  0
VERTEX
  5
1774
  8
0
 10
1233.4000000000000909
 20
2675.1300000000001091
 30
0.0
 70
    32
  0
VERTEX
  5
1775
  8
0
 10
1246.5799999999999272
 20
2647.8600000000001273
 30
0.0
 70
    32
  0
VERTEX
  5
1776
  8
0
 10
1257.2100000000000364
 20
2622.9299999999998363
 30
0.0
 70
    32
  0
VERTEX
  5
1777
  8
0
 10
1265.2200000000000273
 20
2600.4299999999998363
 30
0.0
 70
    32
  0
VERTEX
  5
1778
  8
0
 10
1270.5
 20
2580.4400000000000546
 30
0.0
 70
    32
  0
VERTEX
  5
1779
  8
0
 10
1272.9600000000000364
 20
2563.0500000000001819
 30
0.0
 70
    32
  0
VERTEX
  5
177A
  8
0
 10
1272.5
 20
2548.3499999999999091
 30
0.0
 70
    32
  0
VERTEX
  5
177B
  8
0
 10
1269.0199999999999818
 20
2536.4200000000000728
 30
0.0
 70
    32
  0
VERTEX
  5
177C
  8
0
 10
1262.5299999999999727
 20
2527.2699999999999818
 30
0.0
 70
    32
  0
VERTEX
  5
177D
  8
0
 10
1253.0799999999999272
 20
2520.8000000000001819
 30
0.0
 70
    32
  0
VERTEX
  5
177E
  8
0
 10
1240.7400000000000091
 20
2516.9499999999998181
 30
0.0
 70
    32
  0
VERTEX
  5
177F
  8
0
 10
1225.5899999999999181
 20
2515.6199999999998909
 30
0.0
 70
    32
  0
VERTEX
  5
1780
  8
0
 10
1207.7100000000000364
 20
2516.7300000000000182
 30
0.0
 70
    32
  0
VERTEX
  5
1781
  8
0
 10
1187.1600000000000819
 20
2520.2100000000000364
 30
0.0
 70
    32
  0
VERTEX
  5
1782
  8
0
 10
1164.0099999999999909
 20
2525.9600000000000364
 30
0.0
 70
    32
  0
VERTEX
  5
1783
  8
0
 10
1138.3399999999999181
 20
2533.9099999999998545
 30
0.0
 70
    32
  0
VERTEX
  5
1784
  8
0
 10
1110.2100000000000364
 20
2543.9699999999997999
 30
0.0
 70
    32
  0
VERTEX
  5
1785
  8
0
 10
1079.7100000000000364
 20
2556.0500000000001819
 30
0.0
 70
    32
  0
VERTEX
  5
1786
  8
0
 10
1046.9000000000000909
 20
2570.0799999999999272
 30
0.0
 70
    32
  0
VERTEX
  5
1787
  8
0
 10
1011.8600000000000136
 20
2585.9800000000000182
 30
0.0
 70
    32
  0
VERTEX
  5
1788
  8
0
 10
974.6459999999999582
 20
2603.6500000000000909
 30
0.0
 70
    32
  0
VERTEX
  5
1789
  8
0
 10
935.3450000000000273
 20
2623.0199999999999818
 30
0.0
 70
    32
  0
VERTEX
  5
178A
  8
0
 10
894.0229999999999109
 20
2644.0
 30
0.0
 70
    32
  0
VERTEX
  5
178B
  8
0
 10
850.7539999999997917
 20
2666.5100000000011278
 30
0.0
 70
    32
  0
VERTEX
  5
178C
  8
0
 10
805.6080000000000609
 20
2690.4699999999997999
 30
0.0
 70
    32
  0
VERTEX
  5
178D
  8
0
 10
758.6580000000000155
 20
2715.8000000000001819
 30
0.0
 70
    32
  0
VERTEX
  5
178E
  8
0
 10
709.9750000000000227
 20
2742.4099999999998545
 30
0.0
 70
    32
  0
VERTEX
  5
178F
  8
0
 10
659.6330000000000382
 20
2770.2100000000000364
 30
0.0
 70
    32
  0
VERTEX
  5
1790
  8
0
 10
607.7010000000000218
 20
2799.1300000000001091
 30
0.0
 70
    32
  0
VERTEX
  5
1791
  8
0
 10
554.2530000000000427
 20
2829.0799999999999272
 30
0.0
 70
    32
  0
VERTEX
  5
1792
  8
0
 10
499.36099999999999
 20
2859.9800000000000182
 30
0.0
 70
    32
  0
VERTEX
  5
1793
  8
0
 10
443.0950000000000273
 20
2891.75
 30
0.0
 70
    32
  0
VERTEX
  5
1794
  8
0
 10
385.5289999999999964
 20
2924.3000000000001819
 30
0.0
 70
    32
  0
VERTEX
  5
1795
  8
0
 10
326.7339999999999804
 20
2957.5500000000001819
 30
0.0
 70
    32
  0
VERTEX
  5
1796
  8
0
 10
266.7810000000000059
 20
2991.4200000000000728
 30
0.0
 70
    32
  0
VERTEX
  5
1797
  8
0
 10
205.7439999999999998
 20
3025.8200000000001637
 30
0.0
 70
    32
  0
VERTEX
  5
1798
  8
0
 10
143.6930000000000121
 20
3060.6700000000000728
 30
0.0
 70
    32
  0
VERTEX
  5
1799
  8
0
 10
80.7014999999999958
 20
3095.9000000000000909
 30
0.0
 70
    32
  0
VERTEX
  5
179A
  8
0
 10
16.8401999999999994
 20
3131.4000000000000909
 30
0.0
 70
    32
  0
VERTEX
  5
179B
  8
0
 10
-47.8186000000000035
 20
3167.1100000000001273
 30
0.0
 70
    32
  0
VERTEX
  5
179C
  8
0
 10
-113.203000000000003
 20
3202.9400000000000546
 30
0.0
 70
    32
  0
VERTEX
  5
179D
  8
0
 10
-179.2410000000000139
 20
3238.8099999999999454
 30
0.0
 70
    32
  0
VERTEX
  5
179E
  8
0
 10
-245.86099999999999
 20
3274.6199999999998909
 30
0.0
 70
    32
  0
VERTEX
  5
179F
  8
0
 10
-312.9900000000000091
 20
3310.3099999999999454
 30
0.0
 70
    32
  0
VERTEX
  5
17A0
  8
0
 10
-380.5579999999999927
 20
3345.7899999999999636
 30
0.0
 70
    32
  0
VERTEX
  5
17A1
  8
0
 10
-448.4909999999999854
 20
3380.9699999999997999
 30
0.0
 70
    32
  0
VERTEX
  5
17A2
  8
0
 10
-516.7190000000000509
 20
3415.7699999999999818
 30
0.0
 70
    32
  0
VERTEX
  5
17A3
  8
0
 10
-585.1679999999998927
 20
3450.1100000000001273
 30
0.0
 70
    32
  0
VERTEX
  5
17A4
  8
0
 10
-653.7680000000000291
 20
3483.9000000000000909
 30
0.0
 70
    32
  0
VERTEX
  5
17A5
  8
0
 10
-722.4470000000000027
 20
3517.0700000000001637
 30
0.0
 70
    32
  0
VERTEX
  5
17A6
  8
0
 10
-791.1310000000000855
 20
3549.5300000000002001
 30
0.0
 70
    32
  0
VERTEX
  5
17A7
  8
0
 10
-859.7489999999997963
 20
3581.1900000000000546
 30
0.0
 70
    32
  0
VERTEX
  5
17A8
  8
0
 10
-928.2149999999999181
 20
3611.9899999999997817
 30
0.0
 70
    32
  0
VERTEX
  5
17A9
  8
0
 10
-996.4349999999999454
 20
3641.8699999999998909
 30
0.0
 70
    32
  0
VERTEX
  5
17AA
  8
0
 10
-1064.3099999999999454
 20
3670.7699999999999818
 30
0.0
 70
    32
  0
VERTEX
  5
17AB
  8
0
 10
-1131.7599999999999909
 20
3698.6199999999998909
 30
0.0
 70
    32
  0
VERTEX
  5
17AC
  8
0
 10
-1198.6800000000000637
 20
3725.3800000000010186
 30
0.0
 70
    32
  0
VERTEX
  5
17AD
  8
0
 10
-1264.9700000000000273
 20
3750.9700000000011642
 30
0.0
 70
    32
  0
VERTEX
  5
17AE
  8
0
 10
-1330.5399999999999636
 20
3775.3400000000001455
 30
0.0
 70
    32
  0
VERTEX
  5
17AF
  8
0
 10
-1395.3099999999999454
 20
3798.4200000000000728
 30
0.0
 70
    32
  0
VERTEX
  5
17B0
  8
0
 10
-1459.1600000000000819
 20
3820.1700000000000728
 30
0.0
 70
    32
  0
VERTEX
  5
17B1
  8
0
 10
-1522.0199999999999818
 20
3840.5100000000002183
 30
0.0
 70
    32
  0
VERTEX
  5
17B2
  8
0
 10
-1583.7799999999999727
 20
3859.3899999999998727
 30
0.0
 70
    32
  0
VERTEX
  5
17B3
  8
0
 10
-1644.3599999999999
 20
3876.7399999999997817
 30
0.0
 70
    32
  0
VERTEX
  5
17B4
  8
0
 10
-1703.6500000000000909
 20
3892.5200000000008913
 30
0.0
 70
    32
  0
VERTEX
  5
17B5
  8
0
 10
-1761.5599999999999454
 20
3906.6500000000010004
 30
0.0
 70
    32
  0
VERTEX
  5
17B6
  8
0
 10
-1818.0099999999999909
 20
3919.0700000000001637
 30
0.0
 70
    32
  0
VERTEX
  5
17B7
  8
0
 10
-1872.8800000000001091
 20
3929.7399999999997817
 30
0.0
 70
    32
  0
VERTEX
  5
17B8
  8
0
 10
-1926.0999999999999091
 20
3938.5799999999999272
 30
0.0
 70
    32
  0
VERTEX
  5
17B9
  8
0
 10
-1977.5699999999999363
 20
3945.5300000000002001
 30
0.0
 70
    32
  0
VERTEX
  5
17BA
  8
0
 10
-2027.1800000000000637
 20
3950.5500000000010914
 30
0.0
 70
    32
  0
VERTEX
  5
17BB
  8
0
 10
-2074.8499999999999091
 20
3953.5500000000010914
 30
0.0
 70
    32
  0
VERTEX
  5
17BC
  8
0
 10
-2120.4899999999997817
 20
3954.5
 30
0.0
 70
    32
  0
VERTEX
  5
17BD
  8
0
 10
-2163.9899999999997817
 20
3953.3200000000001637
 30
0.0
 70
    32
  0
VERTEX
  5
17BE
  8
0
 10
-2205.2699999999999818
 20
3949.9600000000000364
 30
0.0
 70
    32
  0
VERTEX
  5
17BF
  8
0
 10
-2244.2300000000000182
 20
3944.3499999999999091
 30
0.0
 70
    32
  0
VERTEX
  5
17C0
  8
0
 10
-2280.7800000000002001
 20
3936.4400000000009641
 30
0.0
 70
    32
  0
VERTEX
  5
17C1
  8
0
 10
-2314.8200000000001637
 20
3926.1700000000009823
 30
0.0
 70
    32
  0
VERTEX
  5
17C2
  8
0
 10
-2346.25
 20
3913.4699999999997999
 30
0.0
 70
    32
  0
VERTEX
  5
17C3
  8
0
 10
-2374.9899999999997817
 20
3898.2899999999999636
 30
0.0
 70
    32
  0
VERTEX
  5
17C4
  8
0
 10
-2400.9400000000000546
 20
3880.5599999999999454
 30
0.0
 70
    32
  0
VERTEX
  5
17C5
  8
0
 10
-2424.0
 20
3860.2300000000000182
 30
0.0
 70
    32
  0
VERTEX
  5
17C6
  8
0
 10
-2444.0900000000001455
 20
3837.2399999999997817
 30
0.0
 70
    32
  0
VERTEX
  5
17C7
  8
0
 10
-2461.2300000000000182
 20
3811.6100000000001273
 30
0.0
 70
    32
  0
VERTEX
  5
17C8
  8
0
 10
-2475.5300000000002001
 20
3783.4299999999998363
 30
0.0
 70
    32
  0
VERTEX
  5
17C9
  8
0
 10
-2487.0700000000010732
 20
3752.7800000000011096
 30
0.0
 70
    32
  0
VERTEX
  5
17CA
  8
0
 10
-2495.9699999999997999
 20
3719.75
 30
0.0
 70
    32
  0
VERTEX
  5
17CB
  8
0
 10
-2502.3299999999999272
 20
3684.4200000000000728
 30
0.0
 70
    32
  0
VERTEX
  5
17CC
  8
0
 10
-2506.2600000000011278
 20
3646.8699999999998909
 30
0.0
 70
    32
  0
VERTEX
  5
17CD
  8
0
 10
-2507.8499999999999091
 20
3607.1900000000000546
 30
0.0
 70
    32
  0
VERTEX
  5
17CE
  8
0
 10
-2507.2100000000009459
 20
3565.4600000000000364
 30
0.0
 70
    32
  0
VERTEX
  5
17CF
  8
0
 10
-2504.4400000000000546
 20
3521.7699999999999818
 30
0.0
 70
    32
  0
VERTEX
  5
17D0
  8
0
 10
-2499.6399999999998727
 20
3476.1900000000009641
 30
0.0
 70
    32
  0
VERTEX
  5
17D1
  8
0
 10
-2492.9299999999998363
 20
3428.8200000000001637
 30
0.0
 70
    32
  0
VERTEX
  5
17D2
  8
0
 10
-2484.3899999999998727
 20
3379.7399999999997817
 30
0.0
 70
    32
  0
VERTEX
  5
17D3
  8
0
 10
-2474.1500000000000909
 20
3329.0300000000002001
 30
0.0
 70
    32
  0
VERTEX
  5
17D4
  8
0
 10
-2462.2899999999999636
 20
3276.7800000000002001
 30
0.0
 70
    32
  0
VERTEX
  5
17D5
  8
0
 10
-2448.9200000000000728
 20
3223.0599999999999454
 30
0.0
 70
    32
  0
VERTEX
  5
17D6
  8
0
 10
-2434.1399999999998727
 20
3167.9699999999997999
 30
0.0
 70
    32
  0
VERTEX
  5
17D7
  8
0
 10
-2418.0599999999999454
 20
3111.5900000000001455
 30
0.0
 70
    32
  0
VERTEX
  5
17D8
  8
0
 10
-2400.7899999999999636
 20
3054.0
 30
0.0
 70
    32
  0
VERTEX
  5
17D9
  8
0
 10
-2382.4099999999998545
 20
2995.2899999999999636
 30
0.0
 70
    32
  0
VERTEX
  5
17DA
  8
0
 10
-2363.0399999999999636
 20
2935.5300000000002001
 30
0.0
 70
    32
  0
VERTEX
  5
17DB
  8
0
 10
-2342.7899999999999636
 20
2874.8200000000001637
 30
0.0
 70
    32
  0
VERTEX
  5
17DC
  8
0
 10
-2321.7399999999997817
 20
2813.2399999999997817
 30
0.0
 70
    32
  0
VERTEX
  5
17DD
  8
0
 10
-2300.0100000000002183
 20
2750.8699999999998909
 30
0.0
 70
    32
  0
VERTEX
  5
17DE
  8
0
 10
-2277.6999999999998181
 20
2687.8000000000010914
 30
0.0
 70
    32
  0
VERTEX
  5
17DF
  8
0
 10
-2254.9200000000000728
 20
2624.1100000000001273
 30
0.0
 70
    32
  0
VERTEX
  5
17E0
  8
0
 10
-2231.7600000000002183
 20
2559.8800000000001091
 30
0.0
 70
    32
  0
VERTEX
  5
17E1
  8
0
 10
-2208.3200000000001637
 20
2495.2100000000000364
 30
0.0
 70
    32
  0
VERTEX
  5
17E2
  8
0
 10
-2184.7199999999997999
 20
2430.1599999999998545
 30
0.0
 70
    32
  0
VERTEX
  5
17E3
  8
0
 10
-2161.0599999999999454
 20
2364.8299999999999272
 30
0.0
 70
    32
  0
VERTEX
  5
17E4
  8
0
 10
-2137.4299999999998363
 20
2299.3000000000001819
 30
0.0
 70
    32
  0
VERTEX
  5
17E5
  8
0
 10
-2113.9400000000000546
 20
2233.6599999999998545
 30
0.0
 70
    32
  0
VERTEX
  5
17E6
  8
0
 10
-2090.6999999999998181
 20
2167.9800000000000182
 30
0.0
 70
    32
  0
VERTEX
  5
17E7
  8
0
 10
-2067.8000000000001819
 20
2102.3600000000001273
 30
0.0
 70
    32
  0
VERTEX
  5
17E8
  8
0
 10
-2045.3599999999999
 20
2036.8699999999998909
 30
0.0
 70
    32
  0
VERTEX
  5
17E9
  8
0
 10
-2023.4700000000000273
 20
1971.6099999999999
 30
0.0
 70
    32
  0
VERTEX
  5
17EA
  8
0
 10
-2002.2300000000000182
 20
1906.6500000000000909
 30
0.0
 70
    32
  0
VERTEX
  5
17EB
  8
0
 10
-1981.7599999999999909
 20
1842.0799999999999272
 30
0.0
 70
    32
  0
VERTEX
  5
17EC
  8
0
 10
-1962.1400000000001
 20
1777.9800000000000182
 30
0.0
 70
    32
  0
VERTEX
  5
17ED
  8
0
 10
-1943.5
 20
1714.4400000000000546
 30
0.0
 70
    32
  0
VERTEX
  5
17EE
  8
0
 10
-1925.9200000000000728
 20
1651.5399999999999636
 30
0.0
 70
    32
  0
VERTEX
  5
17EF
  8
0
 10
-1909.5199999999999818
 20
1589.3699999999998909
 30
0.0
 70
    32
  0
VERTEX
  5
17F0
  8
0
 10
-1894.3900000000001
 20
1528.0
 30
0.0
 70
    32
  0
VERTEX
  5
17F1
  8
0
 10
-1880.6400000000001
 20
1467.5299999999999727
 30
0.0
 70
    32
  0
VERTEX
  5
17F2
  8
0
 10
-1868.3699999999998909
 20
1408.0299999999999727
 30
0.0
 70
    32
  0
VERTEX
  5
17F3
  8
0
 10
-1857.6900000000000546
 20
1349.5999999999999091
 30
0.0
 70
    32
  0
VERTEX
  5
17F4
  8
0
 10
-1848.7000000000000455
 20
1292.3099999999999454
 30
0.0
 70
    32
  0
VERTEX
  5
17F5
  8
0
 10
-1841.4900000000000091
 20
1236.25
 30
0.0
 70
    32
  0
VERTEX
  5
17F6
  8
0
 10
-1836.1800000000000637
 20
1181.5099999999999909
 30
0.0
 70
    32
  0
VERTEX
  5
17F7
  8
0
 10
-1832.8699999999989814
 20
1128.1600000000000819
 30
0.0
 70
    32
  0
VERTEX
  5
17F8
  8
0
 10
-1831.6600000000000819
 20
1076.2899999999999636
 30
0.0
 70
    32
  0
VERTEX
  5
17F9
  8
0
 10
-1832.6500000000000909
 20
1025.9900000000000091
 30
0.0
 70
    32
  0
VERTEX
  5
17FA
  8
0
 10
-1835.9500000000000455
 20
977.3419999999998709
 30
0.0
 70
    32
  0
VERTEX
  5
17FB
  8
0
 10
-1841.6600000000000819
 20
930.4249999999999545
 30
0.0
 70
    32
  0
VERTEX
  5
17FC
  8
0
 10
-1849.8800000000001091
 20
885.3250000000000455
 30
0.0
 70
    32
  0
VERTEX
  5
17FD
  8
0
 10
-1860.7200000000000273
 20
842.1269999999999527
 30
0.0
 70
    32
  0
VERTEX
  5
17FE
  8
0
 10
-1874.2799999999999727
 20
800.9149999999998499
 30
0.0
 70
    32
  0
VERTEX
  5
17FF
  8
0
 10
-1890.6600000000000819
 20
761.7730000000000246
 30
0.0
 70
    32
  0
VERTEX
  5
1800
  8
0
 10
-1909.9700000000000273
 20
724.7849999999998545
 30
0.0
 70
    32
  0
VERTEX
  5
1801
  8
0
 10
-1932.2999999999999545
 20
690.0339999999998781
 30
0.0
 70
    32
  0
VERTEX
  5
1802
  8
0
 10
-1957.7699999999999818
 20
657.6059999999999945
 30
0.0
 70
    32
  0
VERTEX
  5
1803
  8
0
 10
-1986.4700000000000273
 20
627.58299999999997
 30
0.0
 70
    32
  0
VERTEX
  5
1804
  8
0
 10
-2018.4300000000000637
 20
600.0130000000000337
 30
0.0
 70
    32
  0
VERTEX
  5
1805
  8
0
 10
-2053.5
 20
574.8690000000000282
 30
0.0
 70
    32
  0
VERTEX
  5
1806
  8
0
 10
-2091.5199999999999818
 20
552.1140000000000327
 30
0.0
 70
    32
  0
VERTEX
  5
1807
  8
0
 10
-2132.3299999999999272
 20
531.7129999999999654
 30
0.0
 70
    32
  0
VERTEX
  5
1808
  8
0
 10
-2175.7699999999999818
 20
513.6290000000000191
 30
0.0
 70
    32
  0
VERTEX
  5
1809
  8
0
 10
-2221.6799999999998363
 20
497.8279999999999745
 30
0.0
 70
    32
  0
VERTEX
  5
180A
  8
0
 10
-2269.8899999999998727
 20
484.2709999999999013
 30
0.0
 70
    32
  0
VERTEX
  5
180B
  8
0
 10
-2320.2399999999997817
 20
472.9250000000000114
 30
0.0
 70
    32
  0
VERTEX
  5
180C
  8
0
 10
-2372.5700000000001637
 20
463.7519999999998959
 30
0.0
 70
    32
  0
VERTEX
  5
180D
  8
0
 10
-2426.7300000000000182
 20
456.7169999999999277
 30
0.0
 70
    32
  0
VERTEX
  5
180E
  8
0
 10
-2482.5399999999999636
 20
451.7839999999998781
 30
0.0
 70
    32
  0
VERTEX
  5
180F
  8
0
 10
-2539.8400000000001455
 20
448.9169999999999163
 30
0.0
 70
    32
  0
VERTEX
  5
1810
  8
0
 10
-2598.4800000000000182
 20
448.078999999999894
 30
0.0
 70
    32
  0
VERTEX
  5
1811
  8
0
 10
-2658.3000000000001819
 20
449.2359999999998763
 30
0.0
 70
    32
  0
VERTEX
  5
1812
  8
0
 10
-2719.1199999999998909
 20
452.3500000000000227
 30
0.0
 70
    32
  0
VERTEX
  5
1813
  8
0
 10
-2780.7899999999999636
 20
457.3859999999999104
 30
0.0
 70
    32
  0
VERTEX
  5
1814
  8
0
 10
-2843.1399999999998727
 20
464.3079999999999927
 30
0.0
 70
    32
  0
VERTEX
  5
1815
  8
0
 10
-2906.0300000000002001
 20
473.0799999999999841
 30
0.0
 70
    32
  0
VERTEX
  5
1816
  8
0
 10
-2969.2699999999999818
 20
483.6659999999999968
 30
0.0
 70
    32
  0
VERTEX
  5
1817
  8
0
 10
-3032.7199999999997999
 20
496.0299999999999727
 30
0.0
 70
    32
  0
VERTEX
  5
1818
  8
0
 10
-3096.1999999999998181
 20
510.1359999999999104
 30
0.0
 70
    32
  0
VERTEX
  5
1819
  8
0
 10
-3159.5700000000001637
 20
525.9479999999998654
 30
0.0
 70
    32
  0
VERTEX
  5
181A
  8
0
 10
-3222.6500000000000909
 20
543.42999999999995
 30
0.0
 70
    32
  0
VERTEX
  5
181B
  8
0
 10
-3285.2800000000002001
 20
562.5459999999999354
 30
0.0
 70
    32
  0
VERTEX
  5
181C
  8
0
 10
-3347.3000000000001819
 20
583.2599999999999909
 30
0.0
 70
    32
  0
VERTEX
  5
181D
  8
0
 10
-3408.5599999999999454
 20
605.5359999999999445
 30
0.0
 70
    32
  0
VERTEX
  5
181E
  8
0
 10
-3468.8899999999998727
 20
629.3390000000000555
 30
0.0
 70
    32
  0
VERTEX
  5
181F
  8
0
 10
-3528.1199999999998909
 20
654.6319999999999482
 30
0.0
 70
    32
  0
VERTEX
  5
1820
  8
0
 10
-3586.0900000000001455
 20
681.3789999999999054
 30
0.0
 70
    32
  0
VERTEX
  5
1821
  8
0
 10
-3642.6500000000010004
 20
709.543999999999869
 30
0.0
 70
    32
  0
VERTEX
  5
1822
  8
0
 10
-3697.6399999999998727
 20
739.0909999999998945
 30
0.0
 70
    32
  0
VERTEX
  5
1823
  8
0
 10
-3750.8800000000001091
 20
769.9850000000000136
 30
0.0
 70
    32
  0
VERTEX
  5
1824
  8
0
 10
-3802.2199999999997999
 20
802.1889999999998508
 30
0.0
 70
    32
  0
VERTEX
  5
1825
  8
0
 10
-3851.4899999999997817
 20
835.6669999999999163
 30
0.0
 70
    32
  0
VERTEX
  5
1826
  8
0
 10
-3898.5399999999999636
 20
870.3839999999999009
 30
0.0
 70
    32
  0
VERTEX
  5
1827
  8
0
 10
-3943.2100000000000364
 20
906.3029999999998836
 30
0.0
 70
    32
  0
VERTEX
  5
1828
  8
0
 10
-3985.3200000000001637
 20
943.3880000000000337
 30
0.0
 70
    32
  0
VERTEX
  5
1829
  8
0
 10
-4024.7300000000000182
 20
981.6039999999999281
 30
0.0
 70
    32
  0
VERTEX
  5
182A
  8
0
 10
-4061.259999999998854
 20
1020.9099999999999682
 30
0.0
 70
    32
  0
VERTEX
  5
182B
  8
0
 10
-4094.75
 20
1061.2799999999999727
 30
0.0
 70
    32
  0
VERTEX
  5
182C
  8
0
 10
-4125.0500000000001819
 20
1102.6700000000000728
 30
0.0
 70
    32
  0
VERTEX
  5
182D
  8
0
 10
-4151.9899999999997817
 20
1145.0499999999999545
 30
0.0
 70
    32
  0
VERTEX
  5
182E
  8
0
 10
-4175.5
 20
1188.3800000000001091
 30
0.0
 70
    32
  0
VERTEX
  5
182F
  8
0
 10
-4195.6400000000003274
 20
1232.6300000000001091
 30
0.0
 70
    32
  0
VERTEX
  5
1830
  8
0
 10
-4212.5399999999990541
 20
1277.7699999999999818
 30
0.0
 70
    32
  0
VERTEX
  5
1831
  8
0
 10
-4226.3000000000010914
 20
1323.7699999999999818
 30
0.0
 70
    32
  0
VERTEX
  5
1832
  8
0
 10
-4237.0200000000004366
 20
1370.5899999999999181
 30
0.0
 70
    32
  0
VERTEX
  5
1833
  8
0
 10
-4244.8199999999987995
 20
1418.2100000000000364
 30
0.0
 70
    32
  0
VERTEX
  5
1834
  8
0
 10
-4249.7899999999990541
 20
1466.5999999999999091
 30
0.0
 70
    32
  0
VERTEX
  5
1835
  8
0
 10
-4252.0399999999999636
 20
1515.7100000000000364
 30
0.0
 70
    32
  0
VERTEX
  5
1836
  8
0
 10
-4251.680000000000291
 20
1565.5299999999999727
 30
0.0
 70
    32
  0
VERTEX
  5
1837
  8
0
 10
-4248.819999999999709
 20
1616.0199999999999818
 30
0.0
 70
    32
  0
VERTEX
  5
1838
  8
0
 10
-4243.569999999999709
 20
1667.1500000000000909
 30
0.0
 70
    32
  0
VERTEX
  5
1839
  8
0
 10
-4236.0200000000004366
 20
1718.8900000000001
 30
0.0
 70
    32
  0
VERTEX
  5
183A
  8
0
 10
-4226.2799999999997453
 20
1771.2100000000000364
 30
0.0
 70
    32
  0
VERTEX
  5
183B
  8
0
 10
-4214.4700000000002547
 20
1824.0699999999999363
 30
0.0
 70
    32
  0
VERTEX
  5
183C
  8
0
 10
-4200.6899999999986903
 20
1877.4500000000000455
 30
0.0
 70
    32
  0
VERTEX
  5
183D
  8
0
 10
-4185.0399999999990541
 20
1931.3099999999999454
 30
0.0
 70
    32
  0
VERTEX
  5
183E
  8
0
 10
-4167.6300000000001091
 20
1985.6199999999998909
 30
0.0
 70
    32
  0
VERTEX
  5
183F
  8
0
 10
-4148.569999999999709
 20
2040.3499999999999091
 30
0.0
 70
    32
  0
VERTEX
  5
1840
  8
0
 10
-4127.9600000000000364
 20
2095.4800000000000182
 30
0.0
 70
    32
  0
VERTEX
  5
1841
  8
0
 10
-4105.9099999999998545
 20
2150.9600000000000364
 30
0.0
 70
    32
  0
VERTEX
  5
1842
  8
0
 10
-4082.5199999999999818
 20
2206.7699999999999818
 30
0.0
 70
    32
  0
VERTEX
  5
1843
  8
0
 10
-4057.909999999998945
 20
2262.8800000000001091
 30
0.0
 70
    32
  0
VERTEX
  5
1844
  8
0
 10
-4032.1799999999989268
 20
2319.2600000000002183
 30
0.0
 70
    32
  0
VERTEX
  5
1845
  8
0
 10
-4005.4299999999989268
 20
2375.8600000000001273
 30
0.0
 70
    32
  0
VERTEX
  5
1846
  8
0
 10
-3977.7800000000011096
 20
2432.6700000000000728
 30
0.0
 70
    32
  0
VERTEX
  5
1847
  8
0
 10
-3949.3200000000001637
 20
2489.6599999999998545
 30
0.0
 70
    32
  0
VERTEX
  5
1848
  8
0
 10
-3920.1599999999998545
 20
2546.7800000000002001
 30
0.0
 70
    32
  0
VERTEX
  5
1849
  8
0
 10
-3890.4200000000009823
 20
2604.0100000000011278
 30
0.0
 70
    32
  0
VERTEX
  5
184A
  8
0
 10
-3860.1900000000000546
 20
2661.3200000000001637
 30
0.0
 70
    32
  0
VERTEX
  5
184B
  8
0
 10
-3829.590000000001055
 20
2718.6799999999998363
 30
0.0
 70
    32
  0
VERTEX
  5
184C
  8
0
 10
-3798.7100000000000364
 20
2776.0500000000010914
 30
0.0
 70
    32
  0
VERTEX
  5
184D
  8
0
 10
-3767.6700000000009823
 20
2833.4099999999998545
 30
0.0
 70
    32
  0
VERTEX
  5
184E
  8
0
 10
-3736.5700000000001637
 20
2890.7199999999997999
 30
0.0
 70
    32
  0
VERTEX
  5
184F
  8
0
 10
-3705.5199999999999818
 20
2947.9600000000000364
 30
0.0
 70
    32
  0
VERTEX
  5
1850
  8
0
 10
-3674.6300000000001091
 20
3005.0799999999999272
 30
0.0
 70
    32
  0
VERTEX
  5
1851
  8
0
 10
-3644.0
 20
3062.0700000000001637
 30
0.0
 70
    32
  0
VERTEX
  5
1852
  8
0
 10
-3613.7300000000000182
 20
3118.8800000000001091
 30
0.0
 70
    32
  0
VERTEX
  5
1853
  8
0
 10
-3583.9400000000009641
 20
3175.4899999999997817
 30
0.0
 70
    32
  0
VERTEX
  5
1854
  8
0
 10
-3554.7300000000000182
 20
3231.8699999999998909
 30
0.0
 70
    32
  0
VERTEX
  5
1855
  8
0
 10
-3526.1999999999998181
 20
3287.9800000000009277
 30
0.0
 70
    32
  0
VERTEX
  5
1856
  8
0
 10
-3498.4699999999997999
 20
3343.8000000000001819
 30
0.0
 70
    32
  0
VERTEX
  5
1857
  8
0
 10
-3471.6300000000010186
 20
3399.2899999999999636
 30
0.0
 70
    32
  0
VERTEX
  5
1858
  8
0
 10
-3445.8099999999999454
 20
3454.4200000000009823
 30
0.0
 70
    32
  0
VERTEX
  5
1859
  8
0
 10
-3421.0900000000001455
 20
3509.1599999999998545
 30
0.0
 70
    32
  0
VERTEX
  5
185A
  8
0
 10
-3397.5900000000001455
 20
3563.4899999999997817
 30
0.0
 70
    32
  0
VERTEX
  5
185B
  8
0
 10
-3375.4200000000000728
 20
3617.3499999999999091
 30
0.0
 70
    32
  0
VERTEX
  5
185C
  8
0
 10
-3354.6700000000000728
 20
3670.7399999999997817
 30
0.0
 70
    32
  0
VERTEX
  5
185D
  8
0
 10
-3335.4699999999997999
 20
3723.6100000000001273
 30
0.0
 70
    32
  0
VERTEX
  5
185E
  8
0
 10
-3317.9099999999998545
 20
3775.9400000000000546
 30
0.0
 70
    32
  0
VERTEX
  5
185F
  8
0
 10
-3302.090000000001055
 20
3827.6900000000000546
 30
0.0
 70
    32
  0
VERTEX
  5
1860
  8
0
 10
-3288.1399999999998727
 20
3878.8299999999999272
 30
0.0
 70
    32
  0
VERTEX
  5
1861
  8
0
 10
-3276.1500000000000909
 20
3929.3299999999999272
 30
0.0
 70
    32
  0
VERTEX
  5
1862
  8
0
 10
-3266.2199999999997999
 20
3979.1599999999998545
 30
0.0
 70
    32
  0
VERTEX
  5
1863
  8
0
 10
-3258.4699999999997999
 20
4028.2899999999999636
 30
0.0
 70
    32
  0
VERTEX
  5
1864
  8
0
 10
-3253.0
 20
4076.6900000000000546
 30
0.0
 70
    32
  0
VERTEX
  5
1865
  8
0
 10
-3249.9200000000000728
 20
4124.3199999999987995
 30
0.0
 70
    32
  0
VERTEX
  5
1866
  8
0
 10
-3249.3400000000001455
 20
4171.159999999998945
 30
0.0
 70
    32
  0
VERTEX
  5
1867
  8
0
 10
-3251.3499999999999091
 20
4217.1700000000000728
 30
0.0
 70
    32
  0
VERTEX
  5
1868
  8
0
 10
-3256.0799999999999272
 20
4262.3299999999999272
 30
0.0
 70
    32
  0
VERTEX
  5
1869
  8
0
 10
-3263.6100000000001273
 20
4306.6000000000003638
 30
0.0
 70
    32
  0
VERTEX
  5
186A
  8
0
 10
-3274.0700000000001637
 20
4349.9399999999986903
 30
0.0
 70
    32
  0
VERTEX
  5
186B
  8
0
 10
-3287.5500000000001819
 20
4392.339999999999236
 30
0.0
 70
    32
  0
VERTEX
  5
186C
  8
0
 10
-3304.1599999999998545
 20
4433.7499999999990905
 30
0.0
 70
    32
  0
VERTEX
  5
186D
  8
0
 10
-3324.0100000000011278
 20
4474.1499999999987267
 30
0.0
 70
    32
  0
VERTEX
  5
186E
  8
0
 10
-3347.2100000000000364
 20
4513.5100000000002183
 30
0.0
 70
    32
  0
VERTEX
  5
186F
  8
0
 10
-3373.8600000000001273
 20
4551.7799999999988358
 30
0.0
 70
    32
  0
VERTEX
  5
1870
  8
0
 10
-3403.9899999999997817
 20
4588.9700000000002547
 30
0.0
 70
    32
  0
VERTEX
  5
1871
  8
0
 10
-3437.4600000000000364
 20
4625.1000000000003638
 30
0.0
 70
    32
  0
VERTEX
  5
1872
  8
0
 10
-3474.0700000000010732
 20
4660.1899999999986903
 30
0.0
 70
    32
  0
VERTEX
  5
1873
  8
0
 10
-3513.6500000000010004
 20
4694.2799999999997453
 30
0.0
 70
    32
  0
VERTEX
  5
1874
  8
0
 10
-3555.9899999999997817
 20
4727.4200000000000728
 30
0.0
 70
    32
  0
VERTEX
  5
1875
  8
0
 10
-3600.9299999999998363
 20
4759.6199999999998909
 30
0.0
 70
    32
  0
VERTEX
  5
1876
  8
0
 10
-3648.2600000000002183
 20
4790.9199999999991633
 30
0.0
 70
    32
  0
VERTEX
  5
1877
  8
0
 10
-3697.8099999999999454
 20
4821.3699999999998909
 30
0.0
 70
    32
  0
VERTEX
  5
1878
  8
0
 10
-3749.3800000000001091
 20
4850.9799999999986539
 30
0.0
 70
    32
  0
VERTEX
  5
1879
  8
0
 10
-3802.8000000000010914
 20
4879.8000000000001819
 30
0.0
 70
    32
  0
VERTEX
  5
187A
  8
0
 10
-3857.8699999999998909
 20
4907.8599999999987631
 30
0.0
 70
    32
  0
VERTEX
  5
187B
  8
0
 10
-3914.4099999999998545
 20
4935.1899999999995998
 30
0.0
 70
    32
  0
VERTEX
  5
187C
  8
0
 10
-3972.2399999999997817
 20
4961.8299999999990177
 30
0.0
 70
    32
  0
VERTEX
  5
187D
  8
0
 10
-4031.1500000000000909
 20
4987.8000000000001819
 30
0.0
 70
    32
  0
VERTEX
  5
187E
  8
0
 10
-4090.9800000000000182
 20
5013.1499999999987267
 30
0.0
 70
    32
  0
VERTEX
  5
187F
  8
0
 10
-4151.5299999999997453
 20
5037.9099999999998545
 30
0.0
 70
    32
  0
VERTEX
  5
1880
  8
0
 10
-4212.6099999999996726
 20
5062.1099999999996726
 30
0.0
 70
    32
  0
VERTEX
  5
1881
  8
0
 10
-4274.0500000000001819
 20
5085.7799999999988358
 30
0.0
 70
    32
  0
VERTEX
  5
1882
  8
0
 10
-4335.6499999999996362
 20
5108.9600000000000364
 30
0.0
 70
    32
  0
VERTEX
  5
1883
  8
0
 10
-4397.2299999999986539
 20
5131.6899999999986903
 30
0.0
 70
    32
  0
VERTEX
  5
1884
  8
0
 10
-4458.5900000000001455
 20
5153.9899999999997817
 30
0.0
 70
    32
  0
VERTEX
  5
1885
  8
0
 10
-4519.5600000000013097
 20
5175.8900000000003274
 30
0.0
 70
    32
  0
VERTEX
  5
1886
  8
0
 10
-4579.9499999999998181
 20
5197.4499999999989086
 30
0.0
 70
    32
  0
VERTEX
  5
1887
  8
0
 10
-4639.5699999999987995
 20
5218.6700000000000728
 30
0.0
 70
    32
  0
VERTEX
  5
1888
  8
0
 10
-4698.2399999999997817
 20
5239.6099999999987631
 30
0.0
 70
    32
  0
VERTEX
  5
1889
  8
0
 10
-4755.7600000000002183
 20
5260.3000000000001819
 30
0.0
 70
    32
  0
VERTEX
  5
188A
  8
0
 10
-4811.9600000000000364
 20
5280.7600000000002183
 30
0.0
 70
    32
  0
VERTEX
  5
188B
  8
0
 10
-4866.6400000000003274
 20
5301.0299999999997453
 30
0.0
 70
    32
  0
VERTEX
  5
188C
  8
0
 10
-4919.6199999999998909
 20
5321.1499999999996362
 30
0.0
 70
    32
  0
VERTEX
  5
188D
  8
0
 10
-4970.7200000000002547
 20
5341.1499999999987267
 30
0.0
 70
    32
  0
VERTEX
  5
188E
  8
0
 10
-5019.7399999999997817
 20
5361.0600000000013097
 30
0.0
 70
    32
  0
VERTEX
  5
188F
  8
0
 10
-5066.5
 20
5380.9200000000000728
 30
0.0
 70
    32
  0
VERTEX
  5
1890
  8
0
 10
-5110.8100000000004002
 20
5400.75
 30
0.0
 70
    32
  0
VERTEX
  5
1891
  8
0
 10
-5152.4899999999997817
 20
5420.6099999999987631
 30
0.0
 70
    32
  0
VERTEX
  5
1892
  8
0
 10
-5191.3599999999987631
 20
5440.5100000000002183
 30
0.0
 70
    32
  0
VERTEX
  5
1893
  8
0
 10
-5227.2200000000002547
 20
5460.4899999999997817
 30
0.0
 70
    32
  0
VERTEX
  5
1894
  8
0
 10
-5259.8800000000001091
 20
5480.5799999999990177
 30
0.0
 70
    32
  0
VERTEX
  5
1895
  8
0
 10
-5289.1700000000000728
 20
5500.8299999999999272
 30
0.0
 70
    32
  0
VERTEX
  5
1896
  8
0
 10
-5314.8900000000012369
 20
5521.25
 30
0.0
 70
    32
  0
VERTEX
  5
1897
  8
0
 10
-5336.8599999999996726
 20
5541.8999999999996362
 30
0.0
 70
    32
  0
VERTEX
  5
1898
  8
0
 10
-5354.8999999999996362
 20
5562.7899999999999636
 30
0.0
 70
    32
  0
VERTEX
  5
1899
  8
0
 10
-5368.8100000000004002
 20
5583.9700000000002547
 30
0.0
 70
    32
  0
VERTEX
  5
189A
  8
0
 10
-5378.4099999999998545
 20
5605.4600000000000364
 30
0.0
 70
    32
  0
VERTEX
  5
189B
  8
0
 10
-5383.6400000000003274
 20
5627.2700000000013461
 30
0.0
 70
    32
  0
VERTEX
  5
189C
  8
0
 10
-5384.5900000000001455
 20
5649.3599999999996726
 30
0.0
 70
    32
  0
VERTEX
  5
189D
  8
0
 10
-5381.3800000000001091
 20
5671.6800000000012005
 30
0.0
 70
    32
  0
VERTEX
  5
189E
  8
0
 10
-5374.1099999999987631
 20
5694.1899999999986903
 30
0.0
 70
    32
  0
VERTEX
  5
189F
  8
0
 10
-5362.9200000000000728
 20
5716.840000000001055
 30
0.0
 70
    32
  0
VERTEX
  5
18A0
  8
0
 10
-5347.8900000000003274
 20
5739.5799999999999272
 30
0.0
 70
    32
  0
VERTEX
  5
18A1
  8
0
 10
-5329.1599999999998545
 20
5762.3800000000001091
 30
0.0
 70
    32
  0
VERTEX
  5
18A2
  8
0
 10
-5306.819999999999709
 20
5785.180000000000291
 30
0.0
 70
    32
  0
VERTEX
  5
18A3
  8
0
 10
-5281.0
 20
5807.9399999999995998
 30
0.0
 70
    32
  0
VERTEX
  5
18A4
  8
0
 10
-5251.8100000000004002
 20
5830.6199999999989814
 30
0.0
 70
    32
  0
VERTEX
  5
18A5
  8
0
 10
-5219.3500000000012733
 20
5853.1700000000000728
 30
0.0
 70
    32
  0
VERTEX
  5
18A6
  8
0
 10
-5183.7399999999997817
 20
5875.5399999999999636
 30
0.0
 70
    32
  0
VERTEX
  5
18A7
  8
0
 10
-5145.1000000000012733
 20
5897.6899999999995998
 30
0.0
 70
    32
  0
VERTEX
  5
18A8
  8
0
 10
-5103.5399999999999636
 20
5919.5799999999990177
 30
0.0
 70
    32
  0
VERTEX
  5
18A9
  8
0
 10
-5059.1599999999998545
 20
5941.159999999998945
 30
0.0
 70
    32
  0
VERTEX
  5
18AA
  8
0
 10
-5012.0799999999999272
 20
5962.3800000000001091
 30
0.0
 70
    32
  0
VERTEX
  5
18AB
  8
0
 10
-4962.4200000000000728
 20
5983.1999999999998181
 30
0.0
 70
    32
  0
VERTEX
  5
18AC
  8
0
 10
-4910.2899999999990541
 20
6003.5699999999987995
 30
0.0
 70
    32
  0
VERTEX
  5
18AD
  8
0
 10
-4855.7899999999999636
 20
6023.4499999999998181
 30
0.0
 70
    32
  0
VERTEX
  5
18AE
  8
0
 10
-4799.0500000000001819
 20
6042.7899999999999636
 30
0.0
 70
    32
  0
VERTEX
  5
18AF
  8
0
 10
-4740.1699999999991633
 20
6061.5500000000001819
 30
0.0
 70
    32
  0
VERTEX
  5
18B0
  8
0
 10
-4679.2700000000004366
 20
6079.680000000000291
 30
0.0
 70
    32
  0
VERTEX
  5
18B1
  8
0
 10
-4616.4600000000000364
 20
6097.1499999999996362
 30
0.0
 70
    32
  0
VERTEX
  5
18B2
  8
0
 10
-4551.8500000000003638
 20
6113.8900000000012369
 30
0.0
 70
    32
  0
VERTEX
  5
18B3
  8
0
 10
-4485.5600000000004002
 20
6129.8699999999998909
 30
0.0
 70
    32
  0
VERTEX
  5
18B4
  8
0
 10
-4417.6999999999989086
 20
6145.0399999999999636
 30
0.0
 70
    32
  0
VERTEX
  5
18B5
  8
0
 10
-4348.3699999999998909
 20
6159.3599999999987631
 30
0.0
 70
    32
  0
VERTEX
  5
18B6
  8
0
 10
-4277.6999999999998181
 20
6172.7799999999997453
 30
0.0
 70
    32
  0
VERTEX
  5
18B7
  8
0
 10
-4205.7999999999992724
 20
6185.2499999999990905
 30
0.0
 70
    32
  0
VERTEX
  5
18B8
  8
0
 10
-4132.7700000000004366
 20
6196.7399999999997817
 30
0.0
 70
    32
  0
VERTEX
  5
18B9
  8
0
 10
-4058.7399999999988722
 20
6207.1899999999995998
 30
0.0
 70
    32
  0
VERTEX
  5
18BA
  8
0
 10
-3983.8099999999999454
 20
6216.5600000000013097
 30
0.0
 70
    32
  0
VERTEX
  5
18BB
  8
0
 10
-3908.0900000000001455
 20
6224.8100000000013097
 30
0.0
 70
    32
  0
VERTEX
  5
18BC
  8
0
 10
-3831.7100000000009459
 20
6231.8900000000003274
 30
0.0
 70
    32
  0
VERTEX
  5
18BD
  8
0
 10
-3754.7600000000002183
 20
6237.7500000000009095
 30
0.0
 70
    32
  0
VERTEX
  5
18BE
  8
0
 10
-3677.3699999999998909
 20
6242.3500000000003638
 30
0.0
 70
    32
  0
VERTEX
  5
18BF
  8
0
 10
-3599.6500000000000909
 20
6245.6499999999996362
 30
0.0
 70
    32
  0
VERTEX
  5
18C0
  8
0
 10
-3521.7100000000009459
 20
6247.5900000000001455
 30
0.0
 70
    32
  0
VERTEX
  5
18C1
  8
0
 10
-3443.6599999999998545
 20
6248.1400000000012369
 30
0.0
 70
    32
  0
VERTEX
  5
18C2
  8
0
 10
-3365.6100000000001273
 20
6247.2500000000009095
 30
0.0
 70
    32
  0
VERTEX
  5
18C3
  8
0
 10
-3287.6799999999998363
 20
6244.8699999999998909
 30
0.0
 70
    32
  0
VERTEX
  5
18C4
  8
0
 10
-3210.0100000000002183
 20
6240.9899999999997817
 30
0.0
 70
    32
  0
VERTEX
  5
18C5
  8
0
 10
-3132.9299999999998363
 20
6235.8299999999990177
 30
0.0
 70
    32
  0
VERTEX
  5
18C6
  8
0
 10
-3056.8600000000001273
 20
6229.7100000000000364
 30
0.0
 70
    32
  0
VERTEX
  5
18C7
  8
0
 10
-2982.2100000000000364
 20
6222.9499999999998181
 30
0.0
 70
    32
  0
VERTEX
  5
18C8
  8
0
 10
-2909.4000000000000909
 20
6215.8599999999996726
 30
0.0
 70
    32
  0
VERTEX
  5
18C9
  8
0
 10
-2838.8499999999999091
 20
6208.7799999999997453
 30
0.0
 70
    32
  0
VERTEX
  5
18CA
  8
0
 10
-2770.9800000000000182
 20
6202.0100000000011278
 30
0.0
 70
    32
  0
VERTEX
  5
18CB
  8
0
 10
-2706.1999999999998181
 20
6195.8800000000001091
 30
0.0
 70
    32
  0
VERTEX
  5
18CC
  8
0
 10
-2644.9299999999998363
 20
6190.7100000000000364
 30
0.0
 70
    32
  0
VERTEX
  5
18CD
  8
0
 10
-2587.5900000000001455
 20
6186.8100000000013097
 30
0.0
 70
    32
  0
VERTEX
  5
18CE
  8
0
 10
-2534.5900000000001455
 20
6184.5100000000002183
 30
0.0
 70
    32
  0
VERTEX
  5
18CF
  8
0
 10
-2486.3600000000001273
 20
6184.1199999999998909
 30
0.0
 70
    32
  0
VERTEX
  5
18D0
  8
0
 10
-2443.3000000000010914
 20
6185.9700000000011642
 30
0.0
 70
    32
  0
VERTEX
  5
18D1
  8
0
 10
-2405.8400000000001455
 20
6190.3800000000010186
 30
0.0
 70
    32
  0
VERTEX
  5
18D2
  8
0
 10
-2374.3899999999998727
 20
6197.659999999998945
 30
0.0
 70
    32
  0
VERTEX
  5
18D3
  8
0
 10
-2349.3699999999998909
 20
6208.1400000000003274
 30
0.0
 70
    32
  0
VERTEX
  5
18D4
  8
0
 10
-2331.1999999999998181
 20
6222.1199999999998909
 30
0.0
 70
    32
  0
VERTEX
  5
18D5
  8
0
 10
-2320.3000000000001819
 20
6239.9499999999998181
 30
0.0
 70
    32
  0
VERTEX
  5
18D6
  8
0
 10
-2317.0
 20
6261.8699999999998909
 30
0.0
 70
    32
  0
VERTEX
  5
18D7
  8
0
 10
-2321.0500000000001819
 20
6287.8000000000001819
 30
0.0
 70
    32
  0
VERTEX
  5
18D8
  8
0
 10
-2331.9400000000000546
 20
6317.430000000000291
 30
0.0
 70
    32
  0
VERTEX
  5
18D9
  8
0
 10
-2349.1300000000001091
 20
6350.4899999999997817
 30
0.0
 70
    32
  0
VERTEX
  5
18DA
  8
0
 10
-2372.0999999999999091
 20
6386.6899999999986903
 30
0.0
 70
    32
  0
VERTEX
  5
18DB
  8
0
 10
-2400.3299999999999272
 20
6425.7400000000006912
 30
0.0
 70
    32
  0
VERTEX
  5
18DC
  8
0
 10
-2433.2800000000002001
 20
6467.3599999999987631
 30
0.0
 70
    32
  0
VERTEX
  5
18DD
  8
0
 10
-2470.4400000000000546
 20
6511.2700000000004366
 30
0.0
 70
    32
  0
VERTEX
  5
18DE
  8
0
 10
-2511.2800000000011096
 20
6557.1700000000009823
 30
0.0
 70
    32
  0
VERTEX
  5
18DF
  8
0
 10
-2555.2699999999999818
 20
6604.7899999999999636
 30
0.0
 70
    32
  0
VERTEX
  5
18E0
  8
0
 10
-2601.8800000000001091
 20
6653.839999999999236
 30
0.0
 70
    32
  0
VERTEX
  5
18E1
  8
0
 10
-2650.5999999999999091
 20
6704.0199999999986176
 30
0.0
 70
    32
  0
VERTEX
  5
18E2
  8
0
 10
-2700.9000000000000909
 20
6755.0600000000004002
 30
0.0
 70
    32
  0
VERTEX
  5
18E3
  8
0
 10
-2752.2399999999997817
 20
6806.680000000000291
 30
0.0
 70
    32
  0
VERTEX
  5
18E4
  8
0
 10
-2804.1100000000001273
 20
6858.5799999999999272
 30
0.0
 70
    32
  0
SEQEND
  5
18E5
  8
0
  0
ENDSEC
  0
EOF
