  0
SECTION
  2
HEADER
  9
$ACADVER
  1
AC1009
  9
$INSBASE
 10
0.0
 20
0.0
 30
0.0
  9
$EXTMIN
 10
-0.6261501689686959
 20
0.0
 30
0.0
  9
$EXTMAX
 10
5.0
 20
4.9825174825174816
 30
0.0
  9
$LIMMIN
 10
0.0
 20
0.0
  9
$LIMMAX
 10
420.0
 20
297.0
  9
$ORTHOMODE
 70
     0
  9
$REGENMODE
 70
     1
  9
$FILLMODE
 70
     1
  9
$QTEXTMODE
 70
     0
  9
$MIRRTEXT
 70
     0
  9
$DRAGMODE
 70
     2
  9
$LTSCALE
 40
1.0
  9
$OSMODE
 70
    39
  9
$ATTMODE
 70
     1
  9
$TEXTSIZE
 40
2.5
  9
$TRACEWID
 40
1.0
  9
$TEXTSTYLE
  7
STANDARD
  9
$CLAYER
  8
TEST
  9
$CELTYPE
  6
BYLAYER
  9
$CECOLOR
 62
   256
  9
$DIMSCALE
 40
1.0
  9
$DIMASZ
 40
2.5
  9
$DIMEXO
 40
0.625
  9
$DIMDLI
 40
3.75
  9
$DIMRND
 40
0.0
  9
$DIMDLE
 40
0.0
  9
$DIMEXE
 40
1.25
  9
$DIMTP
 40
0.0
  9
$DIMTM
 40
0.0
  9
$DIMTXT
 40
2.5
  9
$DIMCEN
 40
2.5
  9
$DIMTSZ
 40
0.0
  9
$DIMTOL
 70
     0
  9
$DIMLIM
 70
     0
  9
$DIMTIH
 70
     0
  9
$DIMTOH
 70
     0
  9
$DIMSE1
 70
     0
  9
$DIMSE2
 70
     0
  9
$DIMTAD
 70
     1
  9
$DIMZIN
 70
     8
  9
$DIMBLK
  1

  9
$DIMASO
 70
     1
  9
$DIMSHO
 70
     1
  9
$DIMPOST
  1

  9
$DIMAPOST
  1

  9
$DIMALT
 70
     0
  9
$DIMALTD
 70
     3
  9
$DIMALTF
 40
0.03937007874016
  9
$DIMLFAC
 40
1.0
  9
$DIMTOFL
 70
     1
  9
$DIMTVP
 40
0.0
  9
$DIMTIX
 70
     0
  9
$DIMSOXD
 70
     0
  9
$DIMSAH
 70
     0
  9
$DIMBLK1
  1

  9
$DIMBLK2
  1

  9
$DIMSTYLE
  2
ISO-25
  9
$DIMCLRD
 70
     0
  9
$DIMCLRE
 70
     0
  9
$DIMCLRT
 70
     0
  9
$DIMTFAC
 40
1.0
  9
$DIMGAP
 40
0.625
  9
$LUNITS
 70
     2
  9
$LUPREC
 70
     4
  9
$SKETCHINC
 40
1.0
  9
$FILLETRAD
 40
0.0
  9
$AUNITS
 70
     0
  9
$AUPREC
 70
     0
  9
$MENU
  1
.
  9
$ELEVATION
 40
0.0
  9
$PELEVATION
 40
0.0
  9
$THICKNESS
 40
0.0
  9
$LIMCHECK
 70
     0
  9
$BLIPMODE
 70
     0
  9
$CHAMFERA
 40
0.0
  9
$CHAMFERB
 40
0.0
  9
$SKPOLY
 70
     0
  9
$TDCREATE
 40
2456998.8584394101053476
  9
$TDUPDATE
 40
2457050.9755555898882449
  9
$TDINDWG
 40
2.2422242824
  9
$TDUSRTIMER
 40
2.2422102545999998
  9
$USRTIMER
 70
     1
  9
$ANGBASE
 50
0.0
  9
$ANGDIR
 70
     0
  9
$PDMODE
 70
     0
  9
$PDSIZE
 40
0.0
  9
$PLINEWID
 40
0.0
  9
$COORDS
 70
     1
  9
$SPLFRAME
 70
     0
  9
$SPLINETYPE
 70
     6
  9
$SPLINESEGS
 70
     8
  9
$ATTDIA
 70
     1
  9
$ATTREQ
 70
     1
  9
$HANDLING
 70
     1
  9
$HANDSEED
  5
3365
  9
$SURFTAB1
 70
     6
  9
$SURFTAB2
 70
     6
  9
$SURFTYPE
 70
     6
  9
$SURFU
 70
     6
  9
$SURFV
 70
     6
  9
$UCSNAME
  2

  9
$UCSORG
 10
0.0
 20
0.0
 30
0.0
  9
$UCSXDIR
 10
1.0
 20
0.0
 30
0.0
  9
$UCSYDIR
 10
0.0
 20
1.0
 30
0.0
  9
$PUCSNAME
  2

  9
$PUCSORG
 10
0.0
 20
0.0
 30
0.0
  9
$PUCSXDIR
 10
1.0
 20
0.0
 30
0.0
  9
$PUCSYDIR
 10
0.0
 20
1.0
 30
0.0
  9
$USERI1
 70
     0
  9
$USERI2
 70
     0
  9
$USERI3
 70
     0
  9
$USERI4
 70
     0
  9
$USERI5
 70
     0
  9
$USERR1
 40
0.0
  9
$USERR2
 40
0.0
  9
$USERR3
 40
0.0
  9
$USERR4
 40
0.0
  9
$USERR5
 40
0.0
  9
$WORLDVIEW
 70
     1
  9
$SHADEDGE
 70
     3
  9
$SHADEDIF
 70
    70
  9
$TILEMODE
 70
     1
  9
$MAXACTVP
 70
    64
  9
$PLIMCHECK
 70
     0
  9
$PEXTMIN
 10
0.0
 20
0.0
 30
0.0
  9
$PEXTMAX
 10
0.0
 20
0.0
 30
0.0
  9
$PLIMMIN
 10
0.0
 20
0.0
  9
$PLIMMAX
 10
12.0
 20
9.0
  9
$UNITMODE
 70
     0
  9
$VISRETAIN
 70
     1
  9
$PLINEGEN
 70
     0
  9
$PSLTSCALE
 70
     1
  0
ENDSEC
  0
SECTION
  2
TABLES
  0
TABLE
  2
VPORT
 70
     1
  0
VPORT
  2
*ACTIVE
 70
     0
 10
0.0
 20
0.0
 11
1.0
 21
1.0
 12
1.644194096360029
 22
3.3849396355091459
 13
0.0
 23
0.0
 14
10.0
 24
10.0
 15
10.0
 25
10.0
 16
0.0
 26
0.0
 36
1.0
 17
0.0
 27
0.0
 37
0.0
 40
3.7372368828287388
 41
1.690951821386603
 42
50.0
 43
0.0
 44
0.0
 50
0.0
 51
0.0
 71
     0
 72
  1000
 73
     1
 74
     3
 75
     0
 76
     1
 77
     0
 78
     0
  0
ENDTAB
  0
TABLE
  2
LTYPE
 70
     4
  0
LTYPE
  2
CONTINUOUS
 70
     0
  3
Solid line
 72
    65
 73
     0
 40
0.0
  0
LTYPE
  2
BATTING
 70
     0
  3
Batting SSSSSSSSSSSSSSSSSSSSSSSSSSSSSSSSSSSSSSS
 72
    65
 73
     4
 40
10.1625399999999999
 49
0.00254
 49
-2.54
 49
-5.0800000000000001
 49
-2.54
  0
LTYPE
  2
FENCELINE1
 70
     0
  3
Fenceline circle ----0-----0----0-----0----0---
 72
    65
 73
     4
 40
36.8299999999999983
 49
6.349999999999997
 49
-2.54
 49
-2.54
 49
25.3999999999999986
  0
LTYPE
  2
ZIGZAG
 70
     0
  3
Zig zag /\/\/\/\/\/\/\/\/\/\/\/\/\/\/\/\/\/\/\/
 72
    65
 73
     4
 40
20.32254
 49
0.00254
 49
-5.0800000000000001
 49
-10.1600000000000001
 49
-5.0800000000000001
  0
ENDTAB
  0
TABLE
  2
LAYER
 70
     5
  0
LAYER
  2
0
 70
     0
 62
     7
  6
CONTINUOUS
  0
LAYER
  2
TEST
 70
     0
 62
     7
  6
CONTINUOUS
  0
LAYER
  2
LAYER1
 70
     0
 62
     7
  6
CONTINUOUS
  0
LAYER
  2
ALL
 70
     0
 62
     7
  6
CONTINUOUS
  0
LAYER
  2
IMAGE
 70
     0
 62
   254
  6
CONTINUOUS
  0
ENDTAB
  0
TABLE
  2
STYLE
 70
     3
  0
STYLE
  2
STANDARD
 70
     0
 40
0.0
 41
1.0
 50
0.0
 71
     0
 42
2.5
  3
txt
  4

  0
STYLE
  2
ANNOTATIVE
 70
     0
 40
0.0
 41
1.0
 50
0.0
 71
     0
 42
2.5
  3
txt
  4

  0
STYLE
  2

 70
     1
 40
0.0
 41
1.0
 50
0.0
 71
     0
 42
2.5
  3
ltypeshp.shx
  4

  0
ENDTAB
  0
TABLE
  2
VIEW
 70
     4
  0
ENDTAB
  0
TABLE
  2
UCS
 70
     0
  0
ENDTAB
  0
TABLE
  2
APPID
 70
    13
  0
APPID
  2
ACAD
 70
     0
  0
APPID
  2
ACADANNOTATIVE
 70
     0
  0
APPID
  2
ACAD_PSEXT
 70
     0
  0
APPID
  2
ACADANNOPO
 70
     0
  0
APPID
  2
ACAD_DSTYLE_DIMJAG
 70
     0
  0
APPID
  2
ACAD_DSTYLE_DIMTALN
 70
     0
  0
APPID
  2
ACAD_MLEADERVER
 70
     0
  0
APPID
  2
ACAD_NAV_VCDISPLAY
 70
     0
  0
APPID
  2
ACAD_EXEMPT_FROM_CAD_STANDARDS
 70
     0
  0
APPID
  2
ACAECLAYERSTANDARD
 70
     0
  0
APPID
  2
ACCMTRANSPARENCY
 70
     0
  0
APPID
  2
GRADIENTCOLOR1ACI
 70
     0
  0
APPID
  2
GRADIENTCOLOR2ACI
 70
     0
  0
ENDTAB
  0
TABLE
  2
DIMSTYLE
 70
     3
  0
DIMSTYLE
  2
STANDARD
 70
     0
  3

  4

  5

  6

  7

 40
1.0
 41
0.18
 42
0.0625
 43
0.38
 44
0.18
 45
0.0
 46
0.0
 47
0.0
 48
0.0
140
0.18
141
0.09
142
0.0
143
25.3999999999999986
144
1.0
145
0.0
146
1.0
147
0.09
 71
     0
 72
     0
 73
     1
 74
     1
 75
     0
 76
     0
 77
     0
 78
     0
170
     0
171
     2
172
     0
173
     0
174
     0
175
     0
176
     0
177
     0
178
     0
  0
DIMSTYLE
  2
ANNOTATIVE
 70
     0
  3

  4

  5

  6

  7

 40
0.0
 41
2.5
 42
0.625
 43
3.75
 44
1.25
 45
0.0
 46
0.0
 47
0.0
 48
0.0
140
2.5
141
2.5
142
0.0
143
0.03937007874016
144
1.0
145
0.0
146
1.0
147
0.625
 71
     0
 72
     0
 73
     0
 74
     0
 75
     0
 76
     0
 77
     1
 78
     8
170
     0
171
     3
172
     1
173
     0
174
     0
175
     0
176
     0
177
     0
178
     0
  0
DIMSTYLE
  2
ISO-25
 70
     0
  3

  4

  5

  6

  7

 40
1.0
 41
2.5
 42
0.625
 43
3.75
 44
1.25
 45
0.0
 46
0.0
 47
0.0
 48
0.0
140
2.5
141
2.5
142
0.0
143
0.03937007874016
144
1.0
145
0.0
146
1.0
147
0.625
 71
     0
 72
     0
 73
     0
 74
     0
 75
     0
 76
     0
 77
     1
 78
     8
170
     0
171
     3
172
     1
173
     0
174
     0
175
     0
176
     0
177
     0
178
     0
  0
ENDTAB
  0
ENDSEC
  0
SECTION
  2
BLOCKS
  0
BLOCK
  8
0
  2
$MODEL_SPACE
 70
     0
 10
0.0
 20
0.0
 30
0.0
  3
$MODEL_SPACE
  1

  0
ENDBLK
  5
2ED9
  8
0
  0
BLOCK
 67
     1
  8
0
  2
$PAPER_SPACE
 70
     0
 10
0.0
 20
0.0
 30
0.0
  3
$PAPER_SPACE
  1

  0
ENDBLK
  5
2ED5
 67
     1
  8
0
  0
ENDSEC
  0
SECTION
  2
ENTITIES
  0
POLYLINE
  5
2EF9
  8
LAYER1
 66
     1
 10
0.0
 20
0.0
 30
0.0
 70
     1
  0
VERTEX
  5
30E5
  8
LAYER1
 10
-0.0785292719583595
 20
1.4375869178113581
 30
0.0
  0
VERTEX
  5
30E6
  8
LAYER1
 10
1.031717311507236
 20
1.4375869178113581
 30
0.0
  0
VERTEX
  5
30E7
  8
LAYER1
 10
1.031717311507236
 20
1.347593423081207
 30
0.0
  0
VERTEX
  5
30E8
  8
LAYER1
 10
-0.0785292719583595
 20
1.347593423081207
 30
0.0
  0
SEQEND
  5
30E9
  8
LAYER1
  0
POLYLINE
  5
2EFA
  8
LAYER1
 66
     1
 10
0.0
 20
0.0
 30
0.0
 70
     1
  0
VERTEX
  5
30EA
  8
LAYER1
 10
1.166748129996904
 20
1.126358606723215
 30
0.0
  0
VERTEX
  5
30EB
  8
LAYER1
 10
1.324282307595694
 20
1.126358606723215
 30
0.0
  0
VERTEX
  5
30EC
  8
LAYER1
 10
1.324282307595694
 20
0.3051639249122218
 30
0.0
  0
VERTEX
  5
30ED
  8
LAYER1
 10
1.166748129996904
 20
0.3051639249122218
 30
0.0
  0
SEQEND
  5
30EE
  8
LAYER1
  0
POLYLINE
  5
2EFB
  8
LAYER1
 66
     1
 10
0.0
 20
0.0
 30
0.0
 70
     1
  0
VERTEX
  5
30EF
  8
LAYER1
 10
-0.0972829598690623
 20
1.0888605087726539
 30
0.0
  0
VERTEX
  5
30F0
  8
LAYER1
 10
0.4165806188855186
 20
1.0626124061429889
 30
0.0
  0
VERTEX
  5
30F1
  8
LAYER1
 10
0.5891201461756737
 20
0.6538903339509261
 30
0.0
  0
VERTEX
  5
30F2
  8
LAYER1
 10
-0.052272242712661
 20
0.3389114854360287
 30
0.0
  0
VERTEX
  5
30F3
  8
LAYER1
 10
-0.3598412555131745
 20
0.9163721687268662
 30
0.0
  0
VERTEX
  5
30F4
  8
LAYER1
 10
-0.0972829598690623
 20
1.0888605087726539
 30
0.0
  0
SEQEND
  5
30F5
  8
LAYER1
  0
POLYLINE
  5
2FDB
  8
LAYER1
 66
     1
 10
0.0
 20
0.0
 30
0.0
 70
     1
  0
VERTEX
  5
30F6
  8
LAYER1
 10
-0.1197877951017325
 20
2.15378872881687
 30
0.0
  0
VERTEX
  5
30F7
  8
LAYER1
 10
0.0114913424863907
 20
2.2887796085465868
 30
0.0
  0
VERTEX
  5
30F8
  8
LAYER1
 10
0.3378137668519301
 20
2.2550318886141572
 30
0.0
  0
VERTEX
  5
30F9
  8
LAYER1
 10
0.4653420652305265
 20
1.981300404906903
 30
0.0
  0
VERTEX
  5
30FA
  8
LAYER1
 10
0.1352688016554566
 20
1.715068405289768
 30
0.0
  0
VERTEX
  5
30FB
  8
LAYER1
 10
-0.3973493879918628
 20
1.730067397199659
 30
0.0
  0
VERTEX
  5
30FC
  8
LAYER1
 10
-0.6261501689686959
 20
1.9175547130195181
 30
0.0
  0
VERTEX
  5
30FD
  8
LAYER1
 10
-0.4011002272013898
 20
2.0150481129745059
 30
0.0
  0
VERTEX
  5
30FE
  8
LAYER1
 10
-0.0485219674933788
 20
1.9250542089744631
 30
0.0
  0
VERTEX
  5
30FF
  8
LAYER1
 10
0.1540229781409828
 20
2.0337968528618702
 30
0.0
  0
VERTEX
  5
3100
  8
LAYER1
 10
0.0302454994098049
 20
2.1612882247718161
 30
0.0
  0
VERTEX
  5
3101
  8
LAYER1
 10
-0.1197877951017325
 20
2.15378872881687
 30
0.0
  0
SEQEND
  5
3102
  8
LAYER1
  0
POLYLINE
  8
TEST
  5
3103
  66
     1
 10
0.00000
 20
0.00000
 30
0.00000
  70
     8
  0
VERTEX
  8
TEST
  5
3104
 10
0.865229
 20
3.04499
 30
0.00000
  70
    32
  0
VERTEX
  8
TEST
  5
3105
 10
0.869551
 20
3.03659
 30
0.00000
  70
    32
  0
VERTEX
  8
TEST
  5
3106
 10
0.874907
 20
3.02860
 30
0.00000
  70
    32
  0
VERTEX
  8
TEST
  5
3107
 10
0.881229
 20
3.02103
 30
0.00000
  70
    32
  0
VERTEX
  8
TEST
  5
3108
 10
0.888451
 20
3.01389
 30
0.00000
  70
    32
  0
VERTEX
  8
TEST
  5
3109
 10
0.896506
 20
3.00719
 30
0.00000
  70
    32
  0
VERTEX
  8
TEST
  5
310A
 10
0.905327
 20
3.00092
 30
0.00000
  70
    32
  0
VERTEX
  8
TEST
  5
310B
 10
0.914847
 20
2.99510
 30
0.00000
  70
    32
  0
VERTEX
  8
TEST
  5
310C
 10
0.925000
 20
2.98973
 30
0.00000
  70
    32
  0
VERTEX
  8
TEST
  5
310D
 10
0.935718
 20
2.98481
 30
0.00000
  70
    32
  0
VERTEX
  8
TEST
  5
310E
 10
0.946935
 20
2.98036
 30
0.00000
  70
    32
  0
VERTEX
  8
TEST
  5
310F
 10
0.958583
 20
2.97637
 30
0.00000
  70
    32
  0
VERTEX
  8
TEST
  5
3110
 10
0.970596
 20
2.97285
 30
0.00000
  70
    32
  0
VERTEX
  8
TEST
  5
3111
 10
0.982906
 20
2.96982
 30
0.00000
  70
    32
  0
VERTEX
  8
TEST
  5
3112
 10
0.995448
 20
2.96726
 30
0.00000
  70
    32
  0
VERTEX
  8
TEST
  5
3113
 10
1.00815
 20
2.96520
 30
0.00000
  70
    32
  0
VERTEX
  8
TEST
  5
3114
 10
1.02096
 20
2.96363
 30
0.00000
  70
    32
  0
VERTEX
  8
TEST
  5
3115
 10
1.03379
 20
2.96256
 30
0.00000
  70
    32
  0
VERTEX
  8
TEST
  5
3116
 10
1.04659
 20
2.96200
 30
0.00000
  70
    32
  0
VERTEX
  8
TEST
  5
3117
 10
1.05928
 20
2.96195
 30
0.00000
  70
    32
  0
VERTEX
  8
TEST
  5
3118
 10
1.07180
 20
2.96241
 30
0.00000
  70
    32
  0
VERTEX
  8
TEST
  5
3119
 10
1.08409
 20
2.96340
 30
0.00000
  70
    32
  0
VERTEX
  8
TEST
  5
311A
 10
1.09607
 20
2.96492
 30
0.00000
  70
    32
  0
VERTEX
  8
TEST
  5
311B
 10
1.10768
 20
2.96697
 30
0.00000
  70
    32
  0
VERTEX
  8
TEST
  5
311C
 10
1.11885
 20
2.96956
 30
0.00000
  70
    32
  0
VERTEX
  8
TEST
  5
311D
 10
1.12952
 20
2.97269
 30
0.00000
  70
    32
  0
VERTEX
  8
TEST
  5
311E
 10
1.13961
 20
2.97638
 30
0.00000
  70
    32
  0
VERTEX
  8
TEST
  5
311F
 10
1.14907
 20
2.98062
 30
0.00000
  70
    32
  0
VERTEX
  8
TEST
  5
3120
 10
1.15785
 20
2.98542
 30
0.00000
  70
    32
  0
VERTEX
  8
TEST
  5
3121
 10
1.16599
 20
2.99074
 30
0.00000
  70
    32
  0
VERTEX
  8
TEST
  5
3122
 10
1.17351
 20
2.99659
 30
0.00000
  70
    32
  0
VERTEX
  8
TEST
  5
3123
 10
1.18043
 20
3.00293
 30
0.00000
  70
    32
  0
VERTEX
  8
TEST
  5
3124
 10
1.18678
 20
3.00975
 30
0.00000
  70
    32
  0
VERTEX
  8
TEST
  5
3125
 10
1.19260
 20
3.01702
 30
0.00000
  70
    32
  0
VERTEX
  8
TEST
  5
3126
 10
1.19790
 20
3.02473
 30
0.00000
  70
    32
  0
VERTEX
  8
TEST
  5
3127
 10
1.20271
 20
3.03286
 30
0.00000
  70
    32
  0
VERTEX
  8
TEST
  5
3128
 10
1.20707
 20
3.04139
 30
0.00000
  70
    32
  0
VERTEX
  8
TEST
  5
3129
 10
1.21099
 20
3.05030
 30
0.00000
  70
    32
  0
VERTEX
  8
TEST
  5
312A
 10
1.21450
 20
3.05958
 30
0.00000
  70
    32
  0
VERTEX
  8
TEST
  5
312B
 10
1.21764
 20
3.06919
 30
0.00000
  70
    32
  0
VERTEX
  8
TEST
  5
312C
 10
1.22042
 20
3.07912
 30
0.00000
  70
    32
  0
VERTEX
  8
TEST
  5
312D
 10
1.22288
 20
3.08936
 30
0.00000
  70
    32
  0
VERTEX
  8
TEST
  5
312E
 10
1.22504
 20
3.09989
 30
0.00000
  70
    32
  0
VERTEX
  8
TEST
  5
312F
 10
1.22693
 20
3.11067
 30
0.00000
  70
    32
  0
VERTEX
  8
TEST
  5
3130
 10
1.22858
 20
3.12171
 30
0.00000
  70
    32
  0
VERTEX
  8
TEST
  5
3131
 10
1.23001
 20
3.13297
 30
0.00000
  70
    32
  0
VERTEX
  8
TEST
  5
3132
 10
1.23125
 20
3.14443
 30
0.00000
  70
    32
  0
VERTEX
  8
TEST
  5
3133
 10
1.23232
 20
3.15609
 30
0.00000
  70
    32
  0
VERTEX
  8
TEST
  5
3134
 10
1.23326
 20
3.16791
 30
0.00000
  70
    32
  0
VERTEX
  8
TEST
  5
3135
 10
1.23409
 20
3.17988
 30
0.00000
  70
    32
  0
VERTEX
  8
TEST
  5
3136
 10
1.23484
 20
3.19198
 30
0.00000
  70
    32
  0
VERTEX
  8
TEST
  5
3137
 10
1.23553
 20
3.20419
 30
0.00000
  70
    32
  0
VERTEX
  8
TEST
  5
3138
 10
1.23619
 20
3.21649
 30
0.00000
  70
    32
  0
VERTEX
  8
TEST
  5
3139
 10
1.23686
 20
3.22887
 30
0.00000
  70
    32
  0
VERTEX
  8
TEST
  5
313A
 10
1.23754
 20
3.24129
 30
0.00000
  70
    32
  0
VERTEX
  8
TEST
  5
313B
 10
1.23828
 20
3.25375
 30
0.00000
  70
    32
  0
VERTEX
  8
TEST
  5
313C
 10
1.23910
 20
3.26623
 30
0.00000
  70
    32
  0
VERTEX
  8
TEST
  5
313D
 10
1.24003
 20
3.27870
 30
0.00000
  70
    32
  0
VERTEX
  8
TEST
  5
313E
 10
1.24109
 20
3.29114
 30
0.00000
  70
    32
  0
VERTEX
  8
TEST
  5
313F
 10
1.24231
 20
3.30354
 30
0.00000
  70
    32
  0
VERTEX
  8
TEST
  5
3140
 10
1.24371
 20
3.31588
 30
0.00000
  70
    32
  0
VERTEX
  8
TEST
  5
3141
 10
1.24533
 20
3.32813
 30
0.00000
  70
    32
  0
VERTEX
  8
TEST
  5
3142
 10
1.24719
 20
3.34029
 30
0.00000
  70
    32
  0
VERTEX
  8
TEST
  5
3143
 10
1.24932
 20
3.35232
 30
0.00000
  70
    32
  0
VERTEX
  8
TEST
  5
3144
 10
1.25175
 20
3.36421
 30
0.00000
  70
    32
  0
VERTEX
  8
TEST
  5
3145
 10
1.25449
 20
3.37595
 30
0.00000
  70
    32
  0
VERTEX
  8
TEST
  5
3146
 10
1.25759
 20
3.38750
 30
0.00000
  70
    32
  0
VERTEX
  8
TEST
  5
3147
 10
1.26106
 20
3.39886
 30
0.00000
  70
    32
  0
VERTEX
  8
TEST
  5
3148
 10
1.26493
 20
3.41000
 30
0.00000
  70
    32
  0
VERTEX
  8
TEST
  5
3149
 10
1.26922
 20
3.42090
 30
0.00000
  70
    32
  0
VERTEX
  8
TEST
  5
314A
 10
1.27393
 20
3.43157
 30
0.00000
  70
    32
  0
VERTEX
  8
TEST
  5
314B
 10
1.27904
 20
3.44199
 30
0.00000
  70
    32
  0
VERTEX
  8
TEST
  5
314C
 10
1.28454
 20
3.45217
 30
0.00000
  70
    32
  0
VERTEX
  8
TEST
  5
314D
 10
1.29042
 20
3.46209
 30
0.00000
  70
    32
  0
VERTEX
  8
TEST
  5
314E
 10
1.29666
 20
3.47175
 30
0.00000
  70
    32
  0
VERTEX
  8
TEST
  5
314F
 10
1.30325
 20
3.48115
 30
0.00000
  70
    32
  0
VERTEX
  8
TEST
  5
3150
 10
1.31019
 20
3.49028
 30
0.00000
  70
    32
  0
VERTEX
  8
TEST
  5
3151
 10
1.31745
 20
3.49915
 30
0.00000
  70
    32
  0
VERTEX
  8
TEST
  5
3152
 10
1.32503
 20
3.50773
 30
0.00000
  70
    32
  0
VERTEX
  8
TEST
  5
3153
 10
1.33290
 20
3.51604
 30
0.00000
  70
    32
  0
VERTEX
  8
TEST
  5
3154
 10
1.34107
 20
3.52406
 30
0.00000
  70
    32
  0
VERTEX
  8
TEST
  5
3155
 10
1.34952
 20
3.53179
 30
0.00000
  70
    32
  0
VERTEX
  8
TEST
  5
3156
 10
1.35823
 20
3.53923
 30
0.00000
  70
    32
  0
VERTEX
  8
TEST
  5
3157
 10
1.36720
 20
3.54637
 30
0.00000
  70
    32
  0
VERTEX
  8
TEST
  5
3158
 10
1.37641
 20
3.55321
 30
0.00000
  70
    32
  0
VERTEX
  8
TEST
  5
3159
 10
1.38585
 20
3.55974
 30
0.00000
  70
    32
  0
VERTEX
  8
TEST
  5
315A
 10
1.39550
 20
3.56596
 30
0.00000
  70
    32
  0
VERTEX
  8
TEST
  5
315B
 10
1.40536
 20
3.57186
 30
0.00000
  70
    32
  0
VERTEX
  8
TEST
  5
315C
 10
1.41540
 20
3.57744
 30
0.00000
  70
    32
  0
VERTEX
  8
TEST
  5
315D
 10
1.42563
 20
3.58270
 30
0.00000
  70
    32
  0
VERTEX
  8
TEST
  5
315E
 10
1.43603
 20
3.58763
 30
0.00000
  70
    32
  0
VERTEX
  8
TEST
  5
315F
 10
1.44658
 20
3.59222
 30
0.00000
  70
    32
  0
VERTEX
  8
TEST
  5
3160
 10
1.45727
 20
3.59647
 30
0.00000
  70
    32
  0
VERTEX
  8
TEST
  5
3161
 10
1.46809
 20
3.60038
 30
0.00000
  70
    32
  0
VERTEX
  8
TEST
  5
3162
 10
1.47903
 20
3.60395
 30
0.00000
  70
    32
  0
VERTEX
  8
TEST
  5
3163
 10
1.49007
 20
3.60716
 30
0.00000
  70
    32
  0
VERTEX
  8
TEST
  5
3164
 10
1.50121
 20
3.61001
 30
0.00000
  70
    32
  0
VERTEX
  8
TEST
  5
3165
 10
1.51243
 20
3.61251
 30
0.00000
  70
    32
  0
VERTEX
  8
TEST
  5
3166
 10
1.52371
 20
3.61463
 30
0.00000
  70
    32
  0
VERTEX
  8
TEST
  5
3167
 10
1.53506
 20
3.61639
 30
0.00000
  70
    32
  0
VERTEX
  8
TEST
  5
3168
 10
1.54644
 20
3.61777
 30
0.00000
  70
    32
  0
VERTEX
  8
TEST
  5
3169
 10
1.55786
 20
3.61878
 30
0.00000
  70
    32
  0
VERTEX
  8
TEST
  5
316A
 10
1.56929
 20
3.61940
 30
0.00000
  70
    32
  0
VERTEX
  8
TEST
  5
316B
 10
1.58073
 20
3.61963
 30
0.00000
  70
    32
  0
VERTEX
  8
TEST
  5
316C
 10
1.59217
 20
3.61947
 30
0.00000
  70
    32
  0
VERTEX
  8
TEST
  5
316D
 10
1.60358
 20
3.61892
 30
0.00000
  70
    32
  0
VERTEX
  8
TEST
  5
316E
 10
1.61497
 20
3.61799
 30
0.00000
  70
    32
  0
VERTEX
  8
TEST
  5
316F
 10
1.62630
 20
3.61669
 30
0.00000
  70
    32
  0
VERTEX
  8
TEST
  5
3170
 10
1.63758
 20
3.61503
 30
0.00000
  70
    32
  0
VERTEX
  8
TEST
  5
3171
 10
1.64878
 20
3.61303
 30
0.00000
  70
    32
  0
VERTEX
  8
TEST
  5
3172
 10
1.65990
 20
3.61067
 30
0.00000
  70
    32
  0
VERTEX
  8
TEST
  5
3173
 10
1.67091
 20
3.60799
 30
0.00000
  70
    32
  0
VERTEX
  8
TEST
  5
3174
 10
1.68181
 20
3.60499
 30
0.00000
  70
    32
  0
VERTEX
  8
TEST
  5
3175
 10
1.69259
 20
3.60167
 30
0.00000
  70
    32
  0
VERTEX
  8
TEST
  5
3176
 10
1.70322
 20
3.59805
 30
0.00000
  70
    32
  0
VERTEX
  8
TEST
  5
3177
 10
1.71369
 20
3.59413
 30
0.00000
  70
    32
  0
VERTEX
  8
TEST
  5
3178
 10
1.72400
 20
3.58993
 30
0.00000
  70
    32
  0
VERTEX
  8
TEST
  5
3179
 10
1.73413
 20
3.58545
 30
0.00000
  70
    32
  0
VERTEX
  8
TEST
  5
317A
 10
1.74405
 20
3.58070
 30
0.00000
  70
    32
  0
VERTEX
  8
TEST
  5
317B
 10
1.75377
 20
3.57570
 30
0.00000
  70
    32
  0
VERTEX
  8
TEST
  5
317C
 10
1.76327
 20
3.57045
 30
0.00000
  70
    32
  0
VERTEX
  8
TEST
  5
317D
 10
1.77253
 20
3.56496
 30
0.00000
  70
    32
  0
VERTEX
  8
TEST
  5
317E
 10
1.78154
 20
3.55924
 30
0.00000
  70
    32
  0
VERTEX
  8
TEST
  5
317F
 10
1.79028
 20
3.55331
 30
0.00000
  70
    32
  0
VERTEX
  8
TEST
  5
3180
 10
1.79875
 20
3.54716
 30
0.00000
  70
    32
  0
VERTEX
  8
TEST
  5
3181
 10
1.80693
 20
3.54081
 30
0.00000
  70
    32
  0
VERTEX
  8
TEST
  5
3182
 10
1.81480
 20
3.53427
 30
0.00000
  70
    32
  0
VERTEX
  8
TEST
  5
3183
 10
1.82235
 20
3.52755
 30
0.00000
  70
    32
  0
VERTEX
  8
TEST
  5
3184
 10
1.82959
 20
3.52065
 30
0.00000
  70
    32
  0
VERTEX
  8
TEST
  5
3185
 10
1.83651
 20
3.51357
 30
0.00000
  70
    32
  0
VERTEX
  8
TEST
  5
3186
 10
1.84312
 20
3.50632
 30
0.00000
  70
    32
  0
VERTEX
  8
TEST
  5
3187
 10
1.84944
 20
3.49890
 30
0.00000
  70
    32
  0
VERTEX
  8
TEST
  5
3188
 10
1.85546
 20
3.49130
 30
0.00000
  70
    32
  0
VERTEX
  8
TEST
  5
3189
 10
1.86119
 20
3.48354
 30
0.00000
  70
    32
  0
VERTEX
  8
TEST
  5
318A
 10
1.86664
 20
3.47560
 30
0.00000
  70
    32
  0
VERTEX
  8
TEST
  5
318B
 10
1.87182
 20
3.46750
 30
0.00000
  70
    32
  0
VERTEX
  8
TEST
  5
318C
 10
1.87672
 20
3.45923
 30
0.00000
  70
    32
  0
VERTEX
  8
TEST
  5
318D
 10
1.88137
 20
3.45080
 30
0.00000
  70
    32
  0
VERTEX
  8
TEST
  5
318E
 10
1.88575
 20
3.44220
 30
0.00000
  70
    32
  0
VERTEX
  8
TEST
  5
318F
 10
1.88989
 20
3.43345
 30
0.00000
  70
    32
  0
VERTEX
  8
TEST
  5
3190
 10
1.89378
 20
3.42453
 30
0.00000
  70
    32
  0
VERTEX
  8
TEST
  5
3191
 10
1.89743
 20
3.41546
 30
0.00000
  70
    32
  0
VERTEX
  8
TEST
  5
3192
 10
1.90086
 20
3.40623
 30
0.00000
  70
    32
  0
VERTEX
  8
TEST
  5
3193
 10
1.90405
 20
3.39684
 30
0.00000
  70
    32
  0
VERTEX
  8
TEST
  5
3194
 10
1.90703
 20
3.38730
 30
0.00000
  70
    32
  0
VERTEX
  8
TEST
  5
3195
 10
1.90980
 20
3.37761
 30
0.00000
  70
    32
  0
VERTEX
  8
TEST
  5
3196
 10
1.91235
 20
3.36777
 30
0.00000
  70
    32
  0
VERTEX
  8
TEST
  5
3197
 10
1.91471
 20
3.35778
 30
0.00000
  70
    32
  0
VERTEX
  8
TEST
  5
3198
 10
1.91688
 20
3.34764
 30
0.00000
  70
    32
  0
VERTEX
  8
TEST
  5
3199
 10
1.91885
 20
3.33735
 30
0.00000
  70
    32
  0
VERTEX
  8
TEST
  5
319A
 10
1.92065
 20
3.32692
 30
0.00000
  70
    32
  0
VERTEX
  8
TEST
  5
319B
 10
1.92227
 20
3.31635
 30
0.00000
  70
    32
  0
VERTEX
  8
TEST
  5
319C
 10
1.92372
 20
3.30564
 30
0.00000
  70
    32
  0
VERTEX
  8
TEST
  5
319D
 10
1.92500
 20
3.29478
 30
0.00000
  70
    32
  0
VERTEX
  8
TEST
  5
319E
 10
1.92613
 20
3.28379
 30
0.00000
  70
    32
  0
VERTEX
  8
TEST
  5
319F
 10
1.92711
 20
3.27266
 30
0.00000
  70
    32
  0
VERTEX
  8
TEST
  5
31A0
 10
1.92795
 20
3.26139
 30
0.00000
  70
    32
  0
VERTEX
  8
TEST
  5
31A1
 10
1.92865
 20
3.24999
 30
0.00000
  70
    32
  0
VERTEX
  8
TEST
  5
31A2
 10
1.92921
 20
3.23846
 30
0.00000
  70
    32
  0
VERTEX
  8
TEST
  5
31A3
 10
1.92966
 20
3.22680
 30
0.00000
  70
    32
  0
VERTEX
  8
TEST
  5
31A4
 10
1.92998
 20
3.21501
 30
0.00000
  70
    32
  0
VERTEX
  8
TEST
  5
31A5
 10
1.93019
 20
3.20309
 30
0.00000
  70
    32
  0
VERTEX
  8
TEST
  5
31A6
 10
1.93029
 20
3.19104
 30
0.00000
  70
    32
  0
VERTEX
  8
TEST
  5
31A7
 10
1.93029
 20
3.17887
 30
0.00000
  70
    32
  0
VERTEX
  8
TEST
  5
31A8
 10
1.93020
 20
3.16658
 30
0.00000
  70
    32
  0
VERTEX
  8
TEST
  5
31A9
 10
1.93002
 20
3.15416
 30
0.00000
  70
    32
  0
VERTEX
  8
TEST
  5
31AA
 10
1.92976
 20
3.14162
 30
0.00000
  70
    32
  0
VERTEX
  8
TEST
  5
31AB
 10
1.92943
 20
3.12897
 30
0.00000
  70
    32
  0
VERTEX
  8
TEST
  5
31AC
 10
1.92902
 20
3.11619
 30
0.00000
  70
    32
  0
VERTEX
  8
TEST
  5
31AD
 10
1.92856
 20
3.10330
 30
0.00000
  70
    32
  0
VERTEX
  8
TEST
  5
31AE
 10
1.92803
 20
3.09030
 30
0.00000
  70
    32
  0
VERTEX
  8
TEST
  5
31AF
 10
1.92746
 20
3.07718
 30
0.00000
  70
    32
  0
VERTEX
  8
TEST
  5
31B0
 10
1.92684
 20
3.06395
 30
0.00000
  70
    32
  0
VERTEX
  8
TEST
  5
31B1
 10
1.92619
 20
3.05062
 30
0.00000
  70
    32
  0
VERTEX
  8
TEST
  5
31B2
 10
1.92550
 20
3.03717
 30
0.00000
  70
    32
  0
VERTEX
  8
TEST
  5
31B3
 10
1.92479
 20
3.02362
 30
0.00000
  70
    32
  0
VERTEX
  8
TEST
  5
31B4
 10
1.92406
 20
3.00996
 30
0.00000
  70
    32
  0
VERTEX
  8
TEST
  5
31B5
 10
1.92331
 20
2.99620
 30
0.00000
  70
    32
  0
VERTEX
  8
TEST
  5
31B6
 10
1.92256
 20
2.98234
 30
0.00000
  70
    32
  0
VERTEX
  8
TEST
  5
31B7
 10
1.92183
 20
2.96839
 30
0.00000
  70
    32
  0
VERTEX
  8
TEST
  5
31B8
 10
1.92114
 20
2.95443
 30
0.00000
  70
    32
  0
VERTEX
  8
TEST
  5
31B9
 10
1.92054
 20
2.94048
 30
0.00000
  70
    32
  0
VERTEX
  8
TEST
  5
31BA
 10
1.92006
 20
2.92662
 30
0.00000
  70
    32
  0
VERTEX
  8
TEST
  5
31BB
 10
1.91975
 20
2.91289
 30
0.00000
  70
    32
  0
VERTEX
  8
TEST
  5
31BC
 10
1.91963
 20
2.89935
 30
0.00000
  70
    32
  0
VERTEX
  8
TEST
  5
31BD
 10
1.91976
 20
2.88604
 30
0.00000
  70
    32
  0
VERTEX
  8
TEST
  5
31BE
 10
1.92015
 20
2.87303
 30
0.00000
  70
    32
  0
VERTEX
  8
TEST
  5
31BF
 10
1.92085
 20
2.86036
 30
0.00000
  70
    32
  0
VERTEX
  8
TEST
  5
31C0
 10
1.92191
 20
2.84809
 30
0.00000
  70
    32
  0
VERTEX
  8
TEST
  5
31C1
 10
1.92334
 20
2.83627
 30
0.00000
  70
    32
  0
VERTEX
  8
TEST
  5
31C2
 10
1.92520
 20
2.82495
 30
0.00000
  70
    32
  0
VERTEX
  8
TEST
  5
31C3
 10
1.92752
 20
2.81419
 30
0.00000
  70
    32
  0
VERTEX
  8
TEST
  5
31C4
 10
1.93034
 20
2.80404
 30
0.00000
  70
    32
  0
VERTEX
  8
TEST
  5
31C5
 10
1.93369
 20
2.79456
 30
0.00000
  70
    32
  0
VERTEX
  8
TEST
  5
31C6
 10
1.93761
 20
2.78579
 30
0.00000
  70
    32
  0
VERTEX
  8
TEST
  5
31C7
 10
1.94214
 20
2.77779
 30
0.00000
  70
    32
  0
VERTEX
  8
TEST
  5
31C8
 10
1.94732
 20
2.77062
 30
0.00000
  70
    32
  0
VERTEX
  8
TEST
  5
31C9
 10
1.95318
 20
2.76432
 30
0.00000
  70
    32
  0
VERTEX
  8
TEST
  5
31CA
 10
1.95976
 20
2.75894
 30
0.00000
  70
    32
  0
VERTEX
  8
TEST
  5
31CB
 10
1.96710
 20
2.75455
 30
0.00000
  70
    32
  0
VERTEX
  8
TEST
  5
31CC
 10
1.97523
 20
2.75120
 30
0.00000
  70
    32
  0
VERTEX
  8
TEST
  5
31CD
 10
1.98417
 20
2.74892
 30
0.00000
  70
    32
  0
VERTEX
  8
TEST
  5
31CE
 10
1.99382
 20
2.74766
 30
0.00000
  70
    32
  0
VERTEX
  8
TEST
  5
31CF
 10
2.00406
 20
2.74737
 30
0.00000
  70
    32
  0
VERTEX
  8
TEST
  5
31D0
 10
2.01477
 20
2.74798
 30
0.00000
  70
    32
  0
VERTEX
  8
TEST
  5
31D1
 10
2.02581
 20
2.74942
 30
0.00000
  70
    32
  0
VERTEX
  8
TEST
  5
31D2
 10
2.03707
 20
2.75164
 30
0.00000
  70
    32
  0
VERTEX
  8
TEST
  5
31D3
 10
2.04842
 20
2.75456
 30
0.00000
  70
    32
  0
VERTEX
  8
TEST
  5
31D4
 10
2.05973
 20
2.75814
 30
0.00000
  70
    32
  0
VERTEX
  8
TEST
  5
31D5
 10
2.07088
 20
2.76229
 30
0.00000
  70
    32
  0
VERTEX
  8
TEST
  5
31D6
 10
2.08174
 20
2.76695
 30
0.00000
  70
    32
  0
VERTEX
  8
TEST
  5
31D7
 10
2.09220
 20
2.77207
 30
0.00000
  70
    32
  0
VERTEX
  8
TEST
  5
31D8
 10
2.10213
 20
2.77758
 30
0.00000
  70
    32
  0
VERTEX
  8
TEST
  5
31D9
 10
2.11151
 20
2.78347
 30
0.00000
  70
    32
  0
VERTEX
  8
TEST
  5
31DA
 10
2.12036
 20
2.78971
 30
0.00000
  70
    32
  0
VERTEX
  8
TEST
  5
31DB
 10
2.12868
 20
2.79630
 30
0.00000
  70
    32
  0
VERTEX
  8
TEST
  5
31DC
 10
2.13649
 20
2.80323
 30
0.00000
  70
    32
  0
VERTEX
  8
TEST
  5
31DD
 10
2.14380
 20
2.81049
 30
0.00000
  70
    32
  0
VERTEX
  8
TEST
  5
31DE
 10
2.15062
 20
2.81807
 30
0.00000
  70
    32
  0
VERTEX
  8
TEST
  5
31DF
 10
2.15696
 20
2.82597
 30
0.00000
  70
    32
  0
VERTEX
  8
TEST
  5
31E0
 10
2.16283
 20
2.83416
 30
0.00000
  70
    32
  0
VERTEX
  8
TEST
  5
31E1
 10
2.16825
 20
2.84265
 30
0.00000
  70
    32
  0
VERTEX
  8
TEST
  5
31E2
 10
2.17322
 20
2.85142
 30
0.00000
  70
    32
  0
VERTEX
  8
TEST
  5
31E3
 10
2.17777
 20
2.86046
 30
0.00000
  70
    32
  0
VERTEX
  8
TEST
  5
31E4
 10
2.18189
 20
2.86977
 30
0.00000
  70
    32
  0
VERTEX
  8
TEST
  5
31E5
 10
2.18561
 20
2.87933
 30
0.00000
  70
    32
  0
VERTEX
  8
TEST
  5
31E6
 10
2.18892
 20
2.88913
 30
0.00000
  70
    32
  0
VERTEX
  8
TEST
  5
31E7
 10
2.19186
 20
2.89917
 30
0.00000
  70
    32
  0
VERTEX
  8
TEST
  5
31E8
 10
2.19442
 20
2.90943
 30
0.00000
  70
    32
  0
VERTEX
  8
TEST
  5
31E9
 10
2.19662
 20
2.91991
 30
0.00000
  70
    32
  0
VERTEX
  8
TEST
  5
31EA
 10
2.19847
 20
2.93059
 30
0.00000
  70
    32
  0
VERTEX
  8
TEST
  5
31EB
 10
2.19998
 20
2.94147
 30
0.00000
  70
    32
  0
VERTEX
  8
TEST
  5
31EC
 10
2.20116
 20
2.95253
 30
0.00000
  70
    32
  0
VERTEX
  8
TEST
  5
31ED
 10
2.20203
 20
2.96378
 30
0.00000
  70
    32
  0
VERTEX
  8
TEST
  5
31EE
 10
2.20259
 20
2.97518
 30
0.00000
  70
    32
  0
VERTEX
  8
TEST
  5
31EF
 10
2.20287
 20
2.98675
 30
0.00000
  70
    32
  0
VERTEX
  8
TEST
  5
31F0
 10
2.20286
 20
2.99846
 30
0.00000
  70
    32
  0
VERTEX
  8
TEST
  5
31F1
 10
2.20258
 20
3.01031
 30
0.00000
  70
    32
  0
VERTEX
  8
TEST
  5
31F2
 10
2.20205
 20
3.02229
 30
0.00000
  70
    32
  0
VERTEX
  8
TEST
  5
31F3
 10
2.20127
 20
3.03439
 30
0.00000
  70
    32
  0
VERTEX
  8
TEST
  5
31F4
 10
2.20026
 20
3.04660
 30
0.00000
  70
    32
  0
VERTEX
  8
TEST
  5
31F5
 10
2.19903
 20
3.05890
 30
0.00000
  70
    32
  0
VERTEX
  8
TEST
  5
31F6
 10
2.19759
 20
3.07130
 30
0.00000
  70
    32
  0
VERTEX
  8
TEST
  5
31F7
 10
2.19594
 20
3.08377
 30
0.00000
  70
    32
  0
VERTEX
  8
TEST
  5
31F8
 10
2.19412
 20
3.09632
 30
0.00000
  70
    32
  0
VERTEX
  8
TEST
  5
31F9
 10
2.19211
 20
3.10893
 30
0.00000
  70
    32
  0
VERTEX
  8
TEST
  5
31FA
 10
2.18994
 20
3.12159
 30
0.00000
  70
    32
  0
VERTEX
  8
TEST
  5
31FB
 10
2.18762
 20
3.13429
 30
0.00000
  70
    32
  0
VERTEX
  8
TEST
  5
31FC
 10
2.18516
 20
3.14702
 30
0.00000
  70
    32
  0
VERTEX
  8
TEST
  5
31FD
 10
2.18257
 20
3.15978
 30
0.00000
  70
    32
  0
VERTEX
  8
TEST
  5
31FE
 10
2.17987
 20
3.17255
 30
0.00000
  70
    32
  0
VERTEX
  8
TEST
  5
31FF
 10
2.17706
 20
3.18532
 30
0.00000
  70
    32
  0
VERTEX
  8
TEST
  5
3200
 10
2.17415
 20
3.19808
 30
0.00000
  70
    32
  0
VERTEX
  8
TEST
  5
3201
 10
2.17116
 20
3.21083
 30
0.00000
  70
    32
  0
VERTEX
  8
TEST
  5
3202
 10
2.16810
 20
3.22356
 30
0.00000
  70
    32
  0
VERTEX
  8
TEST
  5
3203
 10
2.16499
 20
3.23624
 30
0.00000
  70
    32
  0
VERTEX
  8
TEST
  5
3204
 10
2.16182
 20
3.24889
 30
0.00000
  70
    32
  0
VERTEX
  8
TEST
  5
3205
 10
2.15862
 20
3.26148
 30
0.00000
  70
    32
  0
VERTEX
  8
TEST
  5
3206
 10
2.15540
 20
3.27400
 30
0.00000
  70
    32
  0
VERTEX
  8
TEST
  5
3207
 10
2.15216
 20
3.28645
 30
0.00000
  70
    32
  0
VERTEX
  8
TEST
  5
3208
 10
2.14892
 20
3.29882
 30
0.00000
  70
    32
  0
VERTEX
  8
TEST
  5
3209
 10
2.14569
 20
3.31110
 30
0.00000
  70
    32
  0
VERTEX
  8
TEST
  5
320A
 10
2.14247
 20
3.32330
 30
0.00000
  70
    32
  0
VERTEX
  8
TEST
  5
320B
 10
2.13925
 20
3.33541
 30
0.00000
  70
    32
  0
VERTEX
  8
TEST
  5
320C
 10
2.13604
 20
3.34744
 30
0.00000
  70
    32
  0
VERTEX
  8
TEST
  5
320D
 10
2.13285
 20
3.35939
 30
0.00000
  70
    32
  0
VERTEX
  8
TEST
  5
320E
 10
2.12967
 20
3.37127
 30
0.00000
  70
    32
  0
VERTEX
  8
TEST
  5
320F
 10
2.12650
 20
3.38306
 30
0.00000
  70
    32
  0
VERTEX
  8
TEST
  5
3210
 10
2.12336
 20
3.39478
 30
0.00000
  70
    32
  0
VERTEX
  8
TEST
  5
3211
 10
2.12023
 20
3.40642
 30
0.00000
  70
    32
  0
VERTEX
  8
TEST
  5
3212
 10
2.11713
 20
3.41799
 30
0.00000
  70
    32
  0
VERTEX
  8
TEST
  5
3213
 10
2.11405
 20
3.42948
 30
0.00000
  70
    32
  0
VERTEX
  8
TEST
  5
3214
 10
2.11100
 20
3.44091
 30
0.00000
  70
    32
  0
VERTEX
  8
TEST
  5
3215
 10
2.10797
 20
3.45226
 30
0.00000
  70
    32
  0
VERTEX
  8
TEST
  5
3216
 10
2.10498
 20
3.46354
 30
0.00000
  70
    32
  0
VERTEX
  8
TEST
  5
3217
 10
2.10202
 20
3.47476
 30
0.00000
  70
    32
  0
VERTEX
  8
TEST
  5
3218
 10
2.09909
 20
3.48591
 30
0.00000
  70
    32
  0
VERTEX
  8
TEST
  5
3219
 10
2.09620
 20
3.49699
 30
0.00000
  70
    32
  0
VERTEX
  8
TEST
  5
321A
 10
2.09334
 20
3.50801
 30
0.00000
  70
    32
  0
VERTEX
  8
TEST
  5
321B
 10
2.09053
 20
3.51897
 30
0.00000
  70
    32
  0
VERTEX
  8
TEST
  5
321C
 10
2.08776
 20
3.52987
 30
0.00000
  70
    32
  0
VERTEX
  8
TEST
  5
321D
 10
2.08503
 20
3.54071
 30
0.00000
  70
    32
  0
VERTEX
  8
TEST
  5
321E
 10
2.08235
 20
3.55148
 30
0.00000
  70
    32
  0
VERTEX
  8
TEST
  5
321F
 10
2.07972
 20
3.56221
 30
0.00000
  70
    32
  0
VERTEX
  8
TEST
  5
3220
 10
2.07713
 20
3.57287
 30
0.00000
  70
    32
  0
VERTEX
  8
TEST
  5
3221
 10
2.07460
 20
3.58348
 30
0.00000
  70
    32
  0
VERTEX
  8
TEST
  5
3222
 10
2.07212
 20
3.59404
 30
0.00000
  70
    32
  0
VERTEX
  8
TEST
  5
3223
 10
2.06970
 20
3.60454
 30
0.00000
  70
    32
  0
VERTEX
  8
TEST
  5
3224
 10
2.06733
 20
3.61500
 30
0.00000
  70
    32
  0
VERTEX
  8
TEST
  5
3225
 10
2.06503
 20
3.62540
 30
0.00000
  70
    32
  0
VERTEX
  8
TEST
  5
3226
 10
2.06278
 20
3.63576
 30
0.00000
  70
    32
  0
VERTEX
  8
TEST
  5
3227
 10
2.06060
 20
3.64607
 30
0.00000
  70
    32
  0
VERTEX
  8
TEST
  5
3228
 10
2.05849
 20
3.65633
 30
0.00000
  70
    32
  0
VERTEX
  8
TEST
  5
3229
 10
2.05644
 20
3.66655
 30
0.00000
  70
    32
  0
VERTEX
  8
TEST
  5
322A
 10
2.05446
 20
3.67673
 30
0.00000
  70
    32
  0
VERTEX
  8
TEST
  5
322B
 10
2.05256
 20
3.68686
 30
0.00000
  70
    32
  0
VERTEX
  8
TEST
  5
322C
 10
2.05073
 20
3.69695
 30
0.00000
  70
    32
  0
VERTEX
  8
TEST
  5
322D
 10
2.04897
 20
3.70701
 30
0.00000
  70
    32
  0
VERTEX
  8
TEST
  5
322E
 10
2.04729
 20
3.71702
 30
0.00000
  70
    32
  0
VERTEX
  8
TEST
  5
322F
 10
2.04569
 20
3.72700
 30
0.00000
  70
    32
  0
VERTEX
  8
TEST
  5
3230
 10
2.04417
 20
3.73695
 30
0.00000
  70
    32
  0
VERTEX
  8
TEST
  5
3231
 10
2.04273
 20
3.74686
 30
0.00000
  70
    32
  0
VERTEX
  8
TEST
  5
3232
 10
2.04138
 20
3.75674
 30
0.00000
  70
    32
  0
VERTEX
  8
TEST
  5
3233
 10
2.04012
 20
3.76659
 30
0.00000
  70
    32
  0
VERTEX
  8
TEST
  5
3234
 10
2.03895
 20
3.77640
 30
0.00000
  70
    32
  0
VERTEX
  8
TEST
  5
3235
 10
2.03786
 20
3.78619
 30
0.00000
  70
    32
  0
VERTEX
  8
TEST
  5
3236
 10
2.03687
 20
3.79595
 30
0.00000
  70
    32
  0
VERTEX
  8
TEST
  5
3237
 10
2.03598
 20
3.80568
 30
0.00000
  70
    32
  0
VERTEX
  8
TEST
  5
3238
 10
2.03518
 20
3.81539
 30
0.00000
  70
    32
  0
VERTEX
  8
TEST
  5
3239
 10
2.03448
 20
3.82508
 30
0.00000
  70
    32
  0
VERTEX
  8
TEST
  5
323A
 10
2.03389
 20
3.83474
 30
0.00000
  70
    32
  0
VERTEX
  8
TEST
  5
323B
 10
2.03339
 20
3.84438
 30
0.00000
  70
    32
  0
VERTEX
  8
TEST
  5
323C
 10
2.03300
 20
3.85400
 30
0.00000
  70
    32
  0
VERTEX
  8
TEST
  5
323D
 10
2.03272
 20
3.86361
 30
0.00000
  70
    32
  0
VERTEX
  8
TEST
  5
323E
 10
2.03254
 20
3.87320
 30
0.00000
  70
    32
  0
VERTEX
  8
TEST
  5
323F
 10
2.03248
 20
3.88277
 30
0.00000
  70
    32
  0
VERTEX
  8
TEST
  5
3240
 10
2.03253
 20
3.89232
 30
0.00000
  70
    32
  0
VERTEX
  8
TEST
  5
3241
 10
2.03269
 20
3.90186
 30
0.00000
  70
    32
  0
VERTEX
  8
TEST
  5
3242
 10
2.03297
 20
3.91140
 30
0.00000
  70
    32
  0
VERTEX
  8
TEST
  5
3243
 10
2.03335
 20
3.92092
 30
0.00000
  70
    32
  0
VERTEX
  8
TEST
  5
3244
 10
2.03384
 20
3.93044
 30
0.00000
  70
    32
  0
VERTEX
  8
TEST
  5
3245
 10
2.03441
 20
3.93995
 30
0.00000
  70
    32
  0
VERTEX
  8
TEST
  5
3246
 10
2.03508
 20
3.94947
 30
0.00000
  70
    32
  0
VERTEX
  8
TEST
  5
3247
 10
2.03583
 20
3.95898
 30
0.00000
  70
    32
  0
VERTEX
  8
TEST
  5
3248
 10
2.03666
 20
3.96851
 30
0.00000
  70
    32
  0
VERTEX
  8
TEST
  5
3249
 10
2.03755
 20
3.97804
 30
0.00000
  70
    32
  0
VERTEX
  8
TEST
  5
324A
 10
2.03852
 20
3.98758
 30
0.00000
  70
    32
  0
VERTEX
  8
TEST
  5
324B
 10
2.03954
 20
3.99713
 30
0.00000
  70
    32
  0
VERTEX
  8
TEST
  5
324C
 10
2.04062
 20
4.00670
 30
0.00000
  70
    32
  0
VERTEX
  8
TEST
  5
324D
 10
2.04175
 20
4.01629
 30
0.00000
  70
    32
  0
VERTEX
  8
TEST
  5
324E
 10
2.04292
 20
4.02590
 30
0.00000
  70
    32
  0
VERTEX
  8
TEST
  5
324F
 10
2.04413
 20
4.03554
 30
0.00000
  70
    32
  0
VERTEX
  8
TEST
  5
3250
 10
2.04537
 20
4.04520
 30
0.00000
  70
    32
  0
VERTEX
  8
TEST
  5
3251
 10
2.04664
 20
4.05489
 30
0.00000
  70
    32
  0
VERTEX
  8
TEST
  5
3252
 10
2.04793
 20
4.06461
 30
0.00000
  70
    32
  0
VERTEX
  8
TEST
  5
3253
 10
2.04923
 20
4.07437
 30
0.00000
  70
    32
  0
VERTEX
  8
TEST
  5
3254
 10
2.05054
 20
4.08417
 30
0.00000
  70
    32
  0
VERTEX
  8
TEST
  5
3255
 10
2.05185
 20
4.09400
 30
0.00000
  70
    32
  0
VERTEX
  8
TEST
  5
3256
 10
2.05316
 20
4.10388
 30
0.00000
  70
    32
  0
VERTEX
  8
TEST
  5
3257
 10
2.05446
 20
4.11381
 30
0.00000
  70
    32
  0
VERTEX
  8
TEST
  5
3258
 10
2.05575
 20
4.12378
 30
0.00000
  70
    32
  0
VERTEX
  8
TEST
  5
3259
 10
2.05701
 20
4.13381
 30
0.00000
  70
    32
  0
VERTEX
  8
TEST
  5
325A
 10
2.05825
 20
4.14389
 30
0.00000
  70
    32
  0
VERTEX
  8
TEST
  5
325B
 10
2.05946
 20
4.15403
 30
0.00000
  70
    32
  0
VERTEX
  8
TEST
  5
325C
 10
2.06063
 20
4.16422
 30
0.00000
  70
    32
  0
VERTEX
  8
TEST
  5
325D
 10
2.06176
 20
4.17448
 30
0.00000
  70
    32
  0
VERTEX
  8
TEST
  5
325E
 10
2.06284
 20
4.18481
 30
0.00000
  70
    32
  0
VERTEX
  8
TEST
  5
325F
 10
2.06387
 20
4.19520
 30
0.00000
  70
    32
  0
VERTEX
  8
TEST
  5
3260
 10
2.06483
 20
4.20566
 30
0.00000
  70
    32
  0
VERTEX
  8
TEST
  5
3261
 10
2.06573
 20
4.21619
 30
0.00000
  70
    32
  0
VERTEX
  8
TEST
  5
3262
 10
2.06656
 20
4.22681
 30
0.00000
  70
    32
  0
VERTEX
  8
TEST
  5
3263
 10
2.06731
 20
4.23749
 30
0.00000
  70
    32
  0
VERTEX
  8
TEST
  5
3264
 10
2.06797
 20
4.24826
 30
0.00000
  70
    32
  0
VERTEX
  8
TEST
  5
3265
 10
2.06855
 20
4.25912
 30
0.00000
  70
    32
  0
VERTEX
  8
TEST
  5
3266
 10
2.06903
 20
4.27006
 30
0.00000
  70
    32
  0
VERTEX
  8
TEST
  5
3267
 10
2.06942
 20
4.28109
 30
0.00000
  70
    32
  0
VERTEX
  8
TEST
  5
3268
 10
2.06969
 20
4.29221
 30
0.00000
  70
    32
  0
VERTEX
  8
TEST
  5
3269
 10
2.06986
 20
4.30343
 30
0.00000
  70
    32
  0
VERTEX
  8
TEST
  5
326A
 10
2.06990
 20
4.31475
 30
0.00000
  70
    32
  0
VERTEX
  8
TEST
  5
326B
 10
2.06983
 20
4.32616
 30
0.00000
  70
    32
  0
VERTEX
  8
TEST
  5
326C
 10
2.06962
 20
4.33768
 30
0.00000
  70
    32
  0
VERTEX
  8
TEST
  5
326D
 10
2.06928
 20
4.34930
 30
0.00000
  70
    32
  0
VERTEX
  8
TEST
  5
326E
 10
2.06880
 20
4.36104
 30
0.00000
  70
    32
  0
VERTEX
  8
TEST
  5
326F
 10
2.06817
 20
4.37288
 30
0.00000
  70
    32
  0
VERTEX
  8
TEST
  5
3270
 10
2.06739
 20
4.38484
 30
0.00000
  70
    32
  0
VERTEX
  8
TEST
  5
3271
 10
2.06645
 20
4.39691
 30
0.00000
  70
    32
  0
VERTEX
  8
TEST
  5
3272
 10
2.06535
 20
4.40910
 30
0.00000
  70
    32
  0
VERTEX
  8
TEST
  5
3273
 10
2.06407
 20
4.42142
 30
0.00000
  70
    32
  0
VERTEX
  8
TEST
  5
3274
 10
2.06263
 20
4.43386
 30
0.00000
  70
    32
  0
VERTEX
  8
TEST
  5
3275
 10
2.06100
 20
4.44642
 30
0.00000
  70
    32
  0
VERTEX
  8
TEST
  5
3276
 10
2.05919
 20
4.45912
 30
0.00000
  70
    32
  0
VERTEX
  8
TEST
  5
3277
 10
2.05718
 20
4.47195
 30
0.00000
  70
    32
  0
VERTEX
  8
TEST
  5
3278
 10
2.05498
 20
4.48492
 30
0.00000
  70
    32
  0
VERTEX
  8
TEST
  5
3279
 10
2.05257
 20
4.49802
 30
0.00000
  70
    32
  0
VERTEX
  8
TEST
  5
327A
 10
2.04995
 20
4.51127
 30
0.00000
  70
    32
  0
VERTEX
  8
TEST
  5
327B
 10
2.04712
 20
4.52466
 30
0.00000
  70
    32
  0
VERTEX
  8
TEST
  5
327C
 10
2.04406
 20
4.53819
 30
0.00000
  70
    32
  0
VERTEX
  8
TEST
  5
327D
 10
2.04078
 20
4.55188
 30
0.00000
  70
    32
  0
VERTEX
  8
TEST
  5
327E
 10
2.03727
 20
4.56570
 30
0.00000
  70
    32
  0
VERTEX
  8
TEST
  5
327F
 10
2.03355
 20
4.57963
 30
0.00000
  70
    32
  0
VERTEX
  8
TEST
  5
3280
 10
2.02964
 20
4.59362
 30
0.00000
  70
    32
  0
VERTEX
  8
TEST
  5
3281
 10
2.02554
 20
4.60763
 30
0.00000
  70
    32
  0
VERTEX
  8
TEST
  5
3282
 10
2.02128
 20
4.62161
 30
0.00000
  70
    32
  0
VERTEX
  8
TEST
  5
3283
 10
2.01687
 20
4.63554
 30
0.00000
  70
    32
  0
VERTEX
  8
TEST
  5
3284
 10
2.01233
 20
4.64936
 30
0.00000
  70
    32
  0
VERTEX
  8
TEST
  5
3285
 10
2.00767
 20
4.66304
 30
0.00000
  70
    32
  0
VERTEX
  8
TEST
  5
3286
 10
2.00291
 20
4.67652
 30
0.00000
  70
    32
  0
VERTEX
  8
TEST
  5
3287
 10
1.99807
 20
4.68978
 30
0.00000
  70
    32
  0
VERTEX
  8
TEST
  5
3288
 10
1.99316
 20
4.70278
 30
0.00000
  70
    32
  0
VERTEX
  8
TEST
  5
3289
 10
1.98820
 20
4.71546
 30
0.00000
  70
    32
  0
VERTEX
  8
TEST
  5
328A
 10
1.98321
 20
4.72778
 30
0.00000
  70
    32
  0
VERTEX
  8
TEST
  5
328B
 10
1.97819
 20
4.73972
 30
0.00000
  70
    32
  0
VERTEX
  8
TEST
  5
328C
 10
1.97317
 20
4.75121
 30
0.00000
  70
    32
  0
VERTEX
  8
TEST
  5
328D
 10
1.96817
 20
4.76224
 30
0.00000
  70
    32
  0
VERTEX
  8
TEST
  5
328E
 10
1.96319
 20
4.77274
 30
0.00000
  70
    32
  0
VERTEX
  8
TEST
  5
328F
 10
1.95826
 20
4.78268
 30
0.00000
  70
    32
  0
VERTEX
  8
TEST
  5
3290
 10
1.95340
 20
4.79203
 30
0.00000
  70
    32
  0
VERTEX
  8
TEST
  5
3291
 10
1.94860
 20
4.80073
 30
0.00000
  70
    32
  0
VERTEX
  8
TEST
  5
3292
 10
1.94391
 20
4.80874
 30
0.00000
  70
    32
  0
VERTEX
  8
TEST
  5
3293
 10
1.93932
 20
4.81604
 30
0.00000
  70
    32
  0
VERTEX
  8
TEST
  5
3294
 10
1.93486
 20
4.82256
 30
0.00000
  70
    32
  0
VERTEX
  8
TEST
  5
3295
 10
1.93054
 20
4.82828
 30
0.00000
  70
    32
  0
VERTEX
  8
TEST
  5
3296
 10
1.92638
 20
4.83315
 30
0.00000
  70
    32
  0
VERTEX
  8
TEST
  5
3297
 10
1.92239
 20
4.83712
 30
0.00000
  70
    32
  0
VERTEX
  8
TEST
  5
3298
 10
1.91860
 20
4.84017
 30
0.00000
  70
    32
  0
VERTEX
  8
TEST
  5
3299
 10
1.91501
 20
4.84224
 30
0.00000
  70
    32
  0
VERTEX
  8
TEST
  5
329A
 10
1.91164
 20
4.84330
 30
0.00000
  70
    32
  0
VERTEX
  8
TEST
  5
329B
 10
1.90852
 20
4.84330
 30
0.00000
  70
    32
  0
VERTEX
  8
TEST
  5
329C
 10
1.90563
 20
4.84224
 30
0.00000
  70
    32
  0
VERTEX
  8
TEST
  5
329D
 10
1.90297
 20
4.84015
 30
0.00000
  70
    32
  0
VERTEX
  8
TEST
  5
329E
 10
1.90052
 20
4.83709
 30
0.00000
  70
    32
  0
VERTEX
  8
TEST
  5
329F
 10
1.89826
 20
4.83308
 30
0.00000
  70
    32
  0
VERTEX
  8
TEST
  5
32A0
 10
1.89618
 20
4.82818
 30
0.00000
  70
    32
  0
VERTEX
  8
TEST
  5
32A1
 10
1.89426
 20
4.82242
 30
0.00000
  70
    32
  0
VERTEX
  8
TEST
  5
32A2
 10
1.89249
 20
4.81585
 30
0.00000
  70
    32
  0
VERTEX
  8
TEST
  5
32A3
 10
1.89085
 20
4.80850
 30
0.00000
  70
    32
  0
VERTEX
  8
TEST
  5
32A4
 10
1.88931
 20
4.80042
 30
0.00000
  70
    32
  0
VERTEX
  8
TEST
  5
32A5
 10
1.88788
 20
4.79166
 30
0.00000
  70
    32
  0
VERTEX
  8
TEST
  5
32A6
 10
1.88652
 20
4.78225
 30
0.00000
  70
    32
  0
VERTEX
  8
TEST
  5
32A7
 10
1.88523
 20
4.77223
 30
0.00000
  70
    32
  0
VERTEX
  8
TEST
  5
32A8
 10
1.88398
 20
4.76165
 30
0.00000
  70
    32
  0
VERTEX
  8
TEST
  5
32A9
 10
1.88277
 20
4.75055
 30
0.00000
  70
    32
  0
VERTEX
  8
TEST
  5
32AA
 10
1.88157
 20
4.73898
 30
0.00000
  70
    32
  0
VERTEX
  8
TEST
  5
32AB
 10
1.88036
 20
4.72696
 30
0.00000
  70
    32
  0
VERTEX
  8
TEST
  5
32AC
 10
1.87914
 20
4.71455
 30
0.00000
  70
    32
  0
VERTEX
  8
TEST
  5
32AD
 10
1.87789
 20
4.70178
 30
0.00000
  70
    32
  0
VERTEX
  8
TEST
  5
32AE
 10
1.87659
 20
4.68871
 30
0.00000
  70
    32
  0
VERTEX
  8
TEST
  5
32AF
 10
1.87521
 20
4.67536
 30
0.00000
  70
    32
  0
VERTEX
  8
TEST
  5
32B0
 10
1.87376
 20
4.66179
 30
0.00000
  70
    32
  0
VERTEX
  8
TEST
  5
32B1
 10
1.87221
 20
4.64803
 30
0.00000
  70
    32
  0
VERTEX
  8
TEST
  5
32B2
 10
1.87054
 20
4.63413
 30
0.00000
  70
    32
  0
VERTEX
  8
TEST
  5
32B3
 10
1.86874
 20
4.62012
 30
0.00000
  70
    32
  0
VERTEX
  8
TEST
  5
32B4
 10
1.86679
 20
4.60606
 30
0.00000
  70
    32
  0
VERTEX
  8
TEST
  5
32B5
 10
1.86468
 20
4.59197
 30
0.00000
  70
    32
  0
VERTEX
  8
TEST
  5
32B6
 10
1.86238
 20
4.57791
 30
0.00000
  70
    32
  0
VERTEX
  8
TEST
  5
32B7
 10
1.85989
 20
4.56392
 30
0.00000
  70
    32
  0
VERTEX
  8
TEST
  5
32B8
 10
1.85719
 20
4.55003
 30
0.00000
  70
    32
  0
VERTEX
  8
TEST
  5
32B9
 10
1.85426
 20
4.53629
 30
0.00000
  70
    32
  0
VERTEX
  8
TEST
  5
32BA
 10
1.85108
 20
4.52274
 30
0.00000
  70
    32
  0
VERTEX
  8
TEST
  5
32BB
 10
1.84764
 20
4.50943
 30
0.00000
  70
    32
  0
VERTEX
  8
TEST
  5
32BC
 10
1.84392
 20
4.49639
 30
0.00000
  70
    32
  0
VERTEX
  8
TEST
  5
32BD
 10
1.83991
 20
4.48367
 30
0.00000
  70
    32
  0
VERTEX
  8
TEST
  5
32BE
 10
1.83558
 20
4.47130
 30
0.00000
  70
    32
  0
VERTEX
  8
TEST
  5
32BF
 10
1.83093
 20
4.45934
 30
0.00000
  70
    32
  0
VERTEX
  8
TEST
  5
32C0
 10
1.82594
 20
4.44782
 30
0.00000
  70
    32
  0
VERTEX
  8
TEST
  5
32C1
 10
1.82059
 20
4.43677
 30
0.00000
  70
    32
  0
VERTEX
  8
TEST
  5
32C2
 10
1.81490
 20
4.42619
 30
0.00000
  70
    32
  0
VERTEX
  8
TEST
  5
32C3
 10
1.80887
 20
4.41605
 30
0.00000
  70
    32
  0
VERTEX
  8
TEST
  5
32C4
 10
1.80253
 20
4.40635
 30
0.00000
  70
    32
  0
VERTEX
  8
TEST
  5
32C5
 10
1.79587
 20
4.39707
 30
0.00000
  70
    32
  0
VERTEX
  8
TEST
  5
32C6
 10
1.78891
 20
4.38819
 30
0.00000
  70
    32
  0
VERTEX
  8
TEST
  5
32C7
 10
1.78167
 20
4.37969
 30
0.00000
  70
    32
  0
VERTEX
  8
TEST
  5
32C8
 10
1.77416
 20
4.37157
 30
0.00000
  70
    32
  0
VERTEX
  8
TEST
  5
32C9
 10
1.76638
 20
4.36380
 30
0.00000
  70
    32
  0
VERTEX
  8
TEST
  5
32CA
 10
1.75836
 20
4.35637
 30
0.00000
  70
    32
  0
VERTEX
  8
TEST
  5
32CB
 10
1.75010
 20
4.34927
 30
0.00000
  70
    32
  0
VERTEX
  8
TEST
  5
32CC
 10
1.74161
 20
4.34247
 30
0.00000
  70
    32
  0
VERTEX
  8
TEST
  5
32CD
 10
1.73291
 20
4.33597
 30
0.00000
  70
    32
  0
VERTEX
  8
TEST
  5
32CE
 10
1.72400
 20
4.32975
 30
0.00000
  70
    32
  0
VERTEX
  8
TEST
  5
32CF
 10
1.71491
 20
4.32378
 30
0.00000
  70
    32
  0
VERTEX
  8
TEST
  5
32D0
 10
1.70564
 20
4.31807
 30
0.00000
  70
    32
  0
VERTEX
  8
TEST
  5
32D1
 10
1.69620
 20
4.31258
 30
0.00000
  70
    32
  0
VERTEX
  8
TEST
  5
32D2
 10
1.68661
 20
4.30732
 30
0.00000
  70
    32
  0
VERTEX
  8
TEST
  5
32D3
 10
1.67688
 20
4.30225
 30
0.00000
  70
    32
  0
VERTEX
  8
TEST
  5
32D4
 10
1.66702
 20
4.29736
 30
0.00000
  70
    32
  0
VERTEX
  8
TEST
  5
32D5
 10
1.65704
 20
4.29265
 30
0.00000
  70
    32
  0
VERTEX
  8
TEST
  5
32D6
 10
1.64696
 20
4.28808
 30
0.00000
  70
    32
  0
VERTEX
  8
TEST
  5
32D7
 10
1.63678
 20
4.28366
 30
0.00000
  70
    32
  0
VERTEX
  8
TEST
  5
32D8
 10
1.62652
 20
4.27936
 30
0.00000
  70
    32
  0
VERTEX
  8
TEST
  5
32D9
 10
1.61619
 20
4.27516
 30
0.00000
  70
    32
  0
VERTEX
  8
TEST
  5
32DA
 10
1.60581
 20
4.27106
 30
0.00000
  70
    32
  0
VERTEX
  8
TEST
  5
32DB
 10
1.59538
 20
4.26703
 30
0.00000
  70
    32
  0
VERTEX
  8
TEST
  5
32DC
 10
1.58491
 20
4.26306
 30
0.00000
  70
    32
  0
VERTEX
  8
TEST
  5
32DD
 10
1.57442
 20
4.25913
 30
0.00000
  70
    32
  0
VERTEX
  8
TEST
  5
32DE
 10
1.56393
 20
4.25524
 30
0.00000
  70
    32
  0
VERTEX
  8
TEST
  5
32DF
 10
1.55343
 20
4.25135
 30
0.00000
  70
    32
  0
VERTEX
  8
TEST
  5
32E0
 10
1.54295
 20
4.24747
 30
0.00000
  70
    32
  0
VERTEX
  8
TEST
  5
32E1
 10
1.53250
 20
4.24356
 30
0.00000
  70
    32
  0
VERTEX
  8
TEST
  5
32E2
 10
1.52208
 20
4.23962
 30
0.00000
  70
    32
  0
VERTEX
  8
TEST
  5
32E3
 10
1.51171
 20
4.23564
 30
0.00000
  70
    32
  0
VERTEX
  8
TEST
  5
32E4
 10
1.50141
 20
4.23159
 30
0.00000
  70
    32
  0
VERTEX
  8
TEST
  5
32E5
 10
1.49118
 20
4.22746
 30
0.00000
  70
    32
  0
VERTEX
  8
TEST
  5
32E6
 10
1.48104
 20
4.22323
 30
0.00000
  70
    32
  0
VERTEX
  8
TEST
  5
32E7
 10
1.47099
 20
4.21889
 30
0.00000
  70
    32
  0
VERTEX
  8
TEST
  5
32E8
 10
1.46106
 20
4.21442
 30
0.00000
  70
    32
  0
VERTEX
  8
TEST
  5
32E9
 10
1.45125
 20
4.20982
 30
0.00000
  70
    32
  0
VERTEX
  8
TEST
  5
32EA
 10
1.44157
 20
4.20505
 30
0.00000
  70
    32
  0
VERTEX
  8
TEST
  5
32EB
 10
1.43204
 20
4.20011
 30
0.00000
  70
    32
  0
VERTEX
  8
TEST
  5
32EC
 10
1.42266
 20
4.19498
 30
0.00000
  70
    32
  0
VERTEX
  8
TEST
  5
32ED
 10
1.41346
 20
4.18965
 30
0.00000
  70
    32
  0
VERTEX
  8
TEST
  5
32EE
 10
1.40444
 20
4.18410
 30
0.00000
  70
    32
  0
VERTEX
  8
TEST
  5
32EF
 10
1.39559
 20
4.17833
 30
0.00000
  70
    32
  0
VERTEX
  8
TEST
  5
32F0
 10
1.38692
 20
4.17236
 30
0.00000
  70
    32
  0
VERTEX
  8
TEST
  5
32F1
 10
1.37842
 20
4.16618
 30
0.00000
  70
    32
  0
VERTEX
  8
TEST
  5
32F2
 10
1.37010
 20
4.15980
 30
0.00000
  70
    32
  0
VERTEX
  8
TEST
  5
32F3
 10
1.36193
 20
4.15322
 30
0.00000
  70
    32
  0
VERTEX
  8
TEST
  5
32F4
 10
1.35394
 20
4.14644
 30
0.00000
  70
    32
  0
VERTEX
  8
TEST
  5
32F5
 10
1.34610
 20
4.13948
 30
0.00000
  70
    32
  0
VERTEX
  8
TEST
  5
32F6
 10
1.33841
 20
4.13234
 30
0.00000
  70
    32
  0
VERTEX
  8
TEST
  5
32F7
 10
1.33089
 20
4.12502
 30
0.00000
  70
    32
  0
VERTEX
  8
TEST
  5
32F8
 10
1.32351
 20
4.11752
 30
0.00000
  70
    32
  0
VERTEX
  8
TEST
  5
32F9
 10
1.31628
 20
4.10986
 30
0.00000
  70
    32
  0
VERTEX
  8
TEST
  5
32FA
 10
1.30919
 20
4.10203
 30
0.00000
  70
    32
  0
VERTEX
  8
TEST
  5
32FB
 10
1.30225
 20
4.09404
 30
0.00000
  70
    32
  0
VERTEX
  8
TEST
  5
32FC
 10
1.29544
 20
4.08589
 30
0.00000
  70
    32
  0
VERTEX
  8
TEST
  5
32FD
 10
1.28877
 20
4.07759
 30
0.00000
  70
    32
  0
VERTEX
  8
TEST
  5
32FE
 10
1.28224
 20
4.06915
 30
0.00000
  70
    32
  0
VERTEX
  8
TEST
  5
32FF
 10
1.27583
 20
4.06056
 30
0.00000
  70
    32
  0
VERTEX
  8
TEST
  5
3300
 10
1.26955
 20
4.05183
 30
0.00000
  70
    32
  0
VERTEX
  8
TEST
  5
3301
 10
1.26339
 20
4.04297
 30
0.00000
  70
    32
  0
VERTEX
  8
TEST
  5
3302
 10
1.25735
 20
4.03399
 30
0.00000
  70
    32
  0
VERTEX
  8
TEST
  5
3303
 10
1.25142
 20
4.02488
 30
0.00000
  70
    32
  0
VERTEX
  8
TEST
  5
3304
 10
1.24561
 20
4.01564
 30
0.00000
  70
    32
  0
VERTEX
  8
TEST
  5
3305
 10
1.23991
 20
4.00630
 30
0.00000
  70
    32
  0
VERTEX
  8
TEST
  5
3306
 10
1.23432
 20
3.99684
 30
0.00000
  70
    32
  0
VERTEX
  8
TEST
  5
3307
 10
1.22883
 20
3.98728
 30
0.00000
  70
    32
  0
VERTEX
  8
TEST
  5
3308
 10
1.22345
 20
3.97761
 30
0.00000
  70
    32
  0
VERTEX
  8
TEST
  5
3309
 10
1.21816
 20
3.96785
 30
0.00000
  70
    32
  0
VERTEX
  8
TEST
  5
330A
 10
1.21297
 20
3.95799
 30
0.00000
  70
    32
  0
VERTEX
  8
TEST
  5
330B
 10
1.20787
 20
3.94805
 30
0.00000
  70
    32
  0
VERTEX
  8
TEST
  5
330C
 10
1.20285
 20
3.93803
 30
0.00000
  70
    32
  0
VERTEX
  8
TEST
  5
330D
 10
1.19793
 20
3.92792
 30
0.00000
  70
    32
  0
VERTEX
  8
TEST
  5
330E
 10
1.19309
 20
3.91774
 30
0.00000
  70
    32
  0
VERTEX
  8
TEST
  5
330F
 10
1.18832
 20
3.90749
 30
0.00000
  70
    32
  0
VERTEX
  8
TEST
  5
3310
 10
1.18363
 20
3.89718
 30
0.00000
  70
    32
  0
VERTEX
  8
TEST
  5
3311
 10
1.17902
 20
3.88681
 30
0.00000
  70
    32
  0
VERTEX
  8
TEST
  5
3312
 10
1.17448
 20
3.87638
 30
0.00000
  70
    32
  0
VERTEX
  8
TEST
  5
3313
 10
1.17000
 20
3.86589
 30
0.00000
  70
    32
  0
VERTEX
  8
TEST
  5
3314
 10
1.16559
 20
3.85536
 30
0.00000
  70
    32
  0
VERTEX
  8
TEST
  5
3315
 10
1.16124
 20
3.84479
 30
0.00000
  70
    32
  0
VERTEX
  8
TEST
  5
3316
 10
1.15695
 20
3.83418
 30
0.00000
  70
    32
  0
VERTEX
  8
TEST
  5
3317
 10
1.15271
 20
3.82354
 30
0.00000
  70
    32
  0
VERTEX
  8
TEST
  5
3318
 10
1.14852
 20
3.81287
 30
0.00000
  70
    32
  0
VERTEX
  8
TEST
  5
3319
 10
1.14438
 20
3.80217
 30
0.00000
  70
    32
  0
VERTEX
  8
TEST
  5
331A
 10
1.14029
 20
3.79145
 30
0.00000
  70
    32
  0
VERTEX
  8
TEST
  5
331B
 10
1.13624
 20
3.78072
 30
0.00000
  70
    32
  0
VERTEX
  8
TEST
  5
331C
 10
1.13223
 20
3.76998
 30
0.00000
  70
    32
  0
VERTEX
  8
TEST
  5
331D
 10
1.12826
 20
3.75923
 30
0.00000
  70
    32
  0
VERTEX
  8
TEST
  5
331E
 10
1.12432
 20
3.74848
 30
0.00000
  70
    32
  0
VERTEX
  8
TEST
  5
331F
 10
1.12041
 20
3.73773
 30
0.00000
  70
    32
  0
VERTEX
  8
TEST
  5
3320
 10
1.11653
 20
3.72699
 30
0.00000
  70
    32
  0
VERTEX
  8
TEST
  5
3321
 10
1.11267
 20
3.71626
 30
0.00000
  70
    32
  0
VERTEX
  8
TEST
  5
3322
 10
1.10883
 20
3.70555
 30
0.00000
  70
    32
  0
VERTEX
  8
TEST
  5
3323
 10
1.10501
 20
3.69486
 30
0.00000
  70
    32
  0
VERTEX
  8
TEST
  5
3324
 10
1.10121
 20
3.68420
 30
0.00000
  70
    32
  0
VERTEX
  8
TEST
  5
3325
 10
1.09741
 20
3.67356
 30
0.00000
  70
    32
  0
VERTEX
  8
TEST
  5
3326
 10
1.09363
 20
3.66296
 30
0.00000
  70
    32
  0
VERTEX
  8
TEST
  5
3327
 10
1.08985
 20
3.65240
 30
0.00000
  70
    32
  0
VERTEX
  8
TEST
  5
3328
 10
1.08607
 20
3.64188
 30
0.00000
  70
    32
  0
VERTEX
  8
TEST
  5
3329
 10
1.08229
 20
3.63141
 30
0.00000
  70
    32
  0
VERTEX
  8
TEST
  5
332A
 10
1.07851
 20
3.62100
 30
0.00000
  70
    32
  0
VERTEX
  8
TEST
  5
332B
 10
1.07472
 20
3.61064
 30
0.00000
  70
    32
  0
VERTEX
  8
TEST
  5
332C
 10
1.07092
 20
3.60034
 30
0.00000
  70
    32
  0
VERTEX
  8
TEST
  5
332D
 10
1.06711
 20
3.59011
 30
0.00000
  70
    32
  0
VERTEX
  8
TEST
  5
332E
 10
1.06328
 20
3.57995
 30
0.00000
  70
    32
  0
VERTEX
  8
TEST
  5
332F
 10
1.05944
 20
3.56986
 30
0.00000
  70
    32
  0
VERTEX
  8
TEST
  5
3330
 10
1.05557
 20
3.55986
 30
0.00000
  70
    32
  0
VERTEX
  8
TEST
  5
3331
 10
1.05167
 20
3.54993
 30
0.00000
  70
    32
  0
VERTEX
  8
TEST
  5
3332
 10
1.04775
 20
3.54007
 30
0.00000
  70
    32
  0
VERTEX
  8
TEST
  5
3333
 10
1.04381
 20
3.53028
 30
0.00000
  70
    32
  0
VERTEX
  8
TEST
  5
3334
 10
1.03984
 20
3.52054
 30
0.00000
  70
    32
  0
VERTEX
  8
TEST
  5
3335
 10
1.03584
 20
3.51086
 30
0.00000
  70
    32
  0
VERTEX
  8
TEST
  5
3336
 10
1.03182
 20
3.50122
 30
0.00000
  70
    32
  0
VERTEX
  8
TEST
  5
3337
 10
1.02777
 20
3.49162
 30
0.00000
  70
    32
  0
VERTEX
  8
TEST
  5
3338
 10
1.02368
 20
3.48206
 30
0.00000
  70
    32
  0
VERTEX
  8
TEST
  5
3339
 10
1.01957
 20
3.47252
 30
0.00000
  70
    32
  0
VERTEX
  8
TEST
  5
333A
 10
1.01543
 20
3.46300
 30
0.00000
  70
    32
  0
VERTEX
  8
TEST
  5
333B
 10
1.01125
 20
3.45350
 30
0.00000
  70
    32
  0
VERTEX
  8
TEST
  5
333C
 10
1.00704
 20
3.44400
 30
0.00000
  70
    32
  0
VERTEX
  8
TEST
  5
333D
 10
1.00280
 20
3.43451
 30
0.00000
  70
    32
  0
VERTEX
  8
TEST
  5
333E
 10
0.998526
 20
3.42501
 30
0.00000
  70
    32
  0
VERTEX
  8
TEST
  5
333F
 10
0.994215
 20
3.41550
 30
0.00000
  70
    32
  0
VERTEX
  8
TEST
  5
3340
 10
0.989868
 20
3.40598
 30
0.00000
  70
    32
  0
VERTEX
  8
TEST
  5
3341
 10
0.985484
 20
3.39643
 30
0.00000
  70
    32
  0
VERTEX
  8
TEST
  5
3342
 10
0.981063
 20
3.38685
 30
0.00000
  70
    32
  0
VERTEX
  8
TEST
  5
3343
 10
0.976604
 20
3.37724
 30
0.00000
  70
    32
  0
VERTEX
  8
TEST
  5
3344
 10
0.972106
 20
3.36758
 30
0.00000
  70
    32
  0
VERTEX
  8
TEST
  5
3345
 10
0.967567
 20
3.35788
 30
0.00000
  70
    32
  0
VERTEX
  8
TEST
  5
3346
 10
0.962989
 20
3.34812
 30
0.00000
  70
    32
  0
VERTEX
  8
TEST
  5
3347
 10
0.958368
 20
3.33831
 30
0.00000
  70
    32
  0
VERTEX
  8
TEST
  5
3348
 10
0.953706
 20
3.32842
 30
0.00000
  70
    32
  0
VERTEX
  8
TEST
  5
3349
 10
0.949000
 20
3.31846
 30
0.00000
  70
    32
  0
VERTEX
  8
TEST
  5
334A
 10
0.944251
 20
3.30843
 30
0.00000
  70
    32
  0
VERTEX
  8
TEST
  5
334B
 10
0.939456
 20
3.29830
 30
0.00000
  70
    32
  0
VERTEX
  8
TEST
  5
334C
 10
0.934617
 20
3.28809
 30
0.00000
  70
    32
  0
VERTEX
  8
TEST
  5
334D
 10
0.929731
 20
3.27778
 30
0.00000
  70
    32
  0
VERTEX
  8
TEST
  5
334E
 10
0.924798
 20
3.26736
 30
0.00000
  70
    32
  0
VERTEX
  8
TEST
  5
334F
 10
0.919817
 20
3.25683
 30
0.00000
  70
    32
  0
VERTEX
  8
TEST
  5
3350
 10
0.914788
 20
3.24619
 30
0.00000
  70
    32
  0
VERTEX
  8
TEST
  5
3351
 10
0.909709
 20
3.23542
 30
0.00000
  70
    32
  0
VERTEX
  8
TEST
  5
3352
 10
0.904580
 20
3.22452
 30
0.00000
  70
    32
  0
VERTEX
  8
TEST
  5
3353
 10
0.899412
 20
3.21350
 30
0.00000
  70
    32
  0
VERTEX
  8
TEST
  5
3354
 10
0.894262
 20
3.20237
 30
0.00000
  70
    32
  0
VERTEX
  8
TEST
  5
3355
 10
0.889199
 20
3.19117
 30
0.00000
  70
    32
  0
VERTEX
  8
TEST
  5
3356
 10
0.884290
 20
3.17994
 30
0.00000
  70
    32
  0
VERTEX
  8
TEST
  5
3357
 10
0.879601
 20
3.16869
 30
0.00000
  70
    32
  0
VERTEX
  8
TEST
  5
3358
 10
0.875202
 20
3.15748
 30
0.00000
  70
    32
  0
VERTEX
  8
TEST
  5
3359
 10
0.871160
 20
3.14632
 30
0.00000
  70
    32
  0
VERTEX
  8
TEST
  5
335A
 10
0.867542
 20
3.13525
 30
0.00000
  70
    32
  0
VERTEX
  8
TEST
  5
335B
 10
0.864416
 20
3.12430
 30
0.00000
  70
    32
  0
VERTEX
  8
TEST
  5
335C
 10
0.861849
 20
3.11351
 30
0.00000
  70
    32
  0
VERTEX
  8
TEST
  5
335D
 10
0.859909
 20
3.10291
 30
0.00000
  70
    32
  0
VERTEX
  8
TEST
  5
335E
 10
0.858664
 20
3.09252
 30
0.00000
  70
    32
  0
VERTEX
  8
TEST
  5
335F
 10
0.858182
 20
3.08239
 30
0.00000
  70
    32
  0
VERTEX
  8
TEST
  5
3360
 10
0.858530
 20
3.07253
 30
0.00000
  70
    32
  0
VERTEX
  8
TEST
  5
3361
 10
0.859775
 20
3.06299
 30
0.00000
  70
    32
  0
VERTEX
  8
TEST
  5
3362
 10
0.861986
 20
3.05380
 30
0.00000
  70
    32
  0
VERTEX
  8
TEST
  5
3363
 10
0.865229
 20
3.04499
 30
0.00000
  70
    32
  0
SEQEND
  8
TEST
  5
3364
  0
ENDSEC
  0
EOF
