<?xml version="1.0" encoding="UTF-8" standalone="no"?>
<!DOCTYPE svg PUBLIC "-//W3C//DTD SVG 1.1//EN"
 "http://www.w3.org/Graphics/SVG/1.1/DTD/svg11.dtd">
<!-- Generated by graphviz version 2.38.0 (20140413.2041)
 -->
<!-- Title: %3 Pages: 1 -->
<svg width="919pt" height="796pt"
 viewBox="0.00 0.00 919.00 796.00" xmlns="http://www.w3.org/2000/svg" xmlns:xlink="http://www.w3.org/1999/xlink">
<g id="graph0" class="graph" transform="scale(1 1) rotate(0) translate(4 792)">
<title>%3</title>
<polygon fill="white" stroke="none" points="-4,4 -4,-792 915,-792 915,4 -4,4"/>
<!-- 32 -->
<g id="node1" class="node"><title>32</title>
<polygon fill="#0d1074" stroke="#0d1074" points="148,-236 0,-236 0,-184 148,-184 148,-236"/>
<text text-anchor="middle" x="74" y="-224" font-family="Arial" font-size="10.00" fill="#ffffff">PlotCurveItem:301:updateData</text>
<text text-anchor="middle" x="74" y="-213" font-family="Arial" font-size="10.00" fill="#ffffff">0.70%</text>
<text text-anchor="middle" x="74" y="-202" font-family="Arial" font-size="10.00" fill="#ffffff">(0.17%)</text>
<text text-anchor="middle" x="74" y="-191" font-family="Arial" font-size="10.00" fill="#ffffff">11683×</text>
</g>
<!-- 143 -->
<g id="node2" class="node"><title>143</title>
<polygon fill="#fe0600" stroke="#fe0600" points="305.5,-696 166.5,-696 166.5,-644 305.5,-644 305.5,-696"/>
<text text-anchor="middle" x="236" y="-684" font-family="Arial" font-size="10.00" fill="#ffffff">~:0:&lt;built&#45;in method exec_&gt;</text>
<text text-anchor="middle" x="236" y="-673" font-family="Arial" font-size="10.00" fill="#ffffff">99.38%</text>
<text text-anchor="middle" x="236" y="-662" font-family="Arial" font-size="10.00" fill="#ffffff">(88.95%)</text>
<text text-anchor="middle" x="236" y="-651" font-family="Arial" font-size="10.00" fill="#ffffff">1×</text>
</g>
<!-- 260 -->
<g id="node3" class="node"><title>260</title>
<polygon fill="#0d1074" stroke="#0d1074" points="315,-420 157,-420 157,-368 315,-368 315,-420"/>
<text text-anchor="middle" x="236" y="-408" font-family="Arial" font-size="10.00" fill="#ffffff">PlotCurveItem:164:boundingRect</text>
<text text-anchor="middle" x="236" y="-397" font-family="Arial" font-size="10.00" fill="#ffffff">0.86%</text>
<text text-anchor="middle" x="236" y="-386" font-family="Arial" font-size="10.00" fill="#ffffff">(0.13%)</text>
<text text-anchor="middle" x="236" y="-375" font-family="Arial" font-size="10.00" fill="#ffffff">49412×</text>
</g>
<!-- 143&#45;&gt;260 -->
<g id="edge1" class="edge"><title>143&#45;&gt;260</title>
<path fill="none" stroke="#0d0f73" stroke-width="0.5" d="M236,-643.714C236,-592.739 236,-477.919 236,-424"/>
<polygon fill="#0d0f73" stroke="#0d0f73" stroke-width="0.5" points="237.225,-423.725 236,-420.225 234.775,-423.725 237.225,-423.725"/>
<text text-anchor="middle" x="252.5" y="-535" font-family="Arial" font-size="10.00" fill="#0d0f73">0.48%</text>
<text text-anchor="middle" x="252.5" y="-524" font-family="Arial" font-size="10.00" fill="#0d0f73">18587×</text>
</g>
<!-- 306 -->
<g id="node4" class="node"><title>306</title>
<polygon fill="#0d1375" stroke="#0d1375" points="173,-604 73,-604 73,-552 173,-552 173,-604"/>
<text text-anchor="middle" x="123" y="-592" font-family="Arial" font-size="10.00" fill="#ffffff">NIdaq4:666:graficar</text>
<text text-anchor="middle" x="123" y="-581" font-family="Arial" font-size="10.00" fill="#ffffff">1.45%</text>
<text text-anchor="middle" x="123" y="-570" font-family="Arial" font-size="10.00" fill="#ffffff">(0.25%)</text>
<text text-anchor="middle" x="123" y="-559" font-family="Arial" font-size="10.00" fill="#ffffff">1950×</text>
</g>
<!-- 143&#45;&gt;306 -->
<g id="edge2" class="edge"><title>143&#45;&gt;306</title>
<path fill="none" stroke="#0d1375" stroke-width="0.5" d="M204.523,-643.93C189.952,-632.325 172.599,-618.503 157.655,-606.601"/>
<polygon fill="#0d1375" stroke="#0d1375" stroke-width="0.5" points="158.201,-605.47 154.7,-604.248 156.674,-607.386 158.201,-605.47"/>
<text text-anchor="middle" x="207" y="-627" font-family="Arial" font-size="10.00" fill="#0d1375">1.45%</text>
<text text-anchor="middle" x="207" y="-616" font-family="Arial" font-size="10.00" fill="#0d1375">1950×</text>
</g>
<!-- 1204 -->
<g id="node5" class="node"><title>1204</title>
<polygon fill="#0d337e" stroke="#0d337e" points="428.5,-604 285.5,-604 285.5,-552 428.5,-552 428.5,-604"/>
<text text-anchor="middle" x="357" y="-592" font-family="Arial" font-size="10.00" fill="#ffffff">GraphicsView:152:paintEvent</text>
<text text-anchor="middle" x="357" y="-581" font-family="Arial" font-size="10.00" fill="#ffffff">8.58%</text>
<text text-anchor="middle" x="357" y="-570" font-family="Arial" font-size="10.00" fill="#ffffff">(0.01%)</text>
<text text-anchor="middle" x="357" y="-559" font-family="Arial" font-size="10.00" fill="#ffffff">3046×</text>
</g>
<!-- 143&#45;&gt;1204 -->
<g id="edge3" class="edge"><title>143&#45;&gt;1204</title>
<path fill="none" stroke="#0d337e" stroke-width="0.5" d="M269.705,-643.93C285.308,-632.325 303.89,-618.503 319.892,-606.601"/>
<polygon fill="#0d337e" stroke="#0d337e" stroke-width="0.5" points="320.979,-607.32 323.056,-604.248 319.516,-605.354 320.979,-607.32"/>
<text text-anchor="middle" x="325" y="-627" font-family="Arial" font-size="10.00" fill="#0d337e">8.58%</text>
<text text-anchor="middle" x="325" y="-616" font-family="Arial" font-size="10.00" fill="#0d337e">3046×</text>
</g>
<!-- 659 -->
<g id="node12" class="node"><title>659</title>
<polygon fill="#0d0f74" stroke="#0d0f74" points="156,-512 28,-512 28,-460 156,-460 156,-512"/>
<text text-anchor="middle" x="92" y="-500" font-family="Arial" font-size="10.00" fill="#ffffff">PlotDataItem:344:setData</text>
<text text-anchor="middle" x="92" y="-489" font-family="Arial" font-size="10.00" fill="#ffffff">0.66%</text>
<text text-anchor="middle" x="92" y="-478" font-family="Arial" font-size="10.00" fill="#ffffff">(0.06%)</text>
<text text-anchor="middle" x="92" y="-467" font-family="Arial" font-size="10.00" fill="#ffffff">5854×</text>
</g>
<!-- 306&#45;&gt;659 -->
<g id="edge7" class="edge"><title>306&#45;&gt;659</title>
<path fill="none" stroke="#0d0f74" stroke-width="0.5" d="M114.365,-551.93C110.501,-540.712 105.923,-527.422 101.919,-515.798"/>
<polygon fill="#0d0f74" stroke="#0d0f74" stroke-width="0.5" points="102.995,-515.158 100.696,-512.248 100.678,-515.956 102.995,-515.158"/>
<text text-anchor="middle" x="126" y="-535" font-family="Arial" font-size="10.00" fill="#0d0f74">0.66%</text>
<text text-anchor="middle" x="126" y="-524" font-family="Arial" font-size="10.00" fill="#0d0f74">5829×</text>
</g>
<!-- 414 -->
<g id="node13" class="node"><title>414</title>
<polygon fill="#0d2e7c" stroke="#0d2e7c" points="402.5,-512 311.5,-512 311.5,-460 402.5,-460 402.5,-512"/>
<text text-anchor="middle" x="357" y="-500" font-family="Arial" font-size="10.00" fill="#ffffff">~:0:&lt;paintEvent&gt;</text>
<text text-anchor="middle" x="357" y="-489" font-family="Arial" font-size="10.00" fill="#ffffff">7.41%</text>
<text text-anchor="middle" x="357" y="-478" font-family="Arial" font-size="10.00" fill="#ffffff">(1.21%)</text>
<text text-anchor="middle" x="357" y="-467" font-family="Arial" font-size="10.00" fill="#ffffff">3046×</text>
</g>
<!-- 1204&#45;&gt;414 -->
<g id="edge24" class="edge"><title>1204&#45;&gt;414</title>
<path fill="none" stroke="#0d2e7c" stroke-width="0.5" d="M357,-551.93C357,-540.712 357,-527.422 357,-515.798"/>
<polygon fill="#0d2e7c" stroke="#0d2e7c" stroke-width="0.5" points="358.225,-515.748 357,-512.248 355.775,-515.748 358.225,-515.748"/>
<text text-anchor="middle" x="371" y="-535" font-family="Arial" font-size="10.00" fill="#0d2e7c">7.41%</text>
<text text-anchor="middle" x="371" y="-524" font-family="Arial" font-size="10.00" fill="#0d2e7c">3046×</text>
</g>
<!-- 1203 -->
<g id="node26" class="node"><title>1203</title>
<polygon fill="#0d1174" stroke="#0d1174" points="612,-512 438,-512 438,-460 612,-460 612,-512"/>
<text text-anchor="middle" x="525" y="-500" font-family="Arial" font-size="10.00" fill="#ffffff">GraphicsScene:110:prepareForPaint</text>
<text text-anchor="middle" x="525" y="-489" font-family="Arial" font-size="10.00" fill="#ffffff">1.14%</text>
<text text-anchor="middle" x="525" y="-478" font-family="Arial" font-size="10.00" fill="#ffffff">(0.00%)</text>
<text text-anchor="middle" x="525" y="-467" font-family="Arial" font-size="10.00" fill="#ffffff">3046×</text>
</g>
<!-- 1204&#45;&gt;1203 -->
<g id="edge25" class="edge"><title>1204&#45;&gt;1203</title>
<path fill="none" stroke="#0d1174" stroke-width="0.5" d="M403.797,-551.93C425.914,-540.082 452.343,-525.924 474.868,-513.856"/>
<polygon fill="#0d1174" stroke="#0d1174" stroke-width="0.5" points="475.656,-514.824 478.163,-512.092 474.499,-512.665 475.656,-514.824"/>
<text text-anchor="middle" x="474" y="-535" font-family="Arial" font-size="10.00" fill="#0d1174">1.14%</text>
<text text-anchor="middle" x="474" y="-524" font-family="Arial" font-size="10.00" fill="#0d1174">3046×</text>
</g>
<!-- 199 -->
<g id="node6" class="node"><title>199</title>
<polygon fill="#0d1876" stroke="#0d1876" points="283.5,-328 164.5,-328 164.5,-276 283.5,-276 283.5,-328"/>
<text text-anchor="middle" x="224" y="-316" font-family="Arial" font-size="10.00" fill="#ffffff">PlotCurveItem:410:paint</text>
<text text-anchor="middle" x="224" y="-305" font-family="Arial" font-size="10.00" fill="#ffffff">2.58%</text>
<text text-anchor="middle" x="224" y="-294" font-family="Arial" font-size="10.00" fill="#ffffff">(0.07%)</text>
<text text-anchor="middle" x="224" y="-283" font-family="Arial" font-size="10.00" fill="#ffffff">15405×</text>
</g>
<!-- 697 -->
<g id="node7" class="node"><title>697</title>
<polygon fill="#0d1375" stroke="#0d1375" points="289,-236 157,-236 157,-184 289,-184 289,-236"/>
<text text-anchor="middle" x="223" y="-224" font-family="Arial" font-size="10.00" fill="#ffffff">PlotCurveItem:398:getPath</text>
<text text-anchor="middle" x="223" y="-213" font-family="Arial" font-size="10.00" fill="#ffffff">1.47%</text>
<text text-anchor="middle" x="223" y="-202" font-family="Arial" font-size="10.00" fill="#ffffff">(0.02%)</text>
<text text-anchor="middle" x="223" y="-191" font-family="Arial" font-size="10.00" fill="#ffffff">6062×</text>
</g>
<!-- 199&#45;&gt;697 -->
<g id="edge4" class="edge"><title>199&#45;&gt;697</title>
<path fill="none" stroke="#0d1375" stroke-width="0.5" d="M223.721,-275.93C223.597,-264.712 223.449,-251.422 223.32,-239.798"/>
<polygon fill="#0d1375" stroke="#0d1375" stroke-width="0.5" points="224.544,-239.734 223.281,-236.248 222.095,-239.761 224.544,-239.734"/>
<text text-anchor="middle" x="238" y="-259" font-family="Arial" font-size="10.00" fill="#0d1375">1.47%</text>
<text text-anchor="middle" x="238" y="-248" font-family="Arial" font-size="10.00" fill="#0d1375">6062×</text>
</g>
<!-- 801 -->
<g id="node8" class="node"><title>801</title>
<polygon fill="#0d1174" stroke="#0d1174" points="451.5,-236 298.5,-236 298.5,-184 451.5,-184 451.5,-236"/>
<text text-anchor="middle" x="375" y="-224" font-family="Arial" font-size="10.00" fill="#ffffff">~:0:&lt;built&#45;in method drawPath&gt;</text>
<text text-anchor="middle" x="375" y="-213" font-family="Arial" font-size="10.00" fill="#ffffff">0.96%</text>
<text text-anchor="middle" x="375" y="-202" font-family="Arial" font-size="10.00" fill="#ffffff">(0.97%)</text>
<text text-anchor="middle" x="375" y="-191" font-family="Arial" font-size="10.00" fill="#ffffff">9108×</text>
</g>
<!-- 199&#45;&gt;801 -->
<g id="edge5" class="edge"><title>199&#45;&gt;801</title>
<path fill="none" stroke="#0d1174" stroke-width="0.5" d="M266.062,-275.93C285.778,-264.179 309.306,-250.156 329.443,-238.153"/>
<polygon fill="#0d1174" stroke="#0d1174" stroke-width="0.5" points="330.523,-238.936 332.902,-236.092 329.268,-236.831 330.523,-238.936"/>
<text text-anchor="middle" x="332" y="-259" font-family="Arial" font-size="10.00" fill="#0d1174">0.96%</text>
<text text-anchor="middle" x="332" y="-248" font-family="Arial" font-size="10.00" fill="#0d1174">6062×</text>
</g>
<!-- 725 -->
<g id="node24" class="node"><title>725</title>
<polygon fill="#0d1375" stroke="#0d1375" points="301,-144 145,-144 145,-92 301,-92 301,-144"/>
<text text-anchor="middle" x="223" y="-132" font-family="Arial" font-size="10.00" fill="#ffffff">PlotCurveItem:374:generatePath</text>
<text text-anchor="middle" x="223" y="-121" font-family="Arial" font-size="10.00" fill="#ffffff">1.45%</text>
<text text-anchor="middle" x="223" y="-110" font-family="Arial" font-size="10.00" fill="#ffffff">(0.02%)</text>
<text text-anchor="middle" x="223" y="-99" font-family="Arial" font-size="10.00" fill="#ffffff">3886×</text>
</g>
<!-- 697&#45;&gt;725 -->
<g id="edge17" class="edge"><title>697&#45;&gt;725</title>
<path fill="none" stroke="#0d1375" stroke-width="0.5" d="M223,-183.93C223,-172.712 223,-159.422 223,-147.798"/>
<polygon fill="#0d1375" stroke="#0d1375" stroke-width="0.5" points="224.225,-147.748 223,-144.248 221.775,-147.748 224.225,-147.748"/>
<text text-anchor="middle" x="237" y="-167" font-family="Arial" font-size="10.00" fill="#0d1375">1.45%</text>
<text text-anchor="middle" x="237" y="-156" font-family="Arial" font-size="10.00" fill="#0d1375">3886×</text>
</g>
<!-- 201 -->
<g id="node9" class="node"><title>201</title>
<polygon fill="#0d1074" stroke="#0d1074" points="593,-328 429,-328 429,-276 593,-276 593,-328"/>
<text text-anchor="middle" x="511" y="-316" font-family="Arial" font-size="10.00" fill="#ffffff">AxisItem:766:generateDrawSpecs</text>
<text text-anchor="middle" x="511" y="-305" font-family="Arial" font-size="10.00" fill="#ffffff">0.74%</text>
<text text-anchor="middle" x="511" y="-294" font-family="Arial" font-size="10.00" fill="#ffffff">(0.17%)</text>
<text text-anchor="middle" x="511" y="-283" font-family="Arial" font-size="10.00" fill="#ffffff">1096×</text>
</g>
<!-- 253 -->
<g id="node10" class="node"><title>253</title>
<polygon fill="#0d1074" stroke="#0d1074" points="140,-328 8,-328 8,-276 140,-276 140,-328"/>
<text text-anchor="middle" x="74" y="-316" font-family="Arial" font-size="10.00" fill="#ffffff">PlotCurveItem:265:setData</text>
<text text-anchor="middle" x="74" y="-305" font-family="Arial" font-size="10.00" fill="#ffffff">0.71%</text>
<text text-anchor="middle" x="74" y="-294" font-family="Arial" font-size="10.00" fill="#ffffff">(0.01%)</text>
<text text-anchor="middle" x="74" y="-283" font-family="Arial" font-size="10.00" fill="#ffffff">11683×</text>
</g>
<!-- 253&#45;&gt;32 -->
<g id="edge6" class="edge"><title>253&#45;&gt;32</title>
<path fill="none" stroke="#0d1074" stroke-width="0.5" d="M74,-275.93C74,-264.712 74,-251.422 74,-239.798"/>
<polygon fill="#0d1074" stroke="#0d1074" stroke-width="0.5" points="75.2251,-239.748 74,-236.248 72.7751,-239.748 75.2251,-239.748"/>
<text text-anchor="middle" x="90.5" y="-259" font-family="Arial" font-size="10.00" fill="#0d1074">0.70%</text>
<text text-anchor="middle" x="90.5" y="-248" font-family="Arial" font-size="10.00" fill="#0d1074">11683×</text>
</g>
<!-- 261 -->
<g id="node11" class="node"><title>261</title>
<polygon fill="#0d0f74" stroke="#0d0f74" points="890.5,-144 741.5,-144 741.5,-92 890.5,-92 890.5,-144"/>
<text text-anchor="middle" x="816" y="-132" font-family="Arial" font-size="10.00" fill="#ffffff">ViewBox:1366:childrenBounds</text>
<text text-anchor="middle" x="816" y="-121" font-family="Arial" font-size="10.00" fill="#ffffff">0.62%</text>
<text text-anchor="middle" x="816" y="-110" font-family="Arial" font-size="10.00" fill="#ffffff">(0.23%)</text>
<text text-anchor="middle" x="816" y="-99" font-family="Arial" font-size="10.00" fill="#ffffff">3078×</text>
</g>
<!-- 764 -->
<g id="node20" class="node"><title>764</title>
<polygon fill="#0d1074" stroke="#0d1074" points="148,-420 0,-420 0,-368 148,-368 148,-420"/>
<text text-anchor="middle" x="74" y="-408" font-family="Arial" font-size="10.00" fill="#ffffff">PlotDataItem:471:updateItems</text>
<text text-anchor="middle" x="74" y="-397" font-family="Arial" font-size="10.00" fill="#ffffff">0.86%</text>
<text text-anchor="middle" x="74" y="-386" font-family="Arial" font-size="10.00" fill="#ffffff">(0.12%)</text>
<text text-anchor="middle" x="74" y="-375" font-family="Arial" font-size="10.00" fill="#ffffff">11658×</text>
</g>
<!-- 659&#45;&gt;764 -->
<g id="edge15" class="edge"><title>659&#45;&gt;764</title>
<path fill="none" stroke="#0d0f73" stroke-width="0.5" d="M86.986,-459.93C84.7423,-448.712 82.0845,-435.422 79.7596,-423.798"/>
<polygon fill="#0d0f73" stroke="#0d0f73" stroke-width="0.5" points="80.9372,-423.439 79.0495,-420.248 78.5348,-423.92 80.9372,-423.439"/>
<text text-anchor="middle" x="100" y="-443" font-family="Arial" font-size="10.00" fill="#0d0f73">0.52%</text>
<text text-anchor="middle" x="100" y="-432" font-family="Arial" font-size="10.00" fill="#0d0f73">5829×</text>
</g>
<!-- 414&#45;&gt;260 -->
<g id="edge8" class="edge"><title>414&#45;&gt;260</title>
<path fill="none" stroke="#0d0e73" stroke-width="0.5" d="M323.295,-459.93C307.692,-448.325 289.11,-434.503 273.108,-422.601"/>
<polygon fill="#0d0e73" stroke="#0d0e73" stroke-width="0.5" points="273.484,-421.354 269.944,-420.248 272.021,-423.32 273.484,-421.354"/>
<text text-anchor="middle" x="327.5" y="-443" font-family="Arial" font-size="10.00" fill="#0d0e73">0.38%</text>
<text text-anchor="middle" x="327.5" y="-432" font-family="Arial" font-size="10.00" fill="#0d0e73">30815×</text>
</g>
<!-- 541 -->
<g id="node14" class="node"><title>541</title>
<polygon fill="#0d1c77" stroke="#0d1c77" points="390,-420 324,-420 324,-368 390,-368 390,-420"/>
<text text-anchor="middle" x="357" y="-408" font-family="Arial" font-size="10.00" fill="#ffffff">debug:88:w</text>
<text text-anchor="middle" x="357" y="-397" font-family="Arial" font-size="10.00" fill="#ffffff">3.64%</text>
<text text-anchor="middle" x="357" y="-386" font-family="Arial" font-size="10.00" fill="#ffffff">(0.04%)</text>
<text text-anchor="middle" x="357" y="-375" font-family="Arial" font-size="10.00" fill="#ffffff">24748×</text>
</g>
<!-- 414&#45;&gt;541 -->
<g id="edge9" class="edge"><title>414&#45;&gt;541</title>
<path fill="none" stroke="#0d1c77" stroke-width="0.5" d="M357,-459.93C357,-448.712 357,-435.422 357,-423.798"/>
<polygon fill="#0d1c77" stroke="#0d1c77" stroke-width="0.5" points="358.225,-423.748 357,-420.248 355.775,-423.748 358.225,-423.748"/>
<text text-anchor="middle" x="373.5" y="-443" font-family="Arial" font-size="10.00" fill="#0d1c77">3.64%</text>
<text text-anchor="middle" x="373.5" y="-432" font-family="Arial" font-size="10.00" fill="#0d1c77">24748×</text>
</g>
<!-- 850 -->
<g id="node15" class="node"><title>850</title>
<polygon fill="#0d1375" stroke="#0d1375" points="560,-420 462,-420 462,-368 560,-368 560,-420"/>
<text text-anchor="middle" x="511" y="-408" font-family="Arial" font-size="10.00" fill="#ffffff">AxisItem:519:paint</text>
<text text-anchor="middle" x="511" y="-397" font-family="Arial" font-size="10.00" fill="#ffffff">1.55%</text>
<text text-anchor="middle" x="511" y="-386" font-family="Arial" font-size="10.00" fill="#ffffff">(0.04%)</text>
<text text-anchor="middle" x="511" y="-375" font-family="Arial" font-size="10.00" fill="#ffffff">6090×</text>
</g>
<!-- 414&#45;&gt;850 -->
<g id="edge10" class="edge"><title>414&#45;&gt;850</title>
<path fill="none" stroke="#0d1375" stroke-width="0.5" d="M399.898,-459.93C420.088,-448.13 444.199,-434.04 464.792,-422.005"/>
<polygon fill="#0d1375" stroke="#0d1375" stroke-width="0.5" points="465.662,-422.915 468.066,-420.092 464.426,-420.8 465.662,-422.915"/>
<text text-anchor="middle" x="467" y="-443" font-family="Arial" font-size="10.00" fill="#0d1375">1.55%</text>
<text text-anchor="middle" x="467" y="-432" font-family="Arial" font-size="10.00" fill="#0d1375">6090×</text>
</g>
<!-- 541&#45;&gt;199 -->
<g id="edge12" class="edge"><title>541&#45;&gt;199</title>
<path fill="none" stroke="#0d1876" stroke-width="0.5" d="M323.782,-370.521C305.744,-358.315 283.304,-343.131 264.276,-330.254"/>
<polygon fill="#0d1876" stroke="#0d1876" stroke-width="0.5" points="264.595,-328.991 261.009,-328.044 263.221,-331.02 264.595,-328.991"/>
<text text-anchor="middle" x="323.5" y="-351" font-family="Arial" font-size="10.00" fill="#0d1876">2.58%</text>
<text text-anchor="middle" x="323.5" y="-340" font-family="Arial" font-size="10.00" fill="#0d1876">15405×</text>
</g>
<!-- 540 -->
<g id="node17" class="node"><title>540</title>
<polygon fill="#0d1174" stroke="#0d1174" points="419.5,-328 292.5,-328 292.5,-276 419.5,-276 419.5,-328"/>
<text text-anchor="middle" x="356" y="-316" font-family="Arial" font-size="10.00" fill="#ffffff">ScatterPlotItem:722:paint</text>
<text text-anchor="middle" x="356" y="-305" font-family="Arial" font-size="10.00" fill="#ffffff">1.02%</text>
<text text-anchor="middle" x="356" y="-294" font-family="Arial" font-size="10.00" fill="#ffffff">(0.15%)</text>
<text text-anchor="middle" x="356" y="-283" font-family="Arial" font-size="10.00" fill="#ffffff">9343×</text>
</g>
<!-- 541&#45;&gt;540 -->
<g id="edge13" class="edge"><title>541&#45;&gt;540</title>
<path fill="none" stroke="#0d1174" stroke-width="0.5" d="M356.721,-367.93C356.597,-356.712 356.449,-343.422 356.32,-331.798"/>
<polygon fill="#0d1174" stroke="#0d1174" stroke-width="0.5" points="357.544,-331.734 356.281,-328.248 355.095,-331.761 357.544,-331.734"/>
<text text-anchor="middle" x="371" y="-351" font-family="Arial" font-size="10.00" fill="#0d1174">1.02%</text>
<text text-anchor="middle" x="371" y="-340" font-family="Arial" font-size="10.00" fill="#0d1174">9343×</text>
</g>
<!-- 850&#45;&gt;201 -->
<g id="edge21" class="edge"><title>850&#45;&gt;201</title>
<path fill="none" stroke="#0d1074" stroke-width="0.5" d="M511,-367.93C511,-356.712 511,-343.422 511,-331.798"/>
<polygon fill="#0d1074" stroke="#0d1074" stroke-width="0.5" points="512.225,-331.748 511,-328.248 509.775,-331.748 512.225,-331.748"/>
<text text-anchor="middle" x="525" y="-351" font-family="Arial" font-size="10.00" fill="#0d1074">0.74%</text>
<text text-anchor="middle" x="525" y="-340" font-family="Arial" font-size="10.00" fill="#0d1074">1096×</text>
</g>
<!-- 1397 -->
<g id="node25" class="node"><title>1397</title>
<polygon fill="#0d0f74" stroke="#0d0f74" points="733.5,-328 602.5,-328 602.5,-276 733.5,-276 733.5,-328"/>
<text text-anchor="middle" x="668" y="-316" font-family="Arial" font-size="10.00" fill="#ffffff">~:0:&lt;built&#45;in method play&gt;</text>
<text text-anchor="middle" x="668" y="-305" font-family="Arial" font-size="10.00" fill="#ffffff">0.60%</text>
<text text-anchor="middle" x="668" y="-294" font-family="Arial" font-size="10.00" fill="#ffffff">(0.60%)</text>
<text text-anchor="middle" x="668" y="-283" font-family="Arial" font-size="10.00" fill="#ffffff">6090×</text>
</g>
<!-- 850&#45;&gt;1397 -->
<g id="edge22" class="edge"><title>850&#45;&gt;1397</title>
<path fill="none" stroke="#0d0f74" stroke-width="0.5" d="M554.733,-367.93C575.402,-356.082 600.1,-341.924 621.151,-329.856"/>
<polygon fill="#0d0f74" stroke="#0d0f74" stroke-width="0.5" points="621.802,-330.895 624.229,-328.092 620.584,-328.769 621.802,-330.895"/>
<text text-anchor="middle" x="622" y="-351" font-family="Arial" font-size="10.00" fill="#0d0f74">0.60%</text>
<text text-anchor="middle" x="622" y="-340" font-family="Arial" font-size="10.00" fill="#0d0f74">6090×</text>
</g>
<!-- 426 -->
<g id="node16" class="node"><title>426</title>
<polygon fill="#ff0000" stroke="#ff0000" points="286.5,-788 185.5,-788 185.5,-736 286.5,-736 286.5,-788"/>
<text text-anchor="middle" x="236" y="-776" font-family="Arial" font-size="10.00" fill="#ffffff">NIdaq4:4:&lt;module&gt;</text>
<text text-anchor="middle" x="236" y="-765" font-family="Arial" font-size="10.00" fill="#ffffff">100.00%</text>
<text text-anchor="middle" x="236" y="-754" font-family="Arial" font-size="10.00" fill="#ffffff">(0.02%)</text>
<text text-anchor="middle" x="236" y="-743" font-family="Arial" font-size="10.00" fill="#ffffff">1×</text>
</g>
<!-- 426&#45;&gt;143 -->
<g id="edge11" class="edge"><title>426&#45;&gt;143</title>
<path fill="none" stroke="#fe0600" stroke-width="3.98" d="M236,-735.93C236,-726.743 236,-716.166 236,-706.253"/>
<polygon fill="#fe0600" stroke="#fe0600" stroke-width="3.98" points="239.5,-706.248 236,-696.248 232.5,-706.248 239.5,-706.248"/>
<text text-anchor="middle" x="253" y="-719" font-family="Arial" font-size="10.00" fill="#fe0600">99.38%</text>
<text text-anchor="middle" x="253" y="-708" font-family="Arial" font-size="10.00" fill="#fe0600">1×</text>
</g>
<!-- 546 -->
<g id="node18" class="node"><title>546</title>
<polygon fill="#0d1274" stroke="#0d1274" points="911,-420 619,-420 619,-368 911,-368 911,-420"/>
<text text-anchor="middle" x="765" y="-408" font-family="Arial" font-size="10.00" fill="#ffffff">~:0:&lt;method &#39;emit&#39; of &#39;PyQt4.QtCore.pyqtBoundSignal&#39; objects&gt;</text>
<text text-anchor="middle" x="765" y="-397" font-family="Arial" font-size="10.00" fill="#ffffff">1.17%</text>
<text text-anchor="middle" x="765" y="-386" font-family="Arial" font-size="10.00" fill="#ffffff">(0.13%)</text>
<text text-anchor="middle" x="765" y="-375" font-family="Arial" font-size="10.00" fill="#ffffff">26018×</text>
</g>
<!-- 836 -->
<g id="node19" class="node"><title>836</title>
<polygon fill="#0d1174" stroke="#0d1174" points="889,-328 743,-328 743,-276 889,-276 889,-328"/>
<text text-anchor="middle" x="816" y="-316" font-family="Arial" font-size="10.00" fill="#ffffff">ViewBox:294:prepareForPaint</text>
<text text-anchor="middle" x="816" y="-305" font-family="Arial" font-size="10.00" fill="#ffffff">1.12%</text>
<text text-anchor="middle" x="816" y="-294" font-family="Arial" font-size="10.00" fill="#ffffff">(0.01%)</text>
<text text-anchor="middle" x="816" y="-283" font-family="Arial" font-size="10.00" fill="#ffffff">3046×</text>
</g>
<!-- 546&#45;&gt;836 -->
<g id="edge14" class="edge"><title>546&#45;&gt;836</title>
<path fill="none" stroke="#0d1174" stroke-width="0.5" d="M779.206,-367.93C785.618,-356.615 793.224,-343.193 799.851,-331.497"/>
<polygon fill="#0d1174" stroke="#0d1174" stroke-width="0.5" points="801.033,-331.897 801.693,-328.248 798.902,-330.689 801.033,-331.897"/>
<text text-anchor="middle" x="810" y="-351" font-family="Arial" font-size="10.00" fill="#0d1174">1.12%</text>
<text text-anchor="middle" x="810" y="-340" font-family="Arial" font-size="10.00" fill="#0d1174">3044×</text>
</g>
<!-- 671 -->
<g id="node22" class="node"><title>671</title>
<polygon fill="#0d1174" stroke="#0d1174" points="893,-236 739,-236 739,-184 893,-184 893,-236"/>
<text text-anchor="middle" x="816" y="-224" font-family="Arial" font-size="10.00" fill="#ffffff">ViewBox:851:updateAutoRange</text>
<text text-anchor="middle" x="816" y="-213" font-family="Arial" font-size="10.00" fill="#ffffff">1.00%</text>
<text text-anchor="middle" x="816" y="-202" font-family="Arial" font-size="10.00" fill="#ffffff">(0.06%)</text>
<text text-anchor="middle" x="816" y="-191" font-family="Arial" font-size="10.00" fill="#ffffff">3078×</text>
</g>
<!-- 836&#45;&gt;671 -->
<g id="edge20" class="edge"><title>836&#45;&gt;671</title>
<path fill="none" stroke="#0d1174" stroke-width="0.5" d="M816,-275.93C816,-264.712 816,-251.422 816,-239.798"/>
<polygon fill="#0d1174" stroke="#0d1174" stroke-width="0.5" points="817.225,-239.748 816,-236.248 814.775,-239.748 817.225,-239.748"/>
<text text-anchor="middle" x="830" y="-259" font-family="Arial" font-size="10.00" fill="#0d1174">0.99%</text>
<text text-anchor="middle" x="830" y="-248" font-family="Arial" font-size="10.00" fill="#0d1174">3018×</text>
</g>
<!-- 764&#45;&gt;253 -->
<g id="edge19" class="edge"><title>764&#45;&gt;253</title>
<path fill="none" stroke="#0d1074" stroke-width="0.5" d="M74,-367.93C74,-356.712 74,-343.422 74,-331.798"/>
<polygon fill="#0d1074" stroke="#0d1074" stroke-width="0.5" points="75.2251,-331.748 74,-328.248 72.7751,-331.748 75.2251,-331.748"/>
<text text-anchor="middle" x="90.5" y="-351" font-family="Arial" font-size="10.00" fill="#0d1074">0.71%</text>
<text text-anchor="middle" x="90.5" y="-340" font-family="Arial" font-size="10.00" fill="#0d1074">11658×</text>
</g>
<!-- 668 -->
<g id="node21" class="node"><title>668</title>
<polygon fill="#0d1375" stroke="#0d1375" points="294.5,-52 151.5,-52 151.5,-0 294.5,-0 294.5,-52"/>
<text text-anchor="middle" x="223" y="-40" font-family="Arial" font-size="10.00" fill="#ffffff">functions:1250:arrayToQPath</text>
<text text-anchor="middle" x="223" y="-29" font-family="Arial" font-size="10.00" fill="#ffffff">1.43%</text>
<text text-anchor="middle" x="223" y="-18" font-family="Arial" font-size="10.00" fill="#ffffff">(1.40%)</text>
<text text-anchor="middle" x="223" y="-7" font-family="Arial" font-size="10.00" fill="#ffffff">3886×</text>
</g>
<!-- 671&#45;&gt;261 -->
<g id="edge16" class="edge"><title>671&#45;&gt;261</title>
<path fill="none" stroke="#0d0f74" stroke-width="0.5" d="M816,-183.93C816,-172.712 816,-159.422 816,-147.798"/>
<polygon fill="#0d0f74" stroke="#0d0f74" stroke-width="0.5" points="817.225,-147.748 816,-144.248 814.775,-147.748 817.225,-147.748"/>
<text text-anchor="middle" x="830" y="-167" font-family="Arial" font-size="10.00" fill="#0d0f74">0.62%</text>
<text text-anchor="middle" x="830" y="-156" font-family="Arial" font-size="10.00" fill="#0d0f74">3078×</text>
</g>
<!-- 679 -->
<g id="node23" class="node"><title>679</title>
<polygon fill="#0d0f73" stroke="#0d0f73" points="404,-788 296,-788 296,-736 404,-736 404,-788"/>
<text text-anchor="middle" x="350" y="-776" font-family="Arial" font-size="10.00" fill="#ffffff">functions:246:mkPen</text>
<text text-anchor="middle" x="350" y="-765" font-family="Arial" font-size="10.00" fill="#ffffff">0.56%</text>
<text text-anchor="middle" x="350" y="-754" font-family="Arial" font-size="10.00" fill="#ffffff">(0.23%)</text>
<text text-anchor="middle" x="350" y="-743" font-family="Arial" font-size="10.00" fill="#ffffff">58504×</text>
</g>
<!-- 725&#45;&gt;668 -->
<g id="edge18" class="edge"><title>725&#45;&gt;668</title>
<path fill="none" stroke="#0d1375" stroke-width="0.5" d="M223,-91.93C223,-80.7116 223,-67.4223 223,-55.7978"/>
<polygon fill="#0d1375" stroke="#0d1375" stroke-width="0.5" points="224.225,-55.7477 223,-52.2477 221.775,-55.7478 224.225,-55.7477"/>
<text text-anchor="middle" x="237" y="-75" font-family="Arial" font-size="10.00" fill="#0d1375">1.43%</text>
<text text-anchor="middle" x="237" y="-64" font-family="Arial" font-size="10.00" fill="#0d1375">3886×</text>
</g>
<!-- 1203&#45;&gt;546 -->
<g id="edge23" class="edge"><title>1203&#45;&gt;546</title>
<path fill="none" stroke="#0d1174" stroke-width="0.5" d="M591.853,-459.93C623.837,-447.936 662.133,-433.575 694.568,-421.412"/>
<polygon fill="#0d1174" stroke="#0d1174" stroke-width="0.5" points="695.242,-422.468 698.089,-420.092 694.382,-420.173 695.242,-422.468"/>
<text text-anchor="middle" x="687" y="-443" font-family="Arial" font-size="10.00" fill="#0d1174">1.13%</text>
<text text-anchor="middle" x="687" y="-432" font-family="Arial" font-size="10.00" fill="#0d1174">3046×</text>
</g>
</g>
</svg>
