<?xml version="1.0" encoding="UTF-8" standalone="no"?>
<!DOCTYPE svg PUBLIC "-//W3C//DTD SVG 1.1//EN"
 "http://www.w3.org/Graphics/SVG/1.1/DTD/svg11.dtd">
<!-- Generated by graphviz version 2.38.0 (20140413.2041)
 -->
<!-- Title: %3 Pages: 1 -->
<svg width="1261pt" height="796pt"
 viewBox="0.00 0.00 1261.00 796.00" xmlns="http://www.w3.org/2000/svg" xmlns:xlink="http://www.w3.org/1999/xlink">
<g id="graph0" class="graph" transform="scale(1 1) rotate(0) translate(4 792)">
<title>%3</title>
<polygon fill="white" stroke="none" points="-4,4 -4,-792 1257,-792 1257,4 -4,4"/>
<!-- 32 -->
<g id="node1" class="node"><title>32</title>
<polygon fill="#0d0f74" stroke="#0d0f74" points="148,-236 0,-236 0,-184 148,-184 148,-236"/>
<text text-anchor="middle" x="74" y="-224" font-family="Arial" font-size="10.00" fill="#ffffff">PlotCurveItem:301:updateData</text>
<text text-anchor="middle" x="74" y="-213" font-family="Arial" font-size="10.00" fill="#ffffff">0.66%</text>
<text text-anchor="middle" x="74" y="-202" font-family="Arial" font-size="10.00" fill="#ffffff">(0.16%)</text>
<text text-anchor="middle" x="74" y="-191" font-family="Arial" font-size="10.00" fill="#ffffff">2761×</text>
</g>
<!-- 62 -->
<g id="node2" class="node"><title>62</title>
<polygon fill="#0d0f73" stroke="#0d0f73" points="289.5,-236 164.5,-236 164.5,-184 289.5,-184 289.5,-236"/>
<text text-anchor="middle" x="227" y="-224" font-family="Arial" font-size="10.00" fill="#ffffff">LabelItem:73:resizeEvent</text>
<text text-anchor="middle" x="227" y="-213" font-family="Arial" font-size="10.00" fill="#ffffff">0.55%</text>
<text text-anchor="middle" x="227" y="-202" font-family="Arial" font-size="10.00" fill="#ffffff">(0.15%)</text>
<text text-anchor="middle" x="227" y="-191" font-family="Arial" font-size="10.00" fill="#ffffff">4999×</text>
</g>
<!-- 324 -->
<g id="node3" class="node"><title>324</title>
<polygon fill="#0d0f74" stroke="#0d0f74" points="341.5,-144 216.5,-144 216.5,-92 341.5,-92 341.5,-144"/>
<text text-anchor="middle" x="279" y="-132" font-family="Arial" font-size="10.00" fill="#ffffff">LabelItem:116:updateMin</text>
<text text-anchor="middle" x="279" y="-121" font-family="Arial" font-size="10.00" fill="#ffffff">0.65%</text>
<text text-anchor="middle" x="279" y="-110" font-family="Arial" font-size="10.00" fill="#ffffff">(0.10%)</text>
<text text-anchor="middle" x="279" y="-99" font-family="Arial" font-size="10.00" fill="#ffffff">7725×</text>
</g>
<!-- 62&#45;&gt;324 -->
<g id="edge1" class="edge"><title>62&#45;&gt;324</title>
<path fill="none" stroke="#0d0e73" stroke-width="0.5" d="M241.485,-183.93C248.023,-172.615 255.777,-159.193 262.535,-147.497"/>
<polygon fill="#0d0e73" stroke="#0d0e73" stroke-width="0.5" points="263.722,-147.891 264.412,-144.248 261.601,-146.665 263.722,-147.891"/>
<text text-anchor="middle" x="274" y="-167" font-family="Arial" font-size="10.00" fill="#0d0e73">0.33%</text>
<text text-anchor="middle" x="274" y="-156" font-family="Arial" font-size="10.00" fill="#0d0e73">3636×</text>
</g>
<!-- 129 -->
<g id="node4" class="node"><title>129</title>
<polygon fill="#0d0f73" stroke="#0d0f73" points="760.5,-696 655.5,-696 655.5,-644 760.5,-644 760.5,-696"/>
<text text-anchor="middle" x="708" y="-684" font-family="Arial" font-size="10.00" fill="#ffffff">__init__:5:&lt;module&gt;</text>
<text text-anchor="middle" x="708" y="-673" font-family="Arial" font-size="10.00" fill="#ffffff">0.51%</text>
<text text-anchor="middle" x="708" y="-662" font-family="Arial" font-size="10.00" fill="#ffffff">(0.04%)</text>
<text text-anchor="middle" x="708" y="-651" font-family="Arial" font-size="10.00" fill="#ffffff">1×</text>
</g>
<!-- 143 -->
<g id="node5" class="node"><title>143</title>
<polygon fill="#fb1901" stroke="#fb1901" points="646.5,-696 507.5,-696 507.5,-644 646.5,-644 646.5,-696"/>
<text text-anchor="middle" x="577" y="-684" font-family="Arial" font-size="10.00" fill="#ffffff">~:0:&lt;built&#45;in method exec_&gt;</text>
<text text-anchor="middle" x="577" y="-673" font-family="Arial" font-size="10.00" fill="#ffffff">97.61%</text>
<text text-anchor="middle" x="577" y="-662" font-family="Arial" font-size="10.00" fill="#ffffff">(86.01%)</text>
<text text-anchor="middle" x="577" y="-651" font-family="Arial" font-size="10.00" fill="#ffffff">1×</text>
</g>
<!-- 260 -->
<g id="node6" class="node"><title>260</title>
<polygon fill="#0d1074" stroke="#0d1074" points="656,-420 498,-420 498,-368 656,-368 656,-420"/>
<text text-anchor="middle" x="577" y="-408" font-family="Arial" font-size="10.00" fill="#ffffff">PlotCurveItem:164:boundingRect</text>
<text text-anchor="middle" x="577" y="-397" font-family="Arial" font-size="10.00" fill="#ffffff">0.78%</text>
<text text-anchor="middle" x="577" y="-386" font-family="Arial" font-size="10.00" fill="#ffffff">(0.12%)</text>
<text text-anchor="middle" x="577" y="-375" font-family="Arial" font-size="10.00" fill="#ffffff">12472×</text>
</g>
<!-- 143&#45;&gt;260 -->
<g id="edge2" class="edge"><title>143&#45;&gt;260</title>
<path fill="none" stroke="#0d0f73" stroke-width="0.5" d="M577,-643.714C577,-592.739 577,-477.919 577,-424"/>
<polygon fill="#0d0f73" stroke="#0d0f73" stroke-width="0.5" points="578.225,-423.725 577,-420.225 575.775,-423.725 578.225,-423.725"/>
<text text-anchor="middle" x="591" y="-535" font-family="Arial" font-size="10.00" fill="#0d0f73">0.43%</text>
<text text-anchor="middle" x="591" y="-524" font-family="Arial" font-size="10.00" fill="#0d0f73">5291×</text>
</g>
<!-- 305 -->
<g id="node7" class="node"><title>305</title>
<polygon fill="#0d2179" stroke="#0d2179" points="354,-604 254,-604 254,-552 354,-552 354,-604"/>
<text text-anchor="middle" x="304" y="-592" font-family="Arial" font-size="10.00" fill="#ffffff">NIdaq4:667:graficar</text>
<text text-anchor="middle" x="304" y="-581" font-family="Arial" font-size="10.00" fill="#ffffff">4.71%</text>
<text text-anchor="middle" x="304" y="-570" font-family="Arial" font-size="10.00" fill="#ffffff">(0.38%)</text>
<text text-anchor="middle" x="304" y="-559" font-family="Arial" font-size="10.00" fill="#ffffff">463×</text>
</g>
<!-- 143&#45;&gt;305 -->
<g id="edge3" class="edge"><title>143&#45;&gt;305</title>
<path fill="none" stroke="#0d2179" stroke-width="0.5" d="M507.404,-646.056C460.847,-630.708 400.493,-610.811 357.652,-596.687"/>
<polygon fill="#0d2179" stroke="#0d2179" stroke-width="0.5" points="357.789,-595.443 354.081,-595.51 357.022,-597.77 357.789,-595.443"/>
<text text-anchor="middle" x="487" y="-627" font-family="Arial" font-size="10.00" fill="#0d2179">4.71%</text>
<text text-anchor="middle" x="487" y="-616" font-family="Arial" font-size="10.00" fill="#0d2179">463×</text>
</g>
<!-- 1204 -->
<g id="node8" class="node"><title>1204</title>
<polygon fill="#0d2a7b" stroke="#0d2a7b" points="769.5,-604 626.5,-604 626.5,-552 769.5,-552 769.5,-604"/>
<text text-anchor="middle" x="698" y="-592" font-family="Arial" font-size="10.00" fill="#ffffff">GraphicsView:152:paintEvent</text>
<text text-anchor="middle" x="698" y="-581" font-family="Arial" font-size="10.00" fill="#ffffff">6.64%</text>
<text text-anchor="middle" x="698" y="-570" font-family="Arial" font-size="10.00" fill="#ffffff">(0.01%)</text>
<text text-anchor="middle" x="698" y="-559" font-family="Arial" font-size="10.00" fill="#ffffff">719×</text>
</g>
<!-- 143&#45;&gt;1204 -->
<g id="edge4" class="edge"><title>143&#45;&gt;1204</title>
<path fill="none" stroke="#0d2a7b" stroke-width="0.5" d="M610.705,-643.93C626.308,-632.325 644.89,-618.503 660.892,-606.601"/>
<polygon fill="#0d2a7b" stroke="#0d2a7b" stroke-width="0.5" points="661.979,-607.32 664.056,-604.248 660.516,-605.354 661.979,-607.32"/>
<text text-anchor="middle" x="666" y="-627" font-family="Arial" font-size="10.00" fill="#0d2a7b">6.64%</text>
<text text-anchor="middle" x="666" y="-616" font-family="Arial" font-size="10.00" fill="#0d2a7b">719×</text>
</g>
<!-- 303 -->
<g id="node19" class="node"><title>303</title>
<polygon fill="#0d1a77" stroke="#0d1a77" points="363,-512 245,-512 245,-460 363,-460 363,-512"/>
<text text-anchor="middle" x="304" y="-500" font-family="Arial" font-size="10.00" fill="#ffffff">LegendItem:60:addItem</text>
<text text-anchor="middle" x="304" y="-489" font-family="Arial" font-size="10.00" fill="#ffffff">3.08%</text>
<text text-anchor="middle" x="304" y="-478" font-family="Arial" font-size="10.00" fill="#ffffff">(0.03%)</text>
<text text-anchor="middle" x="304" y="-467" font-family="Arial" font-size="10.00" fill="#ffffff">1361×</text>
</g>
<!-- 305&#45;&gt;303 -->
<g id="edge11" class="edge"><title>305&#45;&gt;303</title>
<path fill="none" stroke="#0d1a77" stroke-width="0.5" d="M304,-551.93C304,-540.712 304,-527.422 304,-515.798"/>
<polygon fill="#0d1a77" stroke="#0d1a77" stroke-width="0.5" points="305.225,-515.748 304,-512.248 302.775,-515.748 305.225,-515.748"/>
<text text-anchor="middle" x="318" y="-535" font-family="Arial" font-size="10.00" fill="#0d1a77">3.07%</text>
<text text-anchor="middle" x="318" y="-524" font-family="Arial" font-size="10.00" fill="#0d1a77">1356×</text>
</g>
<!-- 657 -->
<g id="node21" class="node"><title>657</title>
<polygon fill="#0d0f74" stroke="#0d0f74" points="203,-512 75,-512 75,-460 203,-460 203,-512"/>
<text text-anchor="middle" x="139" y="-500" font-family="Arial" font-size="10.00" fill="#ffffff">PlotDataItem:344:setData</text>
<text text-anchor="middle" x="139" y="-489" font-family="Arial" font-size="10.00" fill="#ffffff">0.62%</text>
<text text-anchor="middle" x="139" y="-478" font-family="Arial" font-size="10.00" fill="#ffffff">(0.06%)</text>
<text text-anchor="middle" x="139" y="-467" font-family="Arial" font-size="10.00" fill="#ffffff">1373×</text>
</g>
<!-- 305&#45;&gt;657 -->
<g id="edge12" class="edge"><title>305&#45;&gt;657</title>
<path fill="none" stroke="#0d0f74" stroke-width="0.5" d="M258.038,-551.93C236.317,-540.082 210.36,-525.924 188.236,-513.856"/>
<polygon fill="#0d0f74" stroke="#0d0f74" stroke-width="0.5" points="188.66,-512.692 185.001,-512.092 187.487,-514.843 188.66,-512.692"/>
<text text-anchor="middle" x="256" y="-535" font-family="Arial" font-size="10.00" fill="#0d0f74">0.62%</text>
<text text-anchor="middle" x="256" y="-524" font-family="Arial" font-size="10.00" fill="#0d0f74">1368×</text>
</g>
<!-- 412 -->
<g id="node22" class="node"><title>412</title>
<polygon fill="#0d257a" stroke="#0d257a" points="743.5,-512 652.5,-512 652.5,-460 743.5,-460 743.5,-512"/>
<text text-anchor="middle" x="698" y="-500" font-family="Arial" font-size="10.00" fill="#ffffff">~:0:&lt;paintEvent&gt;</text>
<text text-anchor="middle" x="698" y="-489" font-family="Arial" font-size="10.00" fill="#ffffff">5.54%</text>
<text text-anchor="middle" x="698" y="-478" font-family="Arial" font-size="10.00" fill="#ffffff">(1.19%)</text>
<text text-anchor="middle" x="698" y="-467" font-family="Arial" font-size="10.00" fill="#ffffff">719×</text>
</g>
<!-- 1204&#45;&gt;412 -->
<g id="edge36" class="edge"><title>1204&#45;&gt;412</title>
<path fill="none" stroke="#0d257a" stroke-width="0.5" d="M698,-551.93C698,-540.712 698,-527.422 698,-515.798"/>
<polygon fill="#0d257a" stroke="#0d257a" stroke-width="0.5" points="699.225,-515.748 698,-512.248 696.775,-515.748 699.225,-515.748"/>
<text text-anchor="middle" x="712" y="-535" font-family="Arial" font-size="10.00" fill="#0d257a">5.54%</text>
<text text-anchor="middle" x="712" y="-524" font-family="Arial" font-size="10.00" fill="#0d257a">719×</text>
</g>
<!-- 1203 -->
<g id="node38" class="node"><title>1203</title>
<polygon fill="#0d1174" stroke="#0d1174" points="954,-512 780,-512 780,-460 954,-460 954,-512"/>
<text text-anchor="middle" x="867" y="-500" font-family="Arial" font-size="10.00" fill="#ffffff">GraphicsScene:110:prepareForPaint</text>
<text text-anchor="middle" x="867" y="-489" font-family="Arial" font-size="10.00" fill="#ffffff">1.07%</text>
<text text-anchor="middle" x="867" y="-478" font-family="Arial" font-size="10.00" fill="#ffffff">(0.00%)</text>
<text text-anchor="middle" x="867" y="-467" font-family="Arial" font-size="10.00" fill="#ffffff">719×</text>
</g>
<!-- 1204&#45;&gt;1203 -->
<g id="edge37" class="edge"><title>1204&#45;&gt;1203</title>
<path fill="none" stroke="#0d1174" stroke-width="0.5" d="M745.076,-551.93C767.324,-540.082 793.91,-525.924 816.57,-513.856"/>
<polygon fill="#0d1174" stroke="#0d1174" stroke-width="0.5" points="817.37,-514.818 819.884,-512.092 816.219,-512.655 817.37,-514.818"/>
<text text-anchor="middle" x="817" y="-535" font-family="Arial" font-size="10.00" fill="#0d1174">1.07%</text>
<text text-anchor="middle" x="817" y="-524" font-family="Arial" font-size="10.00" fill="#0d1174">719×</text>
</g>
<!-- 187 -->
<g id="node9" class="node"><title>187</title>
<polygon fill="#0d1074" stroke="#0d1074" points="872,-696 770,-696 770,-644 872,-644 872,-696"/>
<text text-anchor="middle" x="821" y="-684" font-family="Arial" font-size="10.00" fill="#ffffff">NIdaq4:421:__init__</text>
<text text-anchor="middle" x="821" y="-673" font-family="Arial" font-size="10.00" fill="#ffffff">0.81%</text>
<text text-anchor="middle" x="821" y="-662" font-family="Arial" font-size="10.00" fill="#ffffff">(0.00%)</text>
<text text-anchor="middle" x="821" y="-651" font-family="Arial" font-size="10.00" fill="#ffffff">1×</text>
</g>
<!-- 199 -->
<g id="node10" class="node"><title>199</title>
<polygon fill="#0d1274" stroke="#0d1274" points="625.5,-328 506.5,-328 506.5,-276 625.5,-276 625.5,-328"/>
<text text-anchor="middle" x="566" y="-316" font-family="Arial" font-size="10.00" fill="#ffffff">PlotCurveItem:410:paint</text>
<text text-anchor="middle" x="566" y="-305" font-family="Arial" font-size="10.00" fill="#ffffff">1.31%</text>
<text text-anchor="middle" x="566" y="-294" font-family="Arial" font-size="10.00" fill="#ffffff">(0.07%)</text>
<text text-anchor="middle" x="566" y="-283" font-family="Arial" font-size="10.00" fill="#ffffff">3575×</text>
</g>
<!-- 694 -->
<g id="node11" class="node"><title>694</title>
<polygon fill="#0d0f74" stroke="#0d0f74" points="632,-236 500,-236 500,-184 632,-184 632,-236"/>
<text text-anchor="middle" x="566" y="-224" font-family="Arial" font-size="10.00" fill="#ffffff">PlotCurveItem:398:getPath</text>
<text text-anchor="middle" x="566" y="-213" font-family="Arial" font-size="10.00" fill="#ffffff">0.63%</text>
<text text-anchor="middle" x="566" y="-202" font-family="Arial" font-size="10.00" fill="#ffffff">(0.02%)</text>
<text text-anchor="middle" x="566" y="-191" font-family="Arial" font-size="10.00" fill="#ffffff">2139×</text>
</g>
<!-- 199&#45;&gt;694 -->
<g id="edge5" class="edge"><title>199&#45;&gt;694</title>
<path fill="none" stroke="#0d0f74" stroke-width="0.5" d="M566,-275.93C566,-264.712 566,-251.422 566,-239.798"/>
<polygon fill="#0d0f74" stroke="#0d0f74" stroke-width="0.5" points="567.225,-239.748 566,-236.248 564.775,-239.748 567.225,-239.748"/>
<text text-anchor="middle" x="580" y="-259" font-family="Arial" font-size="10.00" fill="#0d0f74">0.63%</text>
<text text-anchor="middle" x="580" y="-248" font-family="Arial" font-size="10.00" fill="#0d0f74">2139×</text>
</g>
<!-- 799 -->
<g id="node12" class="node"><title>799</title>
<polygon fill="#0d0f73" stroke="#0d0f73" points="794.5,-236 641.5,-236 641.5,-184 794.5,-184 794.5,-236"/>
<text text-anchor="middle" x="718" y="-224" font-family="Arial" font-size="10.00" fill="#ffffff">~:0:&lt;built&#45;in method drawPath&gt;</text>
<text text-anchor="middle" x="718" y="-213" font-family="Arial" font-size="10.00" fill="#ffffff">0.53%</text>
<text text-anchor="middle" x="718" y="-202" font-family="Arial" font-size="10.00" fill="#ffffff">(0.53%)</text>
<text text-anchor="middle" x="718" y="-191" font-family="Arial" font-size="10.00" fill="#ffffff">2858×</text>
</g>
<!-- 199&#45;&gt;799 -->
<g id="edge6" class="edge"><title>199&#45;&gt;799</title>
<path fill="none" stroke="#0d0f73" stroke-width="0.5" d="M608.34,-275.93C628.269,-264.13 652.066,-250.04 672.392,-238.005"/>
<polygon fill="#0d0f73" stroke="#0d0f73" stroke-width="0.5" points="673.236,-238.929 675.623,-236.092 671.987,-236.821 673.236,-238.929"/>
<text text-anchor="middle" x="675" y="-259" font-family="Arial" font-size="10.00" fill="#0d0f73">0.52%</text>
<text text-anchor="middle" x="675" y="-248" font-family="Arial" font-size="10.00" fill="#0d0f73">2139×</text>
</g>
<!-- 723 -->
<g id="node34" class="node"><title>723</title>
<polygon fill="#0d0f74" stroke="#0d0f74" points="644,-144 488,-144 488,-92 644,-92 644,-144"/>
<text text-anchor="middle" x="566" y="-132" font-family="Arial" font-size="10.00" fill="#ffffff">PlotCurveItem:374:generatePath</text>
<text text-anchor="middle" x="566" y="-121" font-family="Arial" font-size="10.00" fill="#ffffff">0.61%</text>
<text text-anchor="middle" x="566" y="-110" font-family="Arial" font-size="10.00" fill="#ffffff">(0.02%)</text>
<text text-anchor="middle" x="566" y="-99" font-family="Arial" font-size="10.00" fill="#ffffff">1368×</text>
</g>
<!-- 694&#45;&gt;723 -->
<g id="edge25" class="edge"><title>694&#45;&gt;723</title>
<path fill="none" stroke="#0d0f74" stroke-width="0.5" d="M566,-183.93C566,-172.712 566,-159.422 566,-147.798"/>
<polygon fill="#0d0f74" stroke="#0d0f74" stroke-width="0.5" points="567.225,-147.748 566,-144.248 564.775,-147.748 567.225,-147.748"/>
<text text-anchor="middle" x="580" y="-167" font-family="Arial" font-size="10.00" fill="#0d0f74">0.61%</text>
<text text-anchor="middle" x="580" y="-156" font-family="Arial" font-size="10.00" fill="#0d0f74">1368×</text>
</g>
<!-- 201 -->
<g id="node13" class="node"><title>201</title>
<polygon fill="#0d0f74" stroke="#0d0f74" points="935,-328 771,-328 771,-276 935,-276 935,-328"/>
<text text-anchor="middle" x="853" y="-316" font-family="Arial" font-size="10.00" fill="#ffffff">AxisItem:766:generateDrawSpecs</text>
<text text-anchor="middle" x="853" y="-305" font-family="Arial" font-size="10.00" fill="#ffffff">0.66%</text>
<text text-anchor="middle" x="853" y="-294" font-family="Arial" font-size="10.00" fill="#ffffff">(0.16%)</text>
<text text-anchor="middle" x="853" y="-283" font-family="Arial" font-size="10.00" fill="#ffffff">263×</text>
</g>
<!-- 213 -->
<g id="node14" class="node"><title>213</title>
<polygon fill="#0d1074" stroke="#0d1074" points="986.5,-696 881.5,-696 881.5,-644 986.5,-644 986.5,-696"/>
<text text-anchor="middle" x="934" y="-684" font-family="Arial" font-size="10.00" fill="#ffffff">__init__:3:&lt;module&gt;</text>
<text text-anchor="middle" x="934" y="-673" font-family="Arial" font-size="10.00" fill="#ffffff">0.88%</text>
<text text-anchor="middle" x="934" y="-662" font-family="Arial" font-size="10.00" fill="#ffffff">(0.01%)</text>
<text text-anchor="middle" x="934" y="-651" font-family="Arial" font-size="10.00" fill="#ffffff">1×</text>
</g>
<!-- 274 -->
<g id="node15" class="node"><title>274</title>
<polygon fill="#0d0f74" stroke="#0d0f74" points="1008.5,-604 859.5,-604 859.5,-552 1008.5,-552 1008.5,-604"/>
<text text-anchor="middle" x="934" y="-592" font-family="Arial" font-size="10.00" fill="#ffffff">DAQmxFunctions:1:&lt;module&gt;</text>
<text text-anchor="middle" x="934" y="-581" font-family="Arial" font-size="10.00" fill="#ffffff">0.59%</text>
<text text-anchor="middle" x="934" y="-570" font-family="Arial" font-size="10.00" fill="#ffffff">(0.12%)</text>
<text text-anchor="middle" x="934" y="-559" font-family="Arial" font-size="10.00" fill="#ffffff">1×</text>
</g>
<!-- 213&#45;&gt;274 -->
<g id="edge7" class="edge"><title>213&#45;&gt;274</title>
<path fill="none" stroke="#0d0f74" stroke-width="0.5" d="M934,-643.93C934,-632.712 934,-619.422 934,-607.798"/>
<polygon fill="#0d0f74" stroke="#0d0f74" stroke-width="0.5" points="935.225,-607.748 934,-604.248 932.775,-607.748 935.225,-607.748"/>
<text text-anchor="middle" x="948" y="-627" font-family="Arial" font-size="10.00" fill="#0d0f74">0.59%</text>
<text text-anchor="middle" x="948" y="-616" font-family="Arial" font-size="10.00" fill="#0d0f74">1×</text>
</g>
<!-- 253 -->
<g id="node16" class="node"><title>253</title>
<polygon fill="#0d1074" stroke="#0d1074" points="140,-328 8,-328 8,-276 140,-276 140,-328"/>
<text text-anchor="middle" x="74" y="-316" font-family="Arial" font-size="10.00" fill="#ffffff">PlotCurveItem:265:setData</text>
<text text-anchor="middle" x="74" y="-305" font-family="Arial" font-size="10.00" fill="#ffffff">0.67%</text>
<text text-anchor="middle" x="74" y="-294" font-family="Arial" font-size="10.00" fill="#ffffff">(0.01%)</text>
<text text-anchor="middle" x="74" y="-283" font-family="Arial" font-size="10.00" fill="#ffffff">2761×</text>
</g>
<!-- 253&#45;&gt;32 -->
<g id="edge8" class="edge"><title>253&#45;&gt;32</title>
<path fill="none" stroke="#0d0f74" stroke-width="0.5" d="M74,-275.93C74,-264.712 74,-251.422 74,-239.798"/>
<polygon fill="#0d0f74" stroke="#0d0f74" stroke-width="0.5" points="75.2251,-239.748 74,-236.248 72.7751,-239.748 75.2251,-239.748"/>
<text text-anchor="middle" x="88" y="-259" font-family="Arial" font-size="10.00" fill="#0d0f74">0.66%</text>
<text text-anchor="middle" x="88" y="-248" font-family="Arial" font-size="10.00" fill="#0d0f74">2761×</text>
</g>
<!-- 261 -->
<g id="node17" class="node"><title>261</title>
<polygon fill="#0d0f74" stroke="#0d0f74" points="1232.5,-144 1083.5,-144 1083.5,-92 1232.5,-92 1232.5,-144"/>
<text text-anchor="middle" x="1158" y="-132" font-family="Arial" font-size="10.00" fill="#ffffff">ViewBox:1366:childrenBounds</text>
<text text-anchor="middle" x="1158" y="-121" font-family="Arial" font-size="10.00" fill="#ffffff">0.63%</text>
<text text-anchor="middle" x="1158" y="-110" font-family="Arial" font-size="10.00" fill="#ffffff">(0.25%)</text>
<text text-anchor="middle" x="1158" y="-99" font-family="Arial" font-size="10.00" fill="#ffffff">731×</text>
</g>
<!-- 302 -->
<g id="node18" class="node"><title>302</title>
<polygon fill="#0d1174" stroke="#0d1174" points="294.5,-420 157.5,-420 157.5,-368 294.5,-368 294.5,-420"/>
<text text-anchor="middle" x="226" y="-408" font-family="Arial" font-size="10.00" fill="#ffffff">LegendItem:104:updateSize</text>
<text text-anchor="middle" x="226" y="-397" font-family="Arial" font-size="10.00" fill="#ffffff">1.10%</text>
<text text-anchor="middle" x="226" y="-386" font-family="Arial" font-size="10.00" fill="#ffffff">(0.03%)</text>
<text text-anchor="middle" x="226" y="-375" font-family="Arial" font-size="10.00" fill="#ffffff">1361×</text>
</g>
<!-- 303&#45;&gt;302 -->
<g id="edge9" class="edge"><title>303&#45;&gt;302</title>
<path fill="none" stroke="#0d1174" stroke-width="0.5" d="M282.273,-459.93C272.299,-448.421 260.436,-434.734 250.179,-422.899"/>
<polygon fill="#0d1174" stroke="#0d1174" stroke-width="0.5" points="251.099,-422.09 247.881,-420.248 249.248,-423.695 251.099,-422.09"/>
<text text-anchor="middle" x="289" y="-443" font-family="Arial" font-size="10.00" fill="#0d1174">1.10%</text>
<text text-anchor="middle" x="289" y="-432" font-family="Arial" font-size="10.00" fill="#0d1174">1361×</text>
</g>
<!-- 902 -->
<g id="node20" class="node"><title>902</title>
<polygon fill="#0d1475" stroke="#0d1475" points="412.5,-420 303.5,-420 303.5,-368 412.5,-368 412.5,-420"/>
<text text-anchor="middle" x="358" y="-408" font-family="Arial" font-size="10.00" fill="#ffffff">LabelItem:19:__init__</text>
<text text-anchor="middle" x="358" y="-397" font-family="Arial" font-size="10.00" fill="#ffffff">1.79%</text>
<text text-anchor="middle" x="358" y="-386" font-family="Arial" font-size="10.00" fill="#ffffff">(0.05%)</text>
<text text-anchor="middle" x="358" y="-375" font-family="Arial" font-size="10.00" fill="#ffffff">1363×</text>
</g>
<!-- 303&#45;&gt;902 -->
<g id="edge10" class="edge"><title>303&#45;&gt;902</title>
<path fill="none" stroke="#0d1475" stroke-width="0.5" d="M319.042,-459.93C325.831,-448.615 333.884,-435.193 340.902,-423.497"/>
<polygon fill="#0d1475" stroke="#0d1475" stroke-width="0.5" points="342.101,-423.879 342.851,-420.248 340,-422.619 342.101,-423.879"/>
<text text-anchor="middle" x="352" y="-443" font-family="Arial" font-size="10.00" fill="#0d1475">1.78%</text>
<text text-anchor="middle" x="352" y="-432" font-family="Arial" font-size="10.00" fill="#0d1475">1361×</text>
</g>
<!-- 1016 -->
<g id="node36" class="node"><title>1016</title>
<polygon fill="#0d1375" stroke="#0d1375" points="369.5,-328 262.5,-328 262.5,-276 369.5,-276 369.5,-328"/>
<text text-anchor="middle" x="316" y="-316" font-family="Arial" font-size="10.00" fill="#ffffff">LabelItem:36:setText</text>
<text text-anchor="middle" x="316" y="-305" font-family="Arial" font-size="10.00" fill="#ffffff">1.49%</text>
<text text-anchor="middle" x="316" y="-294" font-family="Arial" font-size="10.00" fill="#ffffff">(0.04%)</text>
<text text-anchor="middle" x="316" y="-283" font-family="Arial" font-size="10.00" fill="#ffffff">1363×</text>
</g>
<!-- 902&#45;&gt;1016 -->
<g id="edge31" class="edge"><title>902&#45;&gt;1016</title>
<path fill="none" stroke="#0d1375" stroke-width="0.5" d="M346.301,-367.93C341.02,-356.615 334.757,-343.193 329.299,-331.497"/>
<polygon fill="#0d1375" stroke="#0d1375" stroke-width="0.5" points="330.373,-330.901 327.782,-328.248 328.152,-331.937 330.373,-330.901"/>
<text text-anchor="middle" x="356" y="-351" font-family="Arial" font-size="10.00" fill="#0d1375">1.49%</text>
<text text-anchor="middle" x="356" y="-340" font-family="Arial" font-size="10.00" fill="#0d1375">1363×</text>
</g>
<!-- 762 -->
<g id="node30" class="node"><title>762</title>
<polygon fill="#0d1074" stroke="#0d1074" points="148,-420 0,-420 0,-368 148,-368 148,-420"/>
<text text-anchor="middle" x="74" y="-408" font-family="Arial" font-size="10.00" fill="#ffffff">PlotDataItem:471:updateItems</text>
<text text-anchor="middle" x="74" y="-397" font-family="Arial" font-size="10.00" fill="#ffffff">0.83%</text>
<text text-anchor="middle" x="74" y="-386" font-family="Arial" font-size="10.00" fill="#ffffff">(0.13%)</text>
<text text-anchor="middle" x="74" y="-375" font-family="Arial" font-size="10.00" fill="#ffffff">2736×</text>
</g>
<!-- 657&#45;&gt;762 -->
<g id="edge23" class="edge"><title>657&#45;&gt;762</title>
<path fill="none" stroke="#0d0f73" stroke-width="0.5" d="M120.894,-459.93C112.652,-448.518 102.862,-434.963 94.3652,-423.198"/>
<polygon fill="#0d0f73" stroke="#0d0f73" stroke-width="0.5" points="95.2768,-422.368 92.2345,-420.248 93.2906,-423.802 95.2768,-422.368"/>
<text text-anchor="middle" x="129" y="-443" font-family="Arial" font-size="10.00" fill="#0d0f73">0.49%</text>
<text text-anchor="middle" x="129" y="-432" font-family="Arial" font-size="10.00" fill="#0d0f73">1368×</text>
</g>
<!-- 412&#45;&gt;260 -->
<g id="edge13" class="edge"><title>412&#45;&gt;260</title>
<path fill="none" stroke="#0d0e73" stroke-width="0.5" d="M664.295,-459.93C648.692,-448.325 630.11,-434.503 614.108,-422.601"/>
<polygon fill="#0d0e73" stroke="#0d0e73" stroke-width="0.5" points="614.484,-421.354 610.944,-420.248 613.021,-423.32 614.484,-421.354"/>
<text text-anchor="middle" x="666" y="-443" font-family="Arial" font-size="10.00" fill="#0d0e73">0.35%</text>
<text text-anchor="middle" x="666" y="-432" font-family="Arial" font-size="10.00" fill="#0d0e73">7155×</text>
</g>
<!-- 539 -->
<g id="node23" class="node"><title>539</title>
<polygon fill="#0d1575" stroke="#0d1575" points="731,-420 665,-420 665,-368 731,-368 731,-420"/>
<text text-anchor="middle" x="698" y="-408" font-family="Arial" font-size="10.00" fill="#ffffff">debug:88:w</text>
<text text-anchor="middle" x="698" y="-397" font-family="Arial" font-size="10.00" fill="#ffffff">1.94%</text>
<text text-anchor="middle" x="698" y="-386" font-family="Arial" font-size="10.00" fill="#ffffff">(0.05%)</text>
<text text-anchor="middle" x="698" y="-375" font-family="Arial" font-size="10.00" fill="#ffffff">5011×</text>
</g>
<!-- 412&#45;&gt;539 -->
<g id="edge14" class="edge"><title>412&#45;&gt;539</title>
<path fill="none" stroke="#0d1575" stroke-width="0.5" d="M698,-459.93C698,-448.712 698,-435.422 698,-423.798"/>
<polygon fill="#0d1575" stroke="#0d1575" stroke-width="0.5" points="699.225,-423.748 698,-420.248 696.775,-423.748 699.225,-423.748"/>
<text text-anchor="middle" x="712" y="-443" font-family="Arial" font-size="10.00" fill="#0d1575">1.94%</text>
<text text-anchor="middle" x="712" y="-432" font-family="Arial" font-size="10.00" fill="#0d1575">5011×</text>
</g>
<!-- 847 -->
<g id="node24" class="node"><title>847</title>
<polygon fill="#0d1375" stroke="#0d1375" points="902,-420 804,-420 804,-368 902,-368 902,-420"/>
<text text-anchor="middle" x="853" y="-408" font-family="Arial" font-size="10.00" fill="#ffffff">AxisItem:519:paint</text>
<text text-anchor="middle" x="853" y="-397" font-family="Arial" font-size="10.00" fill="#ffffff">1.47%</text>
<text text-anchor="middle" x="853" y="-386" font-family="Arial" font-size="10.00" fill="#ffffff">(0.03%)</text>
<text text-anchor="middle" x="853" y="-375" font-family="Arial" font-size="10.00" fill="#ffffff">1436×</text>
</g>
<!-- 412&#45;&gt;847 -->
<g id="edge15" class="edge"><title>412&#45;&gt;847</title>
<path fill="none" stroke="#0d1375" stroke-width="0.5" d="M741.176,-459.93C761.581,-448.082 785.965,-433.924 806.748,-421.856"/>
<polygon fill="#0d1375" stroke="#0d1375" stroke-width="0.5" points="807.375,-422.908 809.787,-420.092 806.145,-420.79 807.375,-422.908"/>
<text text-anchor="middle" x="808" y="-443" font-family="Arial" font-size="10.00" fill="#0d1375">1.47%</text>
<text text-anchor="middle" x="808" y="-432" font-family="Arial" font-size="10.00" fill="#0d1375">1436×</text>
</g>
<!-- 539&#45;&gt;199 -->
<g id="edge20" class="edge"><title>539&#45;&gt;199</title>
<path fill="none" stroke="#0d1274" stroke-width="0.5" d="M664.691,-370.289C646.93,-358.18 624.944,-343.189 606.234,-330.433"/>
<polygon fill="#0d1274" stroke="#0d1274" stroke-width="0.5" points="606.604,-329.202 603.022,-328.242 605.223,-331.226 606.604,-329.202"/>
<text text-anchor="middle" x="662" y="-351" font-family="Arial" font-size="10.00" fill="#0d1274">1.31%</text>
<text text-anchor="middle" x="662" y="-340" font-family="Arial" font-size="10.00" fill="#0d1274">3575×</text>
</g>
<!-- 538 -->
<g id="node26" class="node"><title>538</title>
<polygon fill="#0d0f73" stroke="#0d0f73" points="761.5,-328 634.5,-328 634.5,-276 761.5,-276 761.5,-328"/>
<text text-anchor="middle" x="698" y="-316" font-family="Arial" font-size="10.00" fill="#ffffff">ScatterPlotItem:722:paint</text>
<text text-anchor="middle" x="698" y="-305" font-family="Arial" font-size="10.00" fill="#ffffff">0.59%</text>
<text text-anchor="middle" x="698" y="-294" font-family="Arial" font-size="10.00" fill="#ffffff">(0.09%)</text>
<text text-anchor="middle" x="698" y="-283" font-family="Arial" font-size="10.00" fill="#ffffff">1436×</text>
</g>
<!-- 539&#45;&gt;538 -->
<g id="edge21" class="edge"><title>539&#45;&gt;538</title>
<path fill="none" stroke="#0d0f73" stroke-width="0.5" d="M698,-367.93C698,-356.712 698,-343.422 698,-331.798"/>
<polygon fill="#0d0f73" stroke="#0d0f73" stroke-width="0.5" points="699.225,-331.748 698,-328.248 696.775,-331.748 699.225,-331.748"/>
<text text-anchor="middle" x="712" y="-351" font-family="Arial" font-size="10.00" fill="#0d0f73">0.59%</text>
<text text-anchor="middle" x="712" y="-340" font-family="Arial" font-size="10.00" fill="#0d0f73">1436×</text>
</g>
<!-- 847&#45;&gt;201 -->
<g id="edge29" class="edge"><title>847&#45;&gt;201</title>
<path fill="none" stroke="#0d0f74" stroke-width="0.5" d="M853,-367.93C853,-356.712 853,-343.422 853,-331.798"/>
<polygon fill="#0d0f74" stroke="#0d0f74" stroke-width="0.5" points="854.225,-331.748 853,-328.248 851.775,-331.748 854.225,-331.748"/>
<text text-anchor="middle" x="867" y="-351" font-family="Arial" font-size="10.00" fill="#0d0f74">0.66%</text>
<text text-anchor="middle" x="867" y="-340" font-family="Arial" font-size="10.00" fill="#0d0f74">263×</text>
</g>
<!-- 1396 -->
<g id="node35" class="node"><title>1396</title>
<polygon fill="#0d0f74" stroke="#0d0f74" points="1075.5,-328 944.5,-328 944.5,-276 1075.5,-276 1075.5,-328"/>
<text text-anchor="middle" x="1010" y="-316" font-family="Arial" font-size="10.00" fill="#ffffff">~:0:&lt;built&#45;in method play&gt;</text>
<text text-anchor="middle" x="1010" y="-305" font-family="Arial" font-size="10.00" fill="#ffffff">0.59%</text>
<text text-anchor="middle" x="1010" y="-294" font-family="Arial" font-size="10.00" fill="#ffffff">(0.59%)</text>
<text text-anchor="middle" x="1010" y="-283" font-family="Arial" font-size="10.00" fill="#ffffff">1436×</text>
</g>
<!-- 847&#45;&gt;1396 -->
<g id="edge30" class="edge"><title>847&#45;&gt;1396</title>
<path fill="none" stroke="#0d0f74" stroke-width="0.5" d="M896.733,-367.93C917.402,-356.082 942.1,-341.924 963.151,-329.856"/>
<polygon fill="#0d0f74" stroke="#0d0f74" stroke-width="0.5" points="963.802,-330.895 966.229,-328.092 962.584,-328.769 963.802,-330.895"/>
<text text-anchor="middle" x="965" y="-351" font-family="Arial" font-size="10.00" fill="#0d0f74">0.59%</text>
<text text-anchor="middle" x="965" y="-340" font-family="Arial" font-size="10.00" fill="#0d0f74">1436×</text>
</g>
<!-- 424 -->
<g id="node25" class="node"><title>424</title>
<polygon fill="#ff0000" stroke="#ff0000" points="814.5,-788 713.5,-788 713.5,-736 814.5,-736 814.5,-788"/>
<text text-anchor="middle" x="764" y="-776" font-family="Arial" font-size="10.00" fill="#ffffff">NIdaq4:4:&lt;module&gt;</text>
<text text-anchor="middle" x="764" y="-765" font-family="Arial" font-size="10.00" fill="#ffffff">100.00%</text>
<text text-anchor="middle" x="764" y="-754" font-family="Arial" font-size="10.00" fill="#ffffff">(0.09%)</text>
<text text-anchor="middle" x="764" y="-743" font-family="Arial" font-size="10.00" fill="#ffffff">1×</text>
</g>
<!-- 424&#45;&gt;129 -->
<g id="edge16" class="edge"><title>424&#45;&gt;129</title>
<path fill="none" stroke="#0d0f73" stroke-width="0.5" d="M748.401,-735.93C741.36,-724.615 733.009,-711.193 725.732,-699.497"/>
<polygon fill="#0d0f73" stroke="#0d0f73" stroke-width="0.5" points="726.599,-698.572 723.71,-696.248 724.519,-699.867 726.599,-698.572"/>
<text text-anchor="middle" x="757" y="-719" font-family="Arial" font-size="10.00" fill="#0d0f73">0.51%</text>
<text text-anchor="middle" x="757" y="-708" font-family="Arial" font-size="10.00" fill="#0d0f73">1×</text>
</g>
<!-- 424&#45;&gt;143 -->
<g id="edge17" class="edge"><title>424&#45;&gt;143</title>
<path fill="none" stroke="#fb1901" stroke-width="3.9" d="M713.395,-736.645C690.184,-725.474 662.471,-712.136 638.106,-700.409"/>
<polygon fill="#fb1901" stroke="#fb1901" stroke-width="3.9" points="639.372,-697.173 628.948,-696.002 636.366,-703.417 639.372,-697.173"/>
<text text-anchor="middle" x="710" y="-719" font-family="Arial" font-size="10.00" fill="#fb1901">97.61%</text>
<text text-anchor="middle" x="710" y="-708" font-family="Arial" font-size="10.00" fill="#fb1901">1×</text>
</g>
<!-- 424&#45;&gt;187 -->
<g id="edge18" class="edge"><title>424&#45;&gt;187</title>
<path fill="none" stroke="#0d1074" stroke-width="0.5" d="M779.878,-735.93C787.044,-724.615 795.544,-711.193 802.952,-699.497"/>
<polygon fill="#0d1074" stroke="#0d1074" stroke-width="0.5" points="804.172,-699.86 805.01,-696.248 802.102,-698.549 804.172,-699.86"/>
<text text-anchor="middle" x="814" y="-719" font-family="Arial" font-size="10.00" fill="#0d1074">0.81%</text>
<text text-anchor="middle" x="814" y="-708" font-family="Arial" font-size="10.00" fill="#0d1074">1×</text>
</g>
<!-- 424&#45;&gt;213 -->
<g id="edge19" class="edge"><title>424&#45;&gt;213</title>
<path fill="none" stroke="#0d1074" stroke-width="0.5" d="M813.068,-735.848C818.785,-732.881 824.526,-729.883 830,-727 847.775,-717.637 867.176,-707.239 884.356,-697.969"/>
<polygon fill="#0d1074" stroke="#0d1074" stroke-width="0.5" points="885.263,-698.872 887.761,-696.131 884.099,-696.716 885.263,-698.872"/>
<text text-anchor="middle" x="885" y="-719" font-family="Arial" font-size="10.00" fill="#0d1074">0.88%</text>
<text text-anchor="middle" x="885" y="-708" font-family="Arial" font-size="10.00" fill="#0d1074">1×</text>
</g>
<!-- 544 -->
<g id="node27" class="node"><title>544</title>
<polygon fill="#0d1174" stroke="#0d1174" points="1253,-420 961,-420 961,-368 1253,-368 1253,-420"/>
<text text-anchor="middle" x="1107" y="-408" font-family="Arial" font-size="10.00" fill="#ffffff">~:0:&lt;method &#39;emit&#39; of &#39;PyQt4.QtCore.pyqtBoundSignal&#39; objects&gt;</text>
<text text-anchor="middle" x="1107" y="-397" font-family="Arial" font-size="10.00" fill="#ffffff">1.11%</text>
<text text-anchor="middle" x="1107" y="-386" font-family="Arial" font-size="10.00" fill="#ffffff">(0.13%)</text>
<text text-anchor="middle" x="1107" y="-375" font-family="Arial" font-size="10.00" fill="#ffffff">6173×</text>
</g>
<!-- 833 -->
<g id="node28" class="node"><title>833</title>
<polygon fill="#0d1174" stroke="#0d1174" points="1231,-328 1085,-328 1085,-276 1231,-276 1231,-328"/>
<text text-anchor="middle" x="1158" y="-316" font-family="Arial" font-size="10.00" fill="#ffffff">ViewBox:294:prepareForPaint</text>
<text text-anchor="middle" x="1158" y="-305" font-family="Arial" font-size="10.00" fill="#ffffff">1.06%</text>
<text text-anchor="middle" x="1158" y="-294" font-family="Arial" font-size="10.00" fill="#ffffff">(0.01%)</text>
<text text-anchor="middle" x="1158" y="-283" font-family="Arial" font-size="10.00" fill="#ffffff">719×</text>
</g>
<!-- 544&#45;&gt;833 -->
<g id="edge22" class="edge"><title>544&#45;&gt;833</title>
<path fill="none" stroke="#0d1174" stroke-width="0.5" d="M1121.21,-367.93C1127.62,-356.615 1135.22,-343.193 1141.85,-331.497"/>
<polygon fill="#0d1174" stroke="#0d1174" stroke-width="0.5" points="1143.03,-331.897 1143.69,-328.248 1140.9,-330.689 1143.03,-331.897"/>
<text text-anchor="middle" x="1152" y="-351" font-family="Arial" font-size="10.00" fill="#0d1174">1.06%</text>
<text text-anchor="middle" x="1152" y="-340" font-family="Arial" font-size="10.00" fill="#0d1174">717×</text>
</g>
<!-- 669 -->
<g id="node32" class="node"><title>669</title>
<polygon fill="#0d1174" stroke="#0d1174" points="1235,-236 1081,-236 1081,-184 1235,-184 1235,-236"/>
<text text-anchor="middle" x="1158" y="-224" font-family="Arial" font-size="10.00" fill="#ffffff">ViewBox:851:updateAutoRange</text>
<text text-anchor="middle" x="1158" y="-213" font-family="Arial" font-size="10.00" fill="#ffffff">0.97%</text>
<text text-anchor="middle" x="1158" y="-202" font-family="Arial" font-size="10.00" fill="#ffffff">(0.07%)</text>
<text text-anchor="middle" x="1158" y="-191" font-family="Arial" font-size="10.00" fill="#ffffff">731×</text>
</g>
<!-- 833&#45;&gt;669 -->
<g id="edge28" class="edge"><title>833&#45;&gt;669</title>
<path fill="none" stroke="#0d1174" stroke-width="0.5" d="M1158,-275.93C1158,-264.712 1158,-251.422 1158,-239.798"/>
<polygon fill="#0d1174" stroke="#0d1174" stroke-width="0.5" points="1159.23,-239.748 1158,-236.248 1156.78,-239.748 1159.23,-239.748"/>
<text text-anchor="middle" x="1172" y="-259" font-family="Arial" font-size="10.00" fill="#0d1174">0.95%</text>
<text text-anchor="middle" x="1172" y="-248" font-family="Arial" font-size="10.00" fill="#0d1174">711×</text>
</g>
<!-- 581 -->
<g id="node29" class="node"><title>581</title>
<polygon fill="#0d1074" stroke="#0d1074" points="1046.5,-788 823.5,-788 823.5,-736 1046.5,-736 1046.5,-788"/>
<text text-anchor="middle" x="935" y="-776" font-family="Arial" font-size="10.00" fill="#ffffff">GraphicsWidgetAnchor:96:__geometryChanged</text>
<text text-anchor="middle" x="935" y="-765" font-family="Arial" font-size="10.00" fill="#ffffff">0.69%</text>
<text text-anchor="middle" x="935" y="-754" font-family="Arial" font-size="10.00" fill="#ffffff">(0.12%)</text>
<text text-anchor="middle" x="935" y="-743" font-family="Arial" font-size="10.00" fill="#ffffff">8190×</text>
</g>
<!-- 762&#45;&gt;253 -->
<g id="edge27" class="edge"><title>762&#45;&gt;253</title>
<path fill="none" stroke="#0d1074" stroke-width="0.5" d="M74,-367.93C74,-356.712 74,-343.422 74,-331.798"/>
<polygon fill="#0d1074" stroke="#0d1074" stroke-width="0.5" points="75.2251,-331.748 74,-328.248 72.7751,-331.748 75.2251,-331.748"/>
<text text-anchor="middle" x="88" y="-351" font-family="Arial" font-size="10.00" fill="#0d1074">0.67%</text>
<text text-anchor="middle" x="88" y="-340" font-family="Arial" font-size="10.00" fill="#0d1074">2736×</text>
</g>
<!-- 666 -->
<g id="node31" class="node"><title>666</title>
<polygon fill="#0d0f74" stroke="#0d0f74" points="637.5,-52 494.5,-52 494.5,-0 637.5,-0 637.5,-52"/>
<text text-anchor="middle" x="566" y="-40" font-family="Arial" font-size="10.00" fill="#ffffff">functions:1250:arrayToQPath</text>
<text text-anchor="middle" x="566" y="-29" font-family="Arial" font-size="10.00" fill="#ffffff">0.60%</text>
<text text-anchor="middle" x="566" y="-18" font-family="Arial" font-size="10.00" fill="#ffffff">(0.57%)</text>
<text text-anchor="middle" x="566" y="-7" font-family="Arial" font-size="10.00" fill="#ffffff">1368×</text>
</g>
<!-- 669&#45;&gt;261 -->
<g id="edge24" class="edge"><title>669&#45;&gt;261</title>
<path fill="none" stroke="#0d0f74" stroke-width="0.5" d="M1158,-183.93C1158,-172.712 1158,-159.422 1158,-147.798"/>
<polygon fill="#0d0f74" stroke="#0d0f74" stroke-width="0.5" points="1159.23,-147.748 1158,-144.248 1156.78,-147.748 1159.23,-147.748"/>
<text text-anchor="middle" x="1172" y="-167" font-family="Arial" font-size="10.00" fill="#0d0f74">0.63%</text>
<text text-anchor="middle" x="1172" y="-156" font-family="Arial" font-size="10.00" fill="#0d0f74">731×</text>
</g>
<!-- 677 -->
<g id="node33" class="node"><title>677</title>
<polygon fill="#0d0f73" stroke="#0d0f73" points="1164,-788 1056,-788 1056,-736 1164,-736 1164,-788"/>
<text text-anchor="middle" x="1110" y="-776" font-family="Arial" font-size="10.00" fill="#ffffff">functions:246:mkPen</text>
<text text-anchor="middle" x="1110" y="-765" font-family="Arial" font-size="10.00" fill="#ffffff">0.56%</text>
<text text-anchor="middle" x="1110" y="-754" font-family="Arial" font-size="10.00" fill="#ffffff">(0.24%)</text>
<text text-anchor="middle" x="1110" y="-743" font-family="Arial" font-size="10.00" fill="#ffffff">17282×</text>
</g>
<!-- 723&#45;&gt;666 -->
<g id="edge26" class="edge"><title>723&#45;&gt;666</title>
<path fill="none" stroke="#0d0f74" stroke-width="0.5" d="M566,-91.93C566,-80.7116 566,-67.4223 566,-55.7978"/>
<polygon fill="#0d0f74" stroke="#0d0f74" stroke-width="0.5" points="567.225,-55.7477 566,-52.2477 564.775,-55.7478 567.225,-55.7477"/>
<text text-anchor="middle" x="580" y="-75" font-family="Arial" font-size="10.00" fill="#0d0f74">0.60%</text>
<text text-anchor="middle" x="580" y="-64" font-family="Arial" font-size="10.00" fill="#0d0f74">1368×</text>
</g>
<!-- 1016&#45;&gt;62 -->
<g id="edge32" class="edge"><title>1016&#45;&gt;62</title>
<path fill="none" stroke="#0d0d73" stroke-width="0.5" d="M282.522,-275.703C279.22,-272.863 275.988,-269.933 273,-267 264.293,-258.454 255.582,-248.347 248.12,-239.088"/>
<polygon fill="#0d0d73" stroke="#0d0d73" stroke-width="0.5" points="248.988,-238.213 245.845,-236.245 247.075,-239.743 248.988,-238.213"/>
<text text-anchor="middle" x="287" y="-259" font-family="Arial" font-size="10.00" fill="#0d0d73">0.13%</text>
<text text-anchor="middle" x="287" y="-248" font-family="Arial" font-size="10.00" fill="#0d0d73">1363×</text>
</g>
<!-- 1016&#45;&gt;324 -->
<g id="edge33" class="edge"><title>1016&#45;&gt;324</title>
<path fill="none" stroke="#0d0f73" stroke-width="0.5" d="M312.677,-275.901C308.506,-246.282 300.594,-195.662 290,-153 289.574,-151.284 289.106,-149.529 288.612,-147.764"/>
<polygon fill="#0d0f73" stroke="#0d0f73" stroke-width="0.5" points="289.713,-147.16 287.563,-144.138 287.359,-147.841 289.713,-147.16"/>
<text text-anchor="middle" x="321" y="-213" font-family="Arial" font-size="10.00" fill="#0d0f73">0.53%</text>
<text text-anchor="middle" x="321" y="-202" font-family="Arial" font-size="10.00" fill="#0d0f73">1363×</text>
</g>
<!-- 1795 -->
<g id="node37" class="node"><title>1795</title>
<polygon fill="#0d1074" stroke="#0d1074" points="491,-236 345,-236 345,-184 491,-184 491,-236"/>
<text text-anchor="middle" x="418" y="-224" font-family="Arial" font-size="10.00" fill="#ffffff">~:0:&lt;built&#45;in method setHtml&gt;</text>
<text text-anchor="middle" x="418" y="-213" font-family="Arial" font-size="10.00" fill="#ffffff">0.73%</text>
<text text-anchor="middle" x="418" y="-202" font-family="Arial" font-size="10.00" fill="#ffffff">(0.73%)</text>
<text text-anchor="middle" x="418" y="-191" font-family="Arial" font-size="10.00" fill="#ffffff">1379×</text>
</g>
<!-- 1016&#45;&gt;1795 -->
<g id="edge34" class="edge"><title>1016&#45;&gt;1795</title>
<path fill="none" stroke="#0d1074" stroke-width="0.5" d="M344.413,-275.93C357.565,-264.325 373.23,-250.503 386.719,-238.601"/>
<polygon fill="#0d1074" stroke="#0d1074" stroke-width="0.5" points="387.572,-239.482 389.386,-236.248 385.951,-237.645 387.572,-239.482"/>
<text text-anchor="middle" x="394" y="-259" font-family="Arial" font-size="10.00" fill="#0d1074">0.72%</text>
<text text-anchor="middle" x="394" y="-248" font-family="Arial" font-size="10.00" fill="#0d1074">1363×</text>
</g>
<!-- 1203&#45;&gt;544 -->
<g id="edge35" class="edge"><title>1203&#45;&gt;544</title>
<path fill="none" stroke="#0d1174" stroke-width="0.5" d="M933.853,-459.93C965.837,-447.936 1004.13,-433.575 1036.57,-421.412"/>
<polygon fill="#0d1174" stroke="#0d1174" stroke-width="0.5" points="1037.24,-422.468 1040.09,-420.092 1036.38,-420.173 1037.24,-422.468"/>
<text text-anchor="middle" x="1030" y="-443" font-family="Arial" font-size="10.00" fill="#0d1174">1.07%</text>
<text text-anchor="middle" x="1030" y="-432" font-family="Arial" font-size="10.00" fill="#0d1174">719×</text>
</g>
</g>
</svg>
